<svg width="129" height="49" viewBox="0 0 129 49" fill="none" xmlns="http://www.w3.org/2000/svg">
<g clip-path="url(#clip0_1_805)">
<path d="M70.2988 48.5001H73.2744C82.1841 48.0671 88.4242 41.2219 88.4242 33.0775C88.4242 30.3128 87.8291 27.548 86.4859 25.3662H70.2988V48.5001Z" fill="#EC1E24"/>
<path d="M68.8028 25.2329H53.959V48.5001H68.8028V25.2329Z" fill="#EC1E24"/>
<path d="M85.584 23.7672C84.1047 21.7353 82.0133 20.1364 79.7859 18.9705C82.4554 17.0718 84.2407 14.0239 84.2407 10.6763C84.2407 4.99688 79.6329 0.5 73.8518 0.5H70.2811V23.7672H85.584Z" fill="#EC1E24"/>
<path d="M68.8028 0.5H53.959V23.7672H68.8028V0.5Z" fill="#EC1E24"/>
<path d="M110.391 48.5001H113.366C122.276 48.0671 128.516 41.2219 128.516 33.0775C128.516 30.3128 127.921 27.548 126.578 25.3662H110.391V48.5001Z" fill="#EC1E24"/>
<path d="M108.895 25.2329H94.0508V48.5001H108.895V25.2329Z" fill="#EC1E24"/>
<path d="M125.678 23.7672C124.199 21.7353 122.107 20.1364 119.88 18.9705C122.549 17.0718 124.335 14.0239 124.335 10.6763C124.335 4.99688 119.727 0.5 113.946 0.5H110.375V23.7672H125.678Z" fill="#EC1E24"/>
<path d="M108.895 0.5H94.0508V23.7672H108.895V0.5Z" fill="#EC1E24"/>
<path d="M8.96759 25.2329L0.5 48.5001H12.8273L16.381 38.3238H24.2535V25.2329H8.96759Z" fill="#EC1E24"/>
<path d="M24.2539 0.5H17.8777L9.41016 23.7672H24.2539V0.5Z" fill="#EC1E24"/>
<path d="M25.75 38.3238H33.6225L37.1761 48.5001H49.5035L41.0359 25.2329H25.75V38.3238Z" fill="#EC1E24"/>
<path d="M40.5938 23.7672L32.1262 0.5H25.75V23.7672H40.5938Z" fill="#EC1E24"/>
</g>
<defs>
<clipPath id="clip0_1_805">
<rect width="128" height="48" fill="white" transform="translate(0.5 0.5)"/>
</clipPath>
</defs>
</svg>
