<svg width="132" height="45" viewBox="0 0 132 45" fill="none" xmlns="http://www.w3.org/2000/svg">
<g clip-path="url(#clip0_1_841)">
<mask id="mask0_1_841" style="mask-type:luminance" maskUnits="userSpaceOnUse" x="0" y="0" width="132" height="45">
<path d="M124.625 15V41.3982C124.625 43.243 126.153 44.7365 127.877 44.7365C129.601 44.7365 131.129 43.243 131.129 41.3982V15C131.129 13.1552 129.645 11.6618 127.877 11.6618C126.022 11.6618 124.625 13.1552 124.625 15ZM6.89503 34.063C6.89503 31.0981 9.57964 29.429 13.3337 29.429C17.0878 29.429 18.07 29.8023 20.7546 30.4832V37.3353C20.1435 37.8185 17.8735 39.246 13.6393 39.246C9.40503 39.246 6.89503 37.4012 6.89503 34.063ZM4.93069 12.9575C3.27191 13.7042 2.76991 14.9341 2.76991 15.9883C2.76991 17.899 4.55965 19.3265 7.24425 18.448C8.96851 17.8331 11.413 17.0864 13.923 17.0864C18.7029 17.0864 20.7328 18.8653 20.7328 23.082V25.1245C17.9172 24.4436 15.8219 24.0922 12.9409 24.0922C4.64695 24.0922 0.761913 28.6384 0.5 33.7775V34.9195C0.761913 40.6735 4.93069 45 13.05 45C21.1693 45 24.094 42.716 25.8182 41.552C26.7349 40.937 26.975 40.2562 26.975 39.1362V23.082C26.975 14.7584 22.1296 11.1127 14.2722 11.1127C10.5836 11.1127 6.72043 12.0791 4.93069 12.9575ZM68.4009 34.063C68.4009 31.0981 71.1073 29.429 74.8396 29.429C78.5718 29.429 79.554 29.8023 82.2604 30.4832V37.3353C81.6493 37.8185 79.3794 39.246 75.1451 39.246C70.9109 39.246 68.4009 37.4012 68.4009 34.063ZM66.4365 12.9575C64.7777 13.7042 64.2757 14.9341 64.2757 15.9883C64.2757 17.899 66.0655 19.3265 68.7501 18.448C70.4743 17.8331 72.9189 17.0864 75.4288 17.0864C80.2088 17.0864 82.2386 18.8653 82.2386 23.082V25.1245C79.4012 24.4436 77.3277 24.0922 74.4467 24.0922C65.869 24.0922 61.984 28.9678 61.984 34.3265C61.984 39.6852 66.1528 45 74.5558 45C82.9588 45 85.5998 42.716 87.3241 41.552C88.2407 40.937 88.4808 40.2562 88.4808 39.1362V23.082C88.4808 14.7584 83.6355 11.1127 75.7781 11.1127C72.0895 11.1127 68.2263 12.0791 66.4365 12.9575ZM94.1556 14.4949C93.2389 15.1098 92.8679 15.7467 92.8679 17.0205V41.2665C92.8679 43.1113 94.3957 44.6047 96.12 44.6047C97.8442 44.6047 99.372 43.1113 99.372 41.2665V19.1288C100.769 18.2504 103.672 17.3939 106.662 17.3939C109.652 17.3939 113.777 19.5022 113.777 24.4436V41.2884C113.777 43.1332 115.305 44.6266 117.029 44.6266C118.754 44.6266 120.281 43.1332 120.281 41.2884V24.1362C120.281 15.7906 115.742 11.1127 106.858 11.1127C97.9752 11.1127 95.9235 13.1332 94.1556 14.4949ZM37.3642 31.4715C37.1896 29.5608 37.2551 25.9151 37.3642 24.246C37.6261 19.7438 39.8306 17.3939 44.4795 17.3939C49.1285 17.3939 50.7436 18.5139 52.0313 19.3045V36.4568C50.8091 37.3792 47.6225 38.675 44.9815 38.675C40.2671 38.675 37.7571 36.2152 37.3642 31.4715ZM52.0313 3.62372V12.8697C50.0015 11.9473 46.9459 11.0908 43.9993 11.0908C36.0983 11.0908 31.5585 15.8346 30.8819 23.4993C30.7073 25.7174 30.7073 30.1098 30.8819 32.2621C31.5585 39.8389 36.5785 44.978 44.8724 44.978C53.1663 44.978 55.7854 42.3206 57.3787 41.1347C58.3609 40.4539 58.5573 39.7731 58.5573 38.675V3.62372C58.5573 1.77892 57.1386 0.285505 55.3052 0.285505C53.5155 0.307467 52.0313 1.77892 52.0313 3.62372ZM124.188 3.64568C124.188 5.68814 125.716 7.42313 127.877 7.42313C130.038 7.42313 131.5 5.68814 131.5 3.64568C131.5 1.60322 129.907 0 127.877 0C125.847 0 124.188 1.60322 124.188 3.64568Z" fill="white"/>
</mask>
<g mask="url(#mask0_1_841)">
<path d="M1.52541 56.42L135.385 44.6484L130.496 -11.4424L-3.3418 0.351174L1.52541 56.42Z" fill="url(#paint0_linear_1_841)"/>
</g>
</g>
<defs>
<linearGradient id="paint0_linear_1_841" x1="-55.6107" y1="30.8585" x2="184.97" y2="9.9406" gradientUnits="userSpaceOnUse">
<stop stop-color="#00A17C"/>
<stop offset="0.3" stop-color="#006DB6"/>
<stop offset="0.4" stop-color="#205DAD"/>
<stop offset="0.5" stop-color="#4F46A0"/>
<stop offset="0.6" stop-color="#862B91"/>
<stop offset="0.7" stop-color="#A83172"/>
<stop offset="0.9" stop-color="#F04C23"/>
<stop offset="1" stop-color="#F04C23"/>
</linearGradient>
<clipPath id="clip0_1_841">
<rect width="131" height="45" fill="white" transform="translate(0.5)"/>
</clipPath>
</defs>
</svg>
