<svg width="22" height="22" viewBox="0 0 22 22" fill="none" xmlns="http://www.w3.org/2000/svg">
<path d="M14.6641 2.75V6.41667M7.33073 2.75V6.41667M3.66406 10.0833H18.3307M3.66406 6.41667C3.66406 5.93044 3.85722 5.46412 4.20103 5.1203C4.54485 4.77649 5.01117 4.58333 5.4974 4.58333H16.4974C16.9836 4.58333 17.4499 4.77649 17.7938 5.1203C18.1376 5.46412 18.3307 5.93044 18.3307 6.41667V17.4167C18.3307 17.9029 18.1376 18.3692 17.7938 18.713C17.4499 19.0568 16.9836 19.25 16.4974 19.25H5.4974C5.01117 19.25 4.54485 19.0568 4.20103 18.713C3.85722 18.3692 3.66406 17.9029 3.66406 17.4167V6.41667ZM7.33073 13.75H9.16406V15.5833H7.33073V13.75Z" stroke="#192236" stroke-width="1.5" stroke-linecap="round" stroke-linejoin="round"/>
</svg>
