<svg width="452" height="43" viewBox="0 0 452 43" fill="none" xmlns="http://www.w3.org/2000/svg">
<path d="M26.7654 32.1911C24.5804 34.376 21.303 35.7416 17.7525 35.7416C10.9246 35.7416 6.00855 30.2793 6.00855 22.9052C6.00855 15.531 10.9246 10.0687 18.0256 10.0687C21.303 10.0687 24.5804 11.4343 27.0385 13.8923L27.8578 14.7117L31.9546 10.615L31.1352 9.79561C27.5847 6.2451 22.9417 4.33329 18.0256 4.33329C7.64724 4.06018 0 12.2537 0 22.9052C0 33.5567 7.64724 41.7502 17.7525 41.7502C22.6686 41.7502 27.5847 39.8384 30.8621 36.2878L31.6814 35.4685L27.5847 31.3718L26.7654 32.1911Z" fill="#17313B"/>
<path d="M34.9546 2.96753H41.2362V41.75H34.9546V2.96753Z" fill="#17313B"/>
<path d="M61.4426 29.4597C61.4426 35.4682 56.5265 36.0145 54.8878 36.0145C51.0642 36.0145 50.518 32.4639 50.518 30.5521V15.5308H44.2363V30.279C44.2363 33.8295 45.3288 37.1069 47.5137 39.0187C49.4255 40.9305 51.8836 41.7499 54.8878 41.7499C57.0728 41.7499 59.8039 41.2037 61.4426 39.565V41.7499H67.7243V15.5308H61.4426V29.4597Z" fill="#17313B"/>
<path d="M81.6488 5.97192H75.3672V15.531H70.7242V21.5395H75.3672V41.7501H81.6488V21.5395H86.2918V15.531H81.6488V5.97192Z" fill="#17313B"/>
<path d="M107.864 33.8296C106.498 34.9221 104.586 35.7414 102.674 35.7414C98.3046 35.7414 95.3003 32.464 95.3003 28.0942C95.3003 23.7243 98.3046 20.72 102.674 20.72C104.586 20.72 106.498 21.2663 107.864 22.6319L108.683 23.4512L113.053 19.3545L111.96 18.5351C109.502 16.3502 106.225 14.9846 102.674 14.9846C95.0272 14.9846 89.2918 20.7201 89.2918 28.3673C89.2918 36.0145 95.0272 41.75 102.674 41.75C106.225 41.75 109.502 40.3844 111.96 38.1995L113.053 37.3801L108.683 33.0103L107.864 33.8296Z" fill="#17313B"/>
<path d="M135.171 17.7158C133.259 15.804 131.347 14.9846 128.343 14.9846C126.158 14.9846 123.973 15.5309 122.334 17.1696V2.96753H116.053V41.75H122.334V27.2748C122.334 21.2663 126.431 20.7201 128.07 20.7201C131.893 20.7201 131.62 24.2706 131.62 26.1824V41.4769H137.902V26.4555C137.902 22.905 137.083 19.6276 135.171 17.7158Z" fill="#17313B"/>
<path d="M102.048 32.7365C104.485 32.7365 106.46 30.7801 106.46 28.3667C106.46 25.9533 104.485 23.9968 102.048 23.9968C99.6105 23.9968 97.6348 25.9533 97.6348 28.3667C97.6348 30.7801 99.6105 32.7365 102.048 32.7365Z" fill="#EF4335"/>
<path d="M172.022 17.9131V15.2311H166.334V12.5851L171.932 5.43909H174.416V13.2691H176.288V15.2311H174.416V17.9131H172.022ZM168.314 13.2151V13.2691H172.022V8.48109H171.986L168.314 13.2151ZM177.435 17.9131V15.3031H180.063V17.9131H177.435ZM182.446 17.9131C182.494 16.4971 182.764 15.0931 183.256 13.7011C183.76 12.2971 184.318 11.1331 184.93 10.2091C185.542 9.27309 186.196 8.44509 186.892 7.72509V7.68909H180.772V5.58308H189.556V7.59909C188.332 8.84709 187.306 10.3531 186.478 12.1171C185.65 13.8811 185.194 15.8131 185.11 17.9131H182.446ZM193.592 17.9131L198.632 5.04309H200.576L195.536 17.9131H193.592ZM209.397 18.1831C208.017 18.1831 206.871 17.8411 205.959 17.1571C205.059 16.4731 204.549 15.5371 204.429 14.3491H206.841C206.949 14.9371 207.225 15.3811 207.669 15.6811C208.125 15.9811 208.683 16.1311 209.343 16.1311C210.027 16.1311 210.579 15.9151 210.999 15.4831C211.419 15.0391 211.629 14.4811 211.629 13.8091C211.629 13.1011 211.413 12.5491 210.981 12.1531C210.561 11.7451 210.015 11.5411 209.343 11.5411C208.443 11.5411 207.771 11.7991 207.327 12.3151H204.969L206.157 5.58308H213.429V7.61709H207.867L207.399 10.2811H207.435C208.035 9.76509 208.887 9.50709 209.991 9.50709C211.131 9.50709 212.109 9.90309 212.925 10.6951C213.753 11.4871 214.167 12.5251 214.167 13.8091C214.167 15.0811 213.711 16.1311 212.799 16.9591C211.899 17.7751 210.765 18.1831 209.397 18.1831ZM215.429 17.9131V15.3031H218.057V17.9131H215.429ZM224.218 18.2011C222.646 18.2011 221.392 17.6191 220.456 16.4551C219.532 15.2911 219.07 13.7251 219.07 11.7571C219.07 9.78909 219.538 8.22309 220.474 7.05909C221.41 5.89509 222.664 5.31309 224.236 5.31309C225.82 5.31309 227.068 5.89509 227.98 7.05909C228.904 8.21109 229.366 9.77709 229.366 11.7571C229.366 13.7251 228.904 15.2911 227.98 16.4551C227.068 17.6191 225.814 18.2011 224.218 18.2011ZM224.236 16.1131C225.952 16.1131 226.81 14.6611 226.81 11.7571C226.81 10.3891 226.6 9.32109 226.18 8.55309C225.76 7.78509 225.112 7.40109 224.236 7.40109C223.348 7.40109 222.688 7.78509 222.256 8.55309C221.836 9.32109 221.626 10.3891 221.626 11.7571C221.626 13.1251 221.836 14.1931 222.256 14.9611C222.688 15.7291 223.348 16.1131 224.236 16.1131Z" fill="#111111"/>
<path d="M252.951 4.84014C253.25 3.91883 254.554 3.91883 254.853 4.84014L255.923 8.13193C256.057 8.54396 256.44 8.82292 256.874 8.82292H260.335C261.304 8.82292 261.706 10.0625 260.923 10.6319L258.123 12.6664C257.772 12.921 257.625 13.3724 257.759 13.7844L258.829 17.0762C259.128 17.9975 258.074 18.7636 257.29 18.1942L254.49 16.1598C254.139 15.9052 253.665 15.9052 253.314 16.1598L250.514 18.1942C249.73 18.7636 248.676 17.9975 248.975 17.0762L250.045 13.7844C250.179 13.3724 250.032 12.921 249.682 12.6664L246.881 10.6319C246.098 10.0625 246.5 8.82292 247.469 8.82292H250.93C251.364 8.82292 251.748 8.54396 251.881 8.13193L252.951 4.84014Z" fill="url(#paint0_linear_1_965)"/>
<path d="M276.951 4.84014C277.25 3.91883 278.554 3.91883 278.853 4.84014L279.923 8.13193C280.056 8.54396 280.44 8.82292 280.874 8.82292H284.335C285.304 8.82292 285.706 10.0625 284.923 10.6319L282.122 12.6664C281.772 12.921 281.625 13.3724 281.759 13.7844L282.829 17.0762C283.128 17.9975 282.074 18.7636 281.29 18.1942L278.49 16.1598C278.139 15.9052 277.665 15.9052 277.314 16.1598L274.514 18.1942C273.73 18.7636 272.676 17.9975 272.975 17.0762L274.045 13.7844C274.179 13.3724 274.032 12.921 273.681 12.6664L270.881 10.6319C270.098 10.0625 270.5 8.82292 271.469 8.82292H274.93C275.364 8.82292 275.747 8.54396 275.881 8.13193L276.951 4.84014Z" fill="url(#paint1_linear_1_965)"/>
<path d="M300.951 4.84014C301.25 3.91883 302.554 3.91883 302.853 4.84014L303.923 8.13193C304.056 8.54396 304.44 8.82292 304.874 8.82292H308.335C309.304 8.82292 309.706 10.0625 308.923 10.6319L306.122 12.6664C305.772 12.921 305.625 13.3724 305.759 13.7844L306.829 17.0762C307.128 17.9975 306.074 18.7636 305.29 18.1942L302.49 16.1598C302.139 15.9052 301.665 15.9052 301.314 16.1598L298.514 18.1942C297.73 18.7636 296.676 17.9975 296.975 17.0762L298.045 13.7844C298.179 13.3724 298.032 12.921 297.681 12.6664L294.881 10.6319C294.098 10.0625 294.5 8.82292 295.469 8.82292H298.93C299.364 8.82292 299.747 8.54396 299.881 8.13193L300.951 4.84014Z" fill="url(#paint2_linear_1_965)"/>
<path d="M324.951 4.84014C325.25 3.91883 326.554 3.91883 326.853 4.84014L327.923 8.13193C328.056 8.54396 328.44 8.82292 328.874 8.82292H332.335C333.304 8.82292 333.706 10.0625 332.923 10.6319L330.122 12.6664C329.772 12.921 329.625 13.3724 329.759 13.7844L330.829 17.0762C331.128 17.9975 330.074 18.7636 329.29 18.1942L326.49 16.1598C326.139 15.9052 325.665 15.9052 325.314 16.1598L322.514 18.1942C321.73 18.7636 320.676 17.9975 320.975 17.0762L322.045 13.7844C322.179 13.3724 322.032 12.921 321.681 12.6664L318.881 10.6319C318.098 10.0625 318.5 8.82292 319.469 8.82292H322.93C323.364 8.82292 323.747 8.54396 323.881 8.13193L324.951 4.84014Z" fill="url(#paint3_linear_1_965)"/>
<path d="M348.951 4.84014C349.25 3.91883 350.554 3.91883 350.853 4.84014L351.923 8.13193C352.056 8.54396 352.44 8.82292 352.874 8.82292H356.335C357.304 8.82292 357.706 10.0625 356.923 10.6319L354.122 12.6664C353.772 12.921 353.625 13.3724 353.759 13.7844L354.829 17.0762C355.128 17.9975 354.074 18.7636 353.29 18.1942L350.49 16.1598C350.139 15.9052 349.665 15.9052 349.314 16.1598L346.514 18.1942C345.73 18.7636 344.676 17.9975 344.975 17.0762L346.045 13.7844C346.179 13.3724 346.032 12.921 345.681 12.6664L342.881 10.6319C342.098 10.0625 342.5 8.82292 343.469 8.82292H346.93C347.364 8.82292 347.747 8.54396 347.881 8.13193L348.951 4.84014Z" fill="url(#paint4_linear_1_965)"/>
<path d="M167.137 41.8589V28.6819H172.721C174.109 28.6819 175.166 29.0627 175.891 29.8245C176.456 30.4142 176.738 31.1637 176.738 32.0729C176.738 33.4735 176.032 34.395 174.619 34.8373V34.8926C175.405 35.0769 176.044 35.4455 176.536 35.9983C177.027 36.5389 177.273 37.2331 177.273 38.0809C177.273 39.0883 176.954 39.9299 176.315 40.6057C175.541 41.4412 174.441 41.8589 173.016 41.8589H167.137ZM168.795 40.3661H172.942C173.851 40.3661 174.539 40.145 175.006 39.7026C175.399 39.2849 175.596 38.775 175.596 38.173C175.596 37.3744 175.344 36.7662 174.84 36.3485C174.337 35.9308 173.667 35.7219 172.831 35.7219H168.795V40.3661ZM168.795 34.3213H172.518C173.317 34.3213 173.943 34.1308 174.398 33.7499C174.853 33.3691 175.08 32.8408 175.08 32.165C175.08 31.5261 174.871 31.0285 174.453 30.6722C174.048 30.3037 173.476 30.1194 172.739 30.1194H168.795V34.3213ZM186.258 41.951C185.312 41.951 184.766 41.478 184.618 40.532H184.6C183.813 41.5394 182.757 42.0432 181.43 42.0432C180.484 42.0432 179.71 41.8159 179.108 41.3613C178.506 40.9067 178.205 40.2494 178.205 39.3893C178.205 38.947 178.272 38.5662 178.407 38.2467C178.555 37.915 178.739 37.6508 178.96 37.4543C179.181 37.2454 179.482 37.0672 179.863 36.9198C180.256 36.7601 180.631 36.6434 180.987 36.5696C181.344 36.4836 181.798 36.3976 182.351 36.3116C182.708 36.2625 182.959 36.2256 183.107 36.2011C183.267 36.1642 183.469 36.1151 183.715 36.0536C183.961 35.9799 184.133 35.9 184.231 35.814C184.329 35.728 184.421 35.6113 184.507 35.4639C184.594 35.3164 184.637 35.1444 184.637 34.9479C184.637 34.4073 184.446 33.9957 184.065 33.7131C183.697 33.4182 183.174 33.2708 182.499 33.2708C180.963 33.2708 180.17 33.9711 180.121 35.3717H178.684C178.708 34.4011 179.04 33.6209 179.679 33.0312C180.33 32.4415 181.264 32.1466 182.48 32.1466C184.827 32.1466 186 33.1541 186 35.169V39.7026C186 40.1204 186.068 40.4153 186.203 40.5873C186.35 40.7593 186.621 40.8023 187.014 40.7163H187.069V41.8036C186.823 41.9019 186.553 41.951 186.258 41.951ZM181.762 40.9006C182.683 40.9006 183.396 40.6364 183.899 40.1081C184.403 39.5675 184.655 38.9778 184.655 38.3389V36.7171C184.2 36.9997 183.475 37.2331 182.48 37.4174C182.112 37.4911 181.823 37.5525 181.614 37.6017C181.405 37.6386 181.166 37.7123 180.895 37.8228C180.625 37.9211 180.422 38.0317 180.287 38.1546C180.152 38.2774 180.035 38.4433 179.937 38.6522C179.839 38.8488 179.79 39.0822 179.79 39.3525C179.79 40.3845 180.447 40.9006 181.762 40.9006ZM191.783 42.1353C190.48 42.1353 189.467 41.8466 188.742 41.2691C188.029 40.6794 187.636 39.8439 187.562 38.7627H189.092C189.264 40.1757 190.173 40.8821 191.82 40.8821C192.569 40.8821 193.122 40.7408 193.478 40.4583C193.847 40.1634 194.031 39.7825 194.031 39.3156C194.031 38.8119 193.853 38.4494 193.497 38.2283C193.14 38.0071 192.489 37.7983 191.543 37.6017C191.15 37.5157 190.837 37.4481 190.603 37.399C190.382 37.3375 190.112 37.2577 189.792 37.1594C189.473 37.0488 189.221 36.9321 189.037 36.8092C188.865 36.6741 188.687 36.5144 188.502 36.3301C188.318 36.1458 188.183 35.9185 188.097 35.6482C188.023 35.3779 187.986 35.0769 187.986 34.7451C187.986 33.9342 188.281 33.2954 188.871 32.8285C189.473 32.3616 190.321 32.1282 191.414 32.1282C193.675 32.1282 194.922 33.1234 195.155 35.1137H193.626C193.552 34.4871 193.337 34.0325 192.981 33.7499C192.624 33.4551 192.09 33.3076 191.377 33.3076C190.726 33.3076 190.241 33.4366 189.921 33.6947C189.614 33.9404 189.461 34.266 189.461 34.6714C189.461 35.1383 189.645 35.47 190.014 35.6666C190.382 35.8509 191.052 36.0413 192.022 36.2379C192.612 36.3608 193.073 36.4775 193.405 36.5881C193.749 36.6864 194.105 36.8461 194.473 37.0672C194.842 37.2761 195.112 37.5587 195.284 37.915C195.456 38.2713 195.542 38.7136 195.542 39.2419C195.542 40.1757 195.198 40.8944 194.51 41.3982C193.822 41.8896 192.913 42.1353 191.783 42.1353ZM201.224 42.1169C199.811 42.1169 198.687 41.6439 197.852 40.6978C197.028 39.7395 196.617 38.5416 196.617 37.1041C196.617 35.6912 197.035 34.5056 197.87 33.5472C198.718 32.5766 199.805 32.0913 201.132 32.0913C202.533 32.0913 203.614 32.5828 204.376 33.5657C205.137 34.5363 205.518 35.8325 205.518 37.4543H198.147C198.208 38.4617 198.503 39.2849 199.031 39.9238C199.572 40.5504 200.303 40.8637 201.224 40.8637C202.649 40.8637 203.528 40.2125 203.86 38.9102H205.316C205.094 39.9299 204.628 40.7224 203.915 41.2876C203.202 41.8405 202.305 42.1169 201.224 42.1169ZM203.122 34.0817C202.643 33.5411 201.98 33.2708 201.132 33.2708C200.284 33.2708 199.609 33.5534 199.105 34.1185C198.613 34.6837 198.306 35.4209 198.183 36.3301H203.915C203.866 35.3717 203.602 34.6223 203.122 34.0817ZM210.664 42.1353C209.362 42.1353 208.329 41.6869 207.568 40.79C206.818 39.8808 206.444 38.6583 206.444 37.1225C206.444 35.5745 206.837 34.352 207.623 33.4551C208.409 32.5582 209.411 32.1097 210.627 32.1097C211.917 32.1097 212.912 32.6319 213.613 33.6762H213.649V28.6819H215.142V41.8589H213.649V40.6978H213.613C212.863 41.6562 211.88 42.1353 210.664 42.1353ZM210.719 40.8821C211.739 40.8821 212.495 40.5443 212.986 39.8685C213.49 39.1928 213.742 38.2836 213.742 37.141C213.742 36.0106 213.471 35.1014 212.931 34.4134C212.402 33.7254 211.659 33.3814 210.701 33.3814C209.828 33.3814 209.153 33.7315 208.673 34.4318C208.207 35.1199 207.973 36.0229 207.973 37.141C207.973 38.259 208.207 39.1621 208.673 39.8501C209.153 40.5381 209.835 40.8821 210.719 40.8821ZM227.507 40.6794C226.671 41.6377 225.559 42.1169 224.171 42.1169C222.783 42.1169 221.665 41.6377 220.817 40.6794C219.981 39.7211 219.564 38.5293 219.564 37.1041C219.564 35.6789 219.981 34.4871 220.817 33.5288C221.665 32.5705 222.783 32.0913 224.171 32.0913C225.559 32.0913 226.671 32.5705 227.507 33.5288C228.342 34.4871 228.76 35.6789 228.76 37.1041C228.76 38.5293 228.342 39.7211 227.507 40.6794ZM221.886 39.8132C222.426 40.5135 223.188 40.8637 224.171 40.8637C225.154 40.8637 225.91 40.5135 226.438 39.8132C226.966 39.1006 227.23 38.1976 227.23 37.1041C227.23 35.9983 226.96 35.0953 226.419 34.395C225.891 33.6824 225.142 33.3261 224.171 33.3261C223.188 33.3261 222.426 33.6824 221.886 34.395C221.357 35.1076 221.093 36.0106 221.093 37.1041C221.093 38.1976 221.357 39.1006 221.886 39.8132ZM231.741 32.3309V33.5841H231.778C232.516 32.6012 233.523 32.1097 234.801 32.1097C235.808 32.1097 236.595 32.3739 237.16 32.9022C237.725 33.4305 238.007 34.1861 238.007 35.169V41.8589H236.515V35.298C236.515 34.6837 236.324 34.2107 235.943 33.879C235.563 33.5349 235.034 33.3629 234.358 33.3629C233.597 33.3629 232.97 33.6087 232.479 34.1001C231.987 34.5916 231.741 35.2243 231.741 35.9983V41.8589H230.249V32.3309H231.741ZM247.268 42.1353C245.831 42.1353 244.639 41.7422 243.693 40.9558C242.747 40.1695 242.262 39.0822 242.237 37.6938H243.767C243.791 38.7013 244.105 39.4815 244.707 40.0344C245.321 40.575 246.156 40.8453 247.213 40.8453C248.122 40.8453 248.847 40.6241 249.388 40.1818C249.928 39.7272 250.199 39.0638 250.199 38.1914C250.199 37.3928 249.91 36.7847 249.332 36.3669C248.767 35.9492 247.95 35.7403 246.881 35.7403H246.089V34.5424H246.863C247.833 34.5424 248.571 34.352 249.074 33.9711C249.578 33.5902 249.83 33.0558 249.83 32.3677C249.83 31.692 249.566 31.1575 249.037 30.7644C248.521 30.3589 247.87 30.1562 247.084 30.1562C246.187 30.1562 245.474 30.4265 244.946 30.9671C244.43 31.4954 244.172 32.2019 244.172 33.0865H242.661C242.673 31.8333 243.079 30.832 243.877 30.0825C244.676 29.3207 245.763 28.9399 247.139 28.9399C248.343 28.9399 249.345 29.2532 250.143 29.8798C250.942 30.4941 251.341 31.3357 251.341 32.4046C251.341 33.7069 250.647 34.5916 249.259 35.0584V35.1137C250.954 35.556 251.802 36.6311 251.802 38.3389C251.802 39.5184 251.372 40.446 250.512 41.1217C249.664 41.7975 248.583 42.1353 247.268 42.1353ZM257.761 42.1353C256.323 42.1353 255.132 41.7422 254.185 40.9558C253.239 40.1695 252.754 39.0822 252.73 37.6938H254.259C254.284 38.7013 254.597 39.4815 255.199 40.0344C255.813 40.575 256.649 40.8453 257.705 40.8453C258.615 40.8453 259.34 40.6241 259.88 40.1818C260.421 39.7272 260.691 39.0638 260.691 38.1914C260.691 37.3928 260.402 36.7847 259.825 36.3669C259.26 35.9492 258.443 35.7403 257.374 35.7403H256.581V34.5424H257.355C258.326 34.5424 259.063 34.352 259.567 33.9711C260.071 33.5902 260.322 33.0558 260.322 32.3677C260.322 31.692 260.058 31.1575 259.53 30.7644C259.014 30.3589 258.363 30.1562 257.576 30.1562C256.68 30.1562 255.967 30.4265 255.439 30.9671C254.923 31.4954 254.665 32.2019 254.665 33.0865H253.153C253.166 31.8333 253.571 30.832 254.37 30.0825C255.168 29.3207 256.256 28.9399 257.632 28.9399C258.836 28.9399 259.837 29.2532 260.636 29.8798C261.434 30.4941 261.834 31.3357 261.834 32.4046C261.834 33.7069 261.139 34.5916 259.751 35.0584V35.1137C261.447 35.556 262.294 36.6311 262.294 38.3389C262.294 39.5184 261.864 40.446 261.004 41.1217C260.157 41.7975 259.075 42.1353 257.761 42.1353ZM270.91 42.1169C269.522 42.1169 268.404 41.6377 267.556 40.6794C266.721 39.7211 266.303 38.5293 266.303 37.1041C266.303 35.6789 266.721 34.4871 267.556 33.5288C268.404 32.5705 269.522 32.0913 270.91 32.0913C272.028 32.0913 272.944 32.3923 273.656 32.9943C274.369 33.5841 274.811 34.3888 274.983 35.4086H273.472C273.362 34.7574 273.085 34.2475 272.643 33.879C272.2 33.5104 271.623 33.3261 270.91 33.3261C269.928 33.3261 269.166 33.6824 268.625 34.395C268.097 35.1076 267.833 36.0106 267.833 37.1041C267.833 38.1976 268.097 39.1006 268.625 39.8132C269.166 40.5135 269.928 40.8637 270.91 40.8637C271.672 40.8637 272.28 40.661 272.735 40.2555C273.19 39.8378 273.448 39.2542 273.509 38.5047H274.983C274.885 39.6474 274.48 40.5381 273.767 41.177C273.054 41.8036 272.102 42.1169 270.91 42.1169ZM276.449 41.8589V28.6819H277.942V41.8589H276.449ZM280.03 41.8589V32.3309H281.522V41.8589H280.03ZM280.03 30.5248V28.6819H281.522V30.5248H280.03ZM287.63 42.1169C286.217 42.1169 285.093 41.6439 284.257 40.6978C283.434 39.7395 283.023 38.5416 283.023 37.1041C283.023 35.6912 283.44 34.5056 284.276 33.5472C285.124 32.5766 286.211 32.0913 287.538 32.0913C288.939 32.0913 290.02 32.5828 290.782 33.5657C291.543 34.5363 291.924 35.8325 291.924 37.4543H284.552C284.614 38.4617 284.909 39.2849 285.437 39.9238C285.978 40.5504 286.709 40.8637 287.63 40.8637C289.055 40.8637 289.934 40.2125 290.265 38.9102H291.721C291.5 39.9299 291.033 40.7224 290.321 41.2876C289.608 41.8405 288.711 42.1169 287.63 42.1169ZM289.528 34.0817C289.049 33.5411 288.386 33.2708 287.538 33.2708C286.69 33.2708 286.014 33.5534 285.511 34.1185C285.019 34.6837 284.712 35.4209 284.589 36.3301H290.321C290.272 35.3717 290.007 34.6223 289.528 34.0817ZM294.877 32.3309V33.5841H294.913C295.651 32.6012 296.658 32.1097 297.936 32.1097C298.943 32.1097 299.73 32.3739 300.295 32.9022C300.86 33.4305 301.143 34.1861 301.143 35.169V41.8589H299.65V35.298C299.65 34.6837 299.459 34.2107 299.078 33.879C298.698 33.5349 298.169 33.3629 297.494 33.3629C296.732 33.3629 296.105 33.6087 295.614 34.1001C295.122 34.5916 294.877 35.2243 294.877 35.9983V41.8589H293.384V32.3309H294.877ZM302.332 33.5472V32.3309H303.714V29.3269H305.207V32.3309H307.05V33.5472H305.207V39.7395C305.207 40.3292 305.527 40.6241 306.166 40.6241C306.436 40.6241 306.7 40.5811 306.958 40.4951H307.013V41.7852C306.608 41.8712 306.209 41.9142 305.815 41.9142C304.415 41.9142 303.714 41.2999 303.714 40.0712V33.5472H302.332ZM312.204 42.1353C310.901 42.1353 309.888 41.8466 309.163 41.2691C308.45 40.6794 308.057 39.8439 307.983 38.7627H309.513C309.685 40.1757 310.594 40.8821 312.241 40.8821C312.99 40.8821 313.543 40.7408 313.899 40.4583C314.268 40.1634 314.452 39.7825 314.452 39.3156C314.452 38.8119 314.274 38.4494 313.918 38.2283C313.561 38.0071 312.91 37.7983 311.964 37.6017C311.571 37.5157 311.258 37.4481 311.024 37.399C310.803 37.3375 310.533 37.2577 310.213 37.1594C309.894 37.0488 309.642 36.9321 309.458 36.8092C309.286 36.6741 309.108 36.5144 308.923 36.3301C308.739 36.1458 308.604 35.9185 308.518 35.6482C308.444 35.3779 308.407 35.0769 308.407 34.7451C308.407 33.9342 308.702 33.2954 309.292 32.8285C309.894 32.3616 310.742 32.1282 311.835 32.1282C314.096 32.1282 315.343 33.1234 315.576 35.1137H314.047C313.973 34.4871 313.758 34.0325 313.402 33.7499C313.045 33.4551 312.511 33.3076 311.798 33.3076C311.147 33.3076 310.662 33.4366 310.342 33.6947C310.035 33.9404 309.882 34.266 309.882 34.6714C309.882 35.1383 310.066 35.47 310.435 35.6666C310.803 35.8509 311.473 36.0413 312.443 36.2379C313.033 36.3608 313.494 36.4775 313.826 36.5881C314.17 36.6864 314.526 36.8461 314.895 37.0672C315.263 37.2761 315.533 37.5587 315.705 37.915C315.877 38.2713 315.963 38.7136 315.963 39.2419C315.963 40.1757 315.619 40.8944 314.931 41.3982C314.243 41.8896 313.334 42.1353 312.204 42.1353ZM321.819 32.3309V33.9158H321.856C322.163 33.4121 322.562 33.0066 323.054 32.6995C323.545 32.38 324.092 32.2203 324.694 32.2203C324.915 32.2203 325.118 32.2572 325.302 32.3309V33.7684H325.247C325.062 33.7069 324.841 33.6762 324.583 33.6762C323.821 33.6762 323.17 33.9465 322.63 34.4871C322.089 35.0154 321.819 35.7096 321.819 36.5696V41.8589H320.326V32.3309H321.819ZM330.356 42.1169C328.943 42.1169 327.819 41.6439 326.983 40.6978C326.16 39.7395 325.749 38.5416 325.749 37.1041C325.749 35.6912 326.166 34.5056 327.002 33.5472C327.85 32.5766 328.937 32.0913 330.264 32.0913C331.665 32.0913 332.746 32.5828 333.507 33.5657C334.269 34.5363 334.65 35.8325 334.65 37.4543H327.278C327.34 38.4617 327.635 39.2849 328.163 39.9238C328.704 40.5504 329.435 40.8637 330.356 40.8637C331.781 40.8637 332.66 40.2125 332.991 38.9102H334.447C334.226 39.9299 333.759 40.7224 333.047 41.2876C332.334 41.8405 331.437 42.1169 330.356 42.1169ZM332.254 34.0817C331.775 33.5411 331.112 33.2708 330.264 33.2708C329.416 33.2708 328.74 33.5534 328.237 34.1185C327.745 34.6837 327.438 35.4209 327.315 36.3301H333.047C332.998 35.3717 332.733 34.6223 332.254 34.0817ZM338.289 41.8589L334.953 32.3309H336.556L338.528 38.3757L339.155 40.3845H339.192C339.425 39.5982 339.634 38.9286 339.818 38.3757L341.827 32.3309H343.375L339.947 41.8589H338.289ZM344.425 41.8589V32.3309H345.917V41.8589H344.425ZM344.425 30.5248V28.6819H345.917V30.5248H344.425ZM352.025 42.1169C350.612 42.1169 349.488 41.6439 348.652 40.6978C347.829 39.7395 347.418 38.5416 347.418 37.1041C347.418 35.6912 347.835 34.5056 348.671 33.5472C349.519 32.5766 350.606 32.0913 351.933 32.0913C353.333 32.0913 354.415 32.5828 355.176 33.5657C355.938 34.5363 356.319 35.8325 356.319 37.4543H348.947C349.009 38.4617 349.304 39.2849 349.832 39.9238C350.372 40.5504 351.104 40.8637 352.025 40.8637C353.45 40.8637 354.329 40.2125 354.66 38.9102H356.116C355.895 39.9299 355.428 40.7224 354.716 41.2876C354.003 41.8405 353.106 42.1169 352.025 42.1169ZM353.923 34.0817C353.444 33.5411 352.781 33.2708 351.933 33.2708C351.085 33.2708 350.409 33.5534 349.906 34.1185C349.414 34.6837 349.107 35.4209 348.984 36.3301H354.716C354.667 35.3717 354.402 34.6223 353.923 34.0817ZM359.681 41.8589L356.659 32.3309H358.262L359.939 38.2099L360.455 40.2555H360.492C360.676 39.4201 360.836 38.7505 360.971 38.2467L362.575 32.3309H364.141L365.689 38.2467L366.15 40.2555H366.187C366.383 39.4201 366.562 38.7382 366.721 38.2099L368.491 32.3309H370.039L366.924 41.8589H365.394L363.809 36.0905L363.349 34.1001H363.312C363.14 34.8987 362.98 35.5622 362.833 36.0905L361.229 41.8589H359.681ZM374.655 42.1353C373.353 42.1353 372.339 41.8466 371.614 41.2691C370.902 40.6794 370.508 39.8439 370.435 38.7627H371.964C372.136 40.1757 373.045 40.8821 374.692 40.8821C375.441 40.8821 375.994 40.7408 376.351 40.4583C376.719 40.1634 376.903 39.7825 376.903 39.3156C376.903 38.8119 376.725 38.4494 376.369 38.2283C376.013 38.0071 375.361 37.7983 374.415 37.6017C374.022 37.5157 373.709 37.4481 373.476 37.399C373.254 37.3375 372.984 37.2577 372.665 37.1594C372.345 37.0488 372.093 36.9321 371.909 36.8092C371.737 36.6741 371.559 36.5144 371.375 36.3301C371.19 36.1458 371.055 35.9185 370.969 35.6482C370.895 35.3779 370.859 35.0769 370.859 34.7451C370.859 33.9342 371.153 33.2954 371.743 32.8285C372.345 32.3616 373.193 32.1282 374.286 32.1282C376.547 32.1282 377.794 33.1234 378.028 35.1137H376.498C376.424 34.4871 376.209 34.0325 375.853 33.7499C375.497 33.4551 374.962 33.3076 374.25 33.3076C373.598 33.3076 373.113 33.4366 372.794 33.6947C372.486 33.9404 372.333 34.266 372.333 34.6714C372.333 35.1383 372.517 35.47 372.886 35.6666C373.254 35.8509 373.924 36.0413 374.895 36.2379C375.484 36.3608 375.945 36.4775 376.277 36.5881C376.621 36.6864 376.977 36.8461 377.346 37.0672C377.714 37.2761 377.985 37.5587 378.157 37.915C378.329 38.2713 378.415 38.7136 378.415 39.2419C378.415 40.1757 378.071 40.8944 377.383 41.3982C376.695 41.8896 375.785 42.1353 374.655 42.1353Z" fill="#1D1D1D" fill-opacity="0.5"/>
<defs>
<linearGradient id="paint0_linear_1_965" x1="243.74" y1="10.2464" x2="264.009" y2="10.2746" gradientUnits="userSpaceOnUse">
<stop stop-color="#D81F28"/>
<stop offset="1" stop-color="#E0005F"/>
</linearGradient>
<linearGradient id="paint1_linear_1_965" x1="267.74" y1="10.2464" x2="288.009" y2="10.2746" gradientUnits="userSpaceOnUse">
<stop stop-color="#D81F28"/>
<stop offset="1" stop-color="#E0005F"/>
</linearGradient>
<linearGradient id="paint2_linear_1_965" x1="291.74" y1="10.2464" x2="312.009" y2="10.2746" gradientUnits="userSpaceOnUse">
<stop stop-color="#D81F28"/>
<stop offset="1" stop-color="#E0005F"/>
</linearGradient>
<linearGradient id="paint3_linear_1_965" x1="315.74" y1="10.2464" x2="336.009" y2="10.2746" gradientUnits="userSpaceOnUse">
<stop stop-color="#D81F28"/>
<stop offset="1" stop-color="#E0005F"/>
</linearGradient>
<linearGradient id="paint4_linear_1_965" x1="339.74" y1="10.2464" x2="360.009" y2="10.2746" gradientUnits="userSpaceOnUse">
<stop stop-color="#D81F28"/>
<stop offset="1" stop-color="#E0005F"/>
</linearGradient>
</defs>
</svg>
