<svg width="42" height="51" viewBox="0 0 42 51" fill="none" xmlns="http://www.w3.org/2000/svg">
<path d="M28.0859 33.6647L32.2526 37.8314L40.5859 29.498" stroke="white" stroke-width="2" stroke-linecap="round" stroke-linejoin="round"/>
<path d="M38.5 21.1643V16.9977C38.4992 16.267 38.3064 15.5494 37.9407 14.9168C37.575 14.2842 37.0495 13.7589 36.4167 13.3935L21.8333 5.06018C21.1999 4.69448 20.4814 4.50195 19.75 4.50195C19.0186 4.50195 18.3001 4.69448 17.6667 5.06018L3.08333 13.3935C2.45055 13.7589 1.92496 14.2842 1.55929 14.9168C1.19363 15.5494 1.00075 16.267 1 16.9977V33.6643C1.00075 34.395 1.19363 35.1127 1.55929 35.7453C1.92496 36.3779 2.45055 36.9032 3.08333 37.2685L17.6667 45.6018C18.3001 45.9675 19.0186 46.1601 19.75 46.1601C20.4814 46.1601 21.1999 45.9675 21.8333 45.6018L26 43.2268" stroke="white" stroke-width="2" stroke-linecap="round" stroke-linejoin="round"/>
<path d="M10.375 9.22656L29.125 19.9557" stroke="white" stroke-width="2" stroke-linecap="round" stroke-linejoin="round"/>
<path d="M1.60156 14.9141L19.7474 25.3307L37.8932 14.9141" stroke="white" stroke-width="2" stroke-linecap="round" stroke-linejoin="round"/>
<path d="M19.75 46.1654V25.332" stroke="white" stroke-width="2" stroke-linecap="round" stroke-linejoin="round"/>
</svg>
