<svg width="50" height="51" viewBox="0 0 50 51" fill="none" xmlns="http://www.w3.org/2000/svg">
<path d="M16.4557 42.0014C20.4319 44.0411 25.0059 44.5936 29.3534 43.5593C33.7009 42.525 37.536 39.9719 40.1677 36.3601C42.7994 32.7483 44.0545 28.3154 43.7069 23.8601C43.3594 19.4048 41.4319 15.2201 38.272 12.0601C35.112 8.90018 30.9274 6.97276 26.4721 6.62518C22.0168 6.27761 17.5838 7.53275 13.972 10.1644C10.3602 12.7961 7.80717 16.6312 6.77286 20.9787C5.73855 25.3262 6.29103 29.9002 8.33073 33.8764L4.16406 46.1681L16.4557 42.0014Z" stroke="white" stroke-width="2" stroke-linecap="round" stroke-linejoin="round"/>
<path d="M16.6641 25.334H16.6849" stroke="white" stroke-width="4" stroke-linecap="round" stroke-linejoin="round"/>
<path d="M25 25.334H25.0208" stroke="white" stroke-width="4" stroke-linecap="round" stroke-linejoin="round"/>
<path d="M33.3359 25.334H33.3568" stroke="white" stroke-width="4" stroke-linecap="round" stroke-linejoin="round"/>
</svg>
