<svg width="22" height="22" viewBox="0 0 22 22" fill="none" xmlns="http://www.w3.org/2000/svg">
<path d="M9.16667 11C9.16667 11.4862 9.35982 11.9525 9.70364 12.2964C10.0475 12.6402 10.5138 12.8333 11 12.8333C11.4862 12.8333 11.9525 12.6402 12.2964 12.2964C12.6402 11.9525 12.8333 11.4862 12.8333 11C12.8333 10.5138 12.6402 10.0475 12.2964 9.70364C11.9525 9.35982 11.4862 9.16667 11 9.16667C10.5138 9.16667 10.0475 9.35982 9.70364 9.70364C9.35982 10.0475 9.16667 10.5138 9.16667 11Z" stroke="#192236" stroke-width="1.5" stroke-linecap="round" stroke-linejoin="round"/>
<path d="M19.25 11C17.05 14.6667 14.3 16.5 11 16.5C7.7 16.5 4.95 14.6667 2.75 11C4.95 7.33333 7.7 5.5 11 5.5C14.3 5.5 17.05 7.33333 19.25 11Z" stroke="#192236" stroke-width="1.5" stroke-linecap="round" stroke-linejoin="round"/>
</svg>
