<svg width="479" height="379" viewBox="0 0 479 379" fill="none" xmlns="http://www.w3.org/2000/svg">
<path d="M201.102 358.565H0.501953L0.501953 1.26563L201.102 1.26562L201.102 358.565Z" fill="white" stroke="#1D1D1D"/>
<path d="M201.102 236.966H0.501953L0.501953 1.16602L201.102 1.16602L201.102 236.966Z" stroke="#1D1D1D"/>
<path d="M67.1134 28.7656V19.4706H69.7654L71.0784 24.1376C71.1738 24.4843 71.2691 24.87 71.3644 25.2946C71.4684 25.7106 71.5464 26.04 71.5984 26.2826L71.6634 26.6466H71.6894C71.8541 25.754 72.0448 24.9176 72.2614 24.1376L73.5744 19.4706H76.2654V28.7656H74.5104V23.4356L74.5884 21.5116H74.5624C74.4238 22.2396 74.2894 22.829 74.1594 23.2796L72.5604 28.7656H70.7534L69.1934 23.2796L68.7904 21.5116H68.7644C68.8164 22.2916 68.8424 22.933 68.8424 23.4356V28.7656H67.1134ZM81.7573 28.7656C81.6707 28.653 81.6013 28.406 81.5493 28.0246H81.5233C81.3327 28.3106 81.09 28.5316 80.7953 28.6876C80.5007 28.8436 80.089 28.9216 79.5603 28.9216C78.8583 28.9216 78.295 28.744 77.8703 28.3886C77.4457 28.0333 77.2333 27.5306 77.2333 26.8806C77.2333 26.2046 77.4673 25.7106 77.9353 25.3986C78.4033 25.078 79.062 24.857 79.9113 24.7356C80.5353 24.649 80.96 24.5623 81.1853 24.4756C81.4107 24.3803 81.5233 24.2156 81.5233 23.9816C81.5233 23.739 81.428 23.5483 81.2373 23.4096C81.0467 23.2623 80.7693 23.1886 80.4053 23.1886C79.5993 23.1886 79.1703 23.5006 79.1183 24.1246H77.5453C77.5713 23.492 77.827 22.9676 78.3123 22.5516C78.7977 22.1356 79.4997 21.9276 80.4183 21.9276C82.2903 21.9276 83.2263 22.7466 83.2263 24.3846V27.7776C83.2263 28.2803 83.3043 28.588 83.4603 28.7006V28.7656H81.7573ZM79.9893 27.6866C80.4747 27.6866 80.856 27.561 81.1333 27.3096C81.4193 27.0583 81.5623 26.7593 81.5623 26.4126V25.4116C81.3717 25.5243 80.96 25.6543 80.3273 25.8016C79.8247 25.9143 79.4693 26.0443 79.2613 26.1916C79.0533 26.3303 78.9493 26.547 78.9493 26.8416C78.9493 27.405 79.296 27.6866 79.9893 27.6866ZM86.0793 22.0966V23.0066H86.1183C86.5777 22.2786 87.2363 21.9146 88.0943 21.9146C88.779 21.9146 89.3337 22.1486 89.7583 22.6166C90.183 23.076 90.3953 23.674 90.3953 24.4106V28.7656H88.6273V24.6706C88.6273 24.3066 88.5233 24.012 88.3153 23.7866C88.116 23.5613 87.8343 23.4486 87.4703 23.4486C87.0803 23.4486 86.7553 23.5916 86.4953 23.8776C86.244 24.1636 86.1183 24.532 86.1183 24.9826V28.7656H84.3503V22.0966H86.0793ZM94.6181 28.9606C93.5434 28.9606 92.6984 28.6313 92.0831 27.9726C91.4678 27.3053 91.1601 26.456 91.1601 25.4246C91.1601 24.428 91.4678 23.596 92.0831 22.9286C92.6984 22.2526 93.4871 21.9146 94.4491 21.9146C95.4978 21.9146 96.3081 22.2786 96.8801 23.0066C97.4521 23.7346 97.7381 24.7096 97.7381 25.9316H92.9021C92.9714 26.4603 93.1491 26.872 93.4351 27.1666C93.7211 27.4526 94.1111 27.5956 94.6051 27.5956C95.2551 27.5956 95.6841 27.3226 95.8921 26.7766H97.6341C97.5041 27.4006 97.1748 27.9206 96.6461 28.3366C96.1174 28.7526 95.4414 28.9606 94.6181 28.9606ZM94.4751 23.2796C93.6171 23.2796 93.1014 23.7563 92.9281 24.7096H95.8921C95.8661 24.285 95.7231 23.9426 95.4631 23.6826C95.2031 23.414 94.8738 23.2796 94.4751 23.2796ZM102.95 28.7656L101.078 25.7236L100.311 26.5166V28.7656H98.5564V19.4706H100.311V24.6186L102.677 22.0966H104.796L102.339 24.6316L105.095 28.7656H102.95ZM105.315 21.0566V19.4706H112.79V21.0566H109.995V28.7656H108.11V21.0566H105.315ZM115.235 28.9606C114.161 28.9606 113.316 28.6313 112.7 27.9726C112.085 27.3053 111.777 26.456 111.777 25.4246C111.777 24.428 112.085 23.596 112.7 22.9286C113.316 22.2526 114.104 21.9146 115.066 21.9146C116.115 21.9146 116.925 22.2786 117.497 23.0066C118.069 23.7346 118.355 24.7096 118.355 25.9316H113.519C113.589 26.4603 113.766 26.872 114.052 27.1666C114.338 27.4526 114.728 27.5956 115.222 27.5956C115.872 27.5956 116.301 27.3226 116.509 26.7766H118.251C118.121 27.4006 117.792 27.9206 117.263 28.3366C116.735 28.7526 116.059 28.9606 115.235 28.9606ZM115.092 23.2796C114.234 23.2796 113.719 23.7563 113.545 24.7096H116.509C116.483 24.285 116.34 23.9426 116.08 23.6826C115.82 23.414 115.491 23.2796 115.092 23.2796ZM122.268 28.9606C121.236 28.9606 120.409 28.627 119.785 27.9596C119.161 27.2923 118.849 26.4516 118.849 25.4376C118.849 24.4236 119.152 23.583 119.759 22.9156C120.374 22.2483 121.18 21.9146 122.177 21.9146C123.017 21.9146 123.702 22.1356 124.231 22.5776C124.759 23.0196 125.084 23.6133 125.206 24.3586H123.477C123.416 24.0553 123.277 23.8083 123.061 23.6176C122.844 23.427 122.575 23.3316 122.255 23.3316C121.735 23.3316 121.336 23.518 121.059 23.8906C120.781 24.2633 120.643 24.779 120.643 25.4376C120.643 26.0876 120.777 26.6033 121.046 26.9846C121.314 27.3573 121.709 27.5436 122.229 27.5436C123 27.5436 123.446 27.1666 123.568 26.4126H125.271C125.21 27.1493 124.911 27.7603 124.374 28.2456C123.836 28.7223 123.134 28.9606 122.268 28.9606ZM127.81 19.4706V22.9676H127.849C128.1 22.6036 128.373 22.3393 128.668 22.1746C128.971 22.0013 129.344 21.9146 129.786 21.9146C130.47 21.9146 131.025 22.1486 131.45 22.6166C131.874 23.076 132.087 23.674 132.087 24.4106V28.7656H130.319V24.6706C130.319 24.3066 130.215 24.012 130.007 23.7866C129.807 23.5613 129.526 23.4486 129.162 23.4486C128.772 23.4486 128.447 23.5916 128.187 23.8776C127.935 24.1636 127.81 24.532 127.81 24.9826V28.7656H126.042V19.4706H127.81Z" fill="#D92027"/>
<path d="M13.7969 28.0645H25.2969" stroke="#1D1D1D" stroke-miterlimit="10"/>
<path d="M13.7969 24.4648H25.2969" stroke="#1D1D1D" stroke-miterlimit="10"/>
<path d="M13.7969 20.9648H25.2969" stroke="#1D1D1D" stroke-miterlimit="10"/>
<mask id="mask0_4620_6039" style="mask-type:luminance" maskUnits="userSpaceOnUse" x="0" y="38" width="202" height="200">
<path d="M200.898 236.6H0.898438V38.5996L200.898 38.5996V236.6Z" fill="white" stroke="white"/>
</mask>
<g mask="url(#mask0_4620_6039)">
<path d="M-22.002 69.2656C10.0857 69.2656 36.0984 95.2777 36.0986 127.365C36.0986 159.453 10.0858 185.466 -22.002 185.466C-54.0895 185.466 -80.1016 159.453 -80.1016 127.365C-80.1013 95.2778 -54.0894 69.2658 -22.002 69.2656Z" fill="white" stroke="#1D1D1D"/>
<path d="M-21.9004 90.3652C-11.8536 90.3652 -3.59961 99.3574 -3.59961 112.865C-3.59961 121.55 -7.15897 130.415 -12.3506 135.509L-12.5303 135.686L-12.4951 135.936L-12.0947 138.736C-11.7653 141.241 -9.9147 143.3 -7.42578 143.949V143.948L3.87207 146.948L3.87598 146.949C8.00382 148.005 11.2728 150.977 12.8213 155.016L16.6426 170.59C6.38083 179.772 -7.07492 185.339 -21.9004 185.364C-36.7255 185.339 -50.1818 179.772 -60.4434 170.591L-56.6211 155.011C-55.1722 151.077 -51.8062 148.006 -47.6758 146.949L-47.6719 146.948L-36.375 143.948L-36.374 143.949C-33.8851 143.3 -32.0345 141.241 -31.7051 138.736L-31.3047 135.936L-31.2686 135.683L-31.4531 135.505C-34.1476 132.91 -36.3123 130.64 -37.8203 127.345C-39.3293 124.047 -40.2002 119.676 -40.2002 112.865C-40.2002 99.3576 -31.947 90.3655 -21.9004 90.3652Z" stroke="#1D1D1D"/>
<path opacity="0.1" d="M15.9969 82.7656C5.59687 94.6656 -0.703125 110.266 -0.703125 127.366C-0.703125 144.466 5.59687 159.966 15.9969 171.966C28.5969 161.266 36.5969 145.266 36.5969 127.366C36.5969 109.466 28.5969 93.5656 15.9969 82.7656Z" fill="black"/>
</g>
<path d="M65.8031 186.167C98.167 186.167 124.403 159.931 124.403 127.567C124.403 95.2029 98.167 68.9668 65.8031 68.9668C33.4392 68.9668 7.20312 95.2029 7.20312 127.567C7.20312 159.931 33.4392 186.167 65.8031 186.167Z" fill="white"/>
<path d="M65.8027 69.4668C97.8903 69.4668 123.903 95.4788 123.903 127.566C123.903 159.654 97.8905 185.667 65.8027 185.667C33.7152 185.667 7.70312 159.654 7.70312 127.566C7.70334 95.479 33.7153 69.467 65.8027 69.4668Z" stroke="#1D1D1D" stroke-opacity="0.1"/>
<path d="M65.8047 186.066C80.9047 186.066 94.6047 180.366 105.005 170.966L101.105 155.066C99.5047 150.866 96.1047 147.766 91.8047 146.666L80.5047 143.666C78.2047 143.066 76.5047 141.166 76.2047 138.866L75.8047 136.066C81.1047 130.866 84.7047 121.866 84.7047 113.066C84.7047 99.3664 76.3047 90.0664 65.9047 90.0664C55.5047 90.0664 47.1047 99.3664 47.1047 113.066C47.1047 126.766 50.6047 130.866 56.0047 136.066L55.6047 138.866C55.3047 141.166 53.6047 143.066 51.3047 143.666L40.0047 146.666C35.7047 147.766 32.2047 150.966 30.7047 155.066L26.8047 170.966C37.2047 180.366 50.9047 186.066 66.0047 186.066H65.8047Z" fill="#1D1D1D" fill-opacity="0.3"/>
<path opacity="0.1" d="M103.802 82.9668C93.4016 94.8668 87.1016 110.467 87.1016 127.567C87.1016 144.667 93.4016 160.167 103.802 172.167C116.402 161.467 124.402 145.467 124.402 127.567C124.402 109.667 116.402 93.7668 103.802 82.9668Z" fill="black"/>
<path d="M65.8027 69.4668C97.8903 69.4668 123.903 95.4788 123.903 127.566C123.903 159.654 97.8905 185.667 65.8027 185.667C33.7152 185.667 7.70312 159.654 7.70312 127.566C7.70334 95.479 33.7153 69.467 65.8027 69.4668Z" fill="white" stroke="#1D1D1D"/>
<path d="M65.9043 90.5664C75.9511 90.5664 84.2051 99.5586 84.2051 113.066C84.2051 121.751 80.6457 130.616 75.4541 135.71L75.2744 135.887L75.3096 136.137L75.71 138.938C76.0394 141.443 77.89 143.501 80.3789 144.15V144.149L91.6768 147.149L91.6807 147.15C95.8085 148.206 99.0775 151.178 100.626 155.217L104.447 170.791C94.1855 179.973 80.7298 185.541 65.9043 185.565C51.0792 185.54 37.6229 179.974 27.3613 170.792L31.1836 155.212C32.6325 151.279 35.9985 148.207 40.1289 147.15L40.1328 147.149L51.4297 144.149L51.4307 144.15C53.9196 143.501 55.7702 141.443 56.0996 138.938L56.5 136.137L56.5361 135.884L56.3516 135.706C53.657 133.111 51.4924 130.842 49.9844 127.546C48.4754 124.248 47.6045 119.877 47.6045 113.066C47.6045 99.5588 55.8577 90.5666 65.9043 90.5664Z" stroke="#1D1D1D"/>
<path opacity="0.1" d="M103.802 82.9668C93.4016 94.8668 87.1016 110.467 87.1016 127.567C87.1016 144.667 93.4016 160.167 103.802 172.167C116.402 161.467 124.402 145.467 124.402 127.567C124.402 109.667 116.402 93.7668 103.802 82.9668Z" fill="black"/>
<path d="M152.803 186.167C185.167 186.167 211.403 159.931 211.403 127.567C211.403 95.2029 185.167 68.9668 152.803 68.9668C120.439 68.9668 94.2031 95.2029 94.2031 127.567C94.2031 159.931 120.439 186.167 152.803 186.167Z" fill="white"/>
<path d="M152.803 69.4668C184.89 69.4668 210.903 95.4788 210.903 127.566C210.903 159.654 184.89 185.667 152.803 185.667C120.715 185.667 94.7031 159.654 94.7031 127.566C94.7033 95.479 120.715 69.467 152.803 69.4668Z" stroke="#1D1D1D" stroke-opacity="0.1"/>
<path d="M152.805 186.066C167.905 186.066 181.605 180.366 192.005 170.966L188.105 155.066C186.505 150.866 183.105 147.766 178.805 146.666L167.505 143.666C165.205 143.066 163.505 141.166 163.205 138.866L162.805 136.066C168.105 130.866 171.705 121.866 171.705 113.066C171.705 99.3664 163.305 90.0664 152.905 90.0664C142.505 90.0664 134.105 99.3664 134.105 113.066C134.105 126.766 137.605 130.866 143.005 136.066L142.605 138.866C142.305 141.166 140.605 143.066 138.305 143.666L127.005 146.666C122.705 147.766 119.205 150.966 117.705 155.066L113.805 170.966C124.205 180.366 137.905 186.066 153.005 186.066H152.805Z" fill="#1D1D1D" fill-opacity="0.3"/>
<path opacity="0.1" d="M190.802 82.9668C180.402 94.8668 174.102 110.467 174.102 127.567C174.102 144.667 180.402 160.167 190.802 172.167C203.402 161.467 211.402 145.467 211.402 127.567C211.402 109.667 203.402 93.7668 190.802 82.9668Z" fill="black"/>
<path d="M152.803 69.4668C184.89 69.4668 210.903 95.4788 210.903 127.566C210.903 159.654 184.89 185.667 152.803 185.667C120.715 185.667 94.7031 159.654 94.7031 127.566C94.7033 95.479 120.715 69.467 152.803 69.4668Z" fill="white" stroke="#1D1D1D"/>
<path d="M152.904 90.5664C162.951 90.5664 171.205 99.5586 171.205 113.066C171.205 121.751 167.646 130.616 162.454 135.71L162.274 135.887L162.31 136.137L162.71 138.938C163.039 141.443 164.89 143.501 167.379 144.15V144.149L178.677 147.149L178.681 147.15C182.809 148.206 186.078 151.178 187.626 155.217L191.447 170.791C181.186 179.973 167.73 185.541 152.904 185.565C138.079 185.54 124.623 179.974 114.361 170.792L118.184 155.212C119.633 151.279 122.999 148.207 127.129 147.15L127.133 147.149L138.43 144.149L138.431 144.15C140.92 143.501 142.77 141.443 143.1 138.938L143.5 136.137L143.536 135.884L143.352 135.706C140.657 133.111 138.492 130.842 136.984 127.546C135.475 124.248 134.604 119.877 134.604 113.066C134.604 99.5588 142.858 90.5666 152.904 90.5664Z" stroke="#1D1D1D"/>
<path opacity="0.1" d="M190.802 82.9668C180.402 94.8668 174.102 110.467 174.102 127.567C174.102 144.667 180.402 160.167 190.802 172.167C203.402 161.467 211.402 145.467 211.402 127.567C211.402 109.667 203.402 93.7668 190.802 82.9668Z" fill="black"/>
<rect width="72" height="29" transform="translate(25.8516 256.967)" fill="#1D1D1D"/>
<rect x="25.8516" y="256.967" width="72" height="20" fill="#1D1D1D"/>
<path d="M46.0208 268L39.6042 274.417L36.6875 271.5" stroke="white" stroke-width="2" stroke-linecap="round" stroke-linejoin="round"/>
<path d="M48.3406 275L51.1676 267.135H53.1696L56.0076 275H53.9616L53.4996 273.581H50.7496L50.2986 275H48.3406ZM51.2006 272.184H53.0486L52.4546 270.281L52.1466 269.17H52.1246C51.9999 269.639 51.8936 270.01 51.8056 270.281L51.2006 272.184ZM59.3502 275.176C58.4555 275.176 57.7332 274.894 57.1832 274.329C56.6332 273.764 56.3582 273.053 56.3582 272.195C56.3582 271.337 56.6295 270.626 57.1722 270.061C57.7149 269.496 58.4262 269.214 59.3062 269.214C60.0542 269.214 60.6665 269.412 61.1432 269.808C61.6199 270.204 61.8985 270.725 61.9792 271.37H60.2522C60.1275 270.813 59.8195 270.534 59.3282 270.534C58.9469 270.534 58.6572 270.681 58.4592 270.974C58.2685 271.267 58.1732 271.674 58.1732 272.195C58.1732 272.708 58.2722 273.112 58.4702 273.405C58.6682 273.691 58.9542 273.834 59.3282 273.834C59.9002 273.834 60.2265 273.511 60.3072 272.866H62.0232C62.0012 273.533 61.7445 274.087 61.2532 274.527C60.7692 274.96 60.1349 275.176 59.3502 275.176ZM65.7736 275.176C64.8789 275.176 64.1566 274.894 63.6066 274.329C63.0566 273.764 62.7816 273.053 62.7816 272.195C62.7816 271.337 63.0529 270.626 63.5956 270.061C64.1383 269.496 64.8496 269.214 65.7296 269.214C66.4776 269.214 67.0899 269.412 67.5666 269.808C68.0433 270.204 68.3219 270.725 68.4026 271.37H66.6756C66.5509 270.813 66.2429 270.534 65.7516 270.534C65.3703 270.534 65.0806 270.681 64.8826 270.974C64.6919 271.267 64.5966 271.674 64.5966 272.195C64.5966 272.708 64.6956 273.112 64.8936 273.405C65.0916 273.691 65.3776 273.834 65.7516 273.834C66.3236 273.834 66.6499 273.511 66.7306 272.866H68.4466C68.4246 273.533 68.1679 274.087 67.6766 274.527C67.1926 274.96 66.5583 275.176 65.7736 275.176ZM72.208 275.165C71.2987 275.165 70.569 274.886 70.019 274.329C69.4763 273.764 69.205 273.046 69.205 272.173C69.205 271.322 69.4727 270.615 70.008 270.05C70.5507 269.485 71.2473 269.203 72.098 269.203C72.868 269.203 73.5097 269.438 74.023 269.907C74.6977 270.523 75.0277 271.436 75.013 272.646H70.965C71.0237 273.035 71.1593 273.339 71.372 273.559C71.5847 273.772 71.8707 273.878 72.23 273.878C72.692 273.878 73.0037 273.691 73.165 273.317H74.914C74.782 273.86 74.4667 274.303 73.968 274.648C73.4767 274.993 72.89 275.165 72.208 275.165ZM70.976 271.579H73.198C73.1687 271.242 73.055 270.974 72.857 270.776C72.6663 270.578 72.4243 270.479 72.131 270.479C71.493 270.479 71.108 270.846 70.976 271.579ZM76.0533 276.859V269.368H77.7693V270.05H77.8023C78.2349 269.485 78.8033 269.203 79.5073 269.203C80.2406 269.203 80.8236 269.485 81.2563 270.05C81.6963 270.607 81.9163 271.319 81.9163 272.184C81.9163 273.093 81.6926 273.819 81.2453 274.362C80.7979 274.905 80.2039 275.176 79.4633 275.176C78.7739 275.176 78.2423 274.923 77.8683 274.417H77.8463V276.859H76.0533ZM79.0013 273.79C79.3459 273.79 79.6136 273.654 79.8043 273.383C80.0023 273.104 80.1013 272.727 80.1013 272.25C80.1013 271.751 80.0059 271.359 79.8153 271.073C79.6246 270.787 79.3423 270.644 78.9683 270.644C78.5943 270.644 78.3046 270.794 78.0993 271.095C77.8939 271.388 77.7913 271.773 77.7913 272.25C77.7913 272.712 77.8976 273.086 78.1103 273.372C78.3229 273.651 78.6199 273.79 79.0013 273.79ZM85.0319 275.066C84.4599 275.066 84.0163 274.952 83.7009 274.725C83.3929 274.49 83.2389 274.087 83.2389 273.515V270.49H82.4909V269.368H83.2389V267.586H84.9879V269.368H86.0109V270.49H84.9879V273.13C84.9879 273.335 85.0393 273.478 85.1419 273.559C85.2519 273.64 85.4096 273.68 85.6149 273.68C85.6736 273.68 85.7506 273.68 85.8459 273.68C85.9413 273.673 85.9963 273.669 86.0109 273.669V274.978C85.8056 275.037 85.4793 275.066 85.0319 275.066Z" fill="white"/>
<rect width="72" height="29" transform="translate(105.852 256.967)" fill="#D92027"/>
<rect x="105.852" y="256.967" width="72" height="20" fill="#D92027"/>
<path d="M128.648 268L121.648 275" stroke="white" stroke-width="2" stroke-linecap="round" stroke-linejoin="round"/>
<path d="M121.648 268L128.648 275" stroke="white" stroke-width="2" stroke-linecap="round" stroke-linejoin="round"/>
<path d="M132.687 275V267.135H136.449C137.256 267.135 137.916 267.337 138.429 267.74C138.943 268.136 139.199 268.69 139.199 269.401C139.199 270.354 138.745 270.989 137.835 271.304V271.337C138.495 271.557 138.877 272.037 138.979 272.778C139.023 273.035 139.053 273.354 139.067 273.735C139.089 274.109 139.115 274.391 139.144 274.582C139.174 274.765 139.229 274.872 139.309 274.901V275H137.417C137.359 274.963 137.311 274.857 137.274 274.681C137.245 274.505 137.219 274.256 137.197 273.933C137.175 273.61 137.15 273.357 137.12 273.174C137.018 272.426 136.581 272.052 135.811 272.052H134.634V275H132.687ZM134.634 270.611H136.097C136.479 270.611 136.768 270.527 136.966 270.358C137.164 270.189 137.263 269.955 137.263 269.654C137.263 269.361 137.168 269.126 136.977 268.95C136.787 268.767 136.508 268.675 136.141 268.675H134.634V270.611ZM143.094 275.165C142.184 275.165 141.455 274.886 140.905 274.329C140.362 273.764 140.091 273.046 140.091 272.173C140.091 271.322 140.358 270.615 140.894 270.05C141.436 269.485 142.133 269.203 142.984 269.203C143.754 269.203 144.395 269.438 144.909 269.907C145.583 270.523 145.913 271.436 145.899 272.646H141.851C141.909 273.035 142.045 273.339 142.258 273.559C142.47 273.772 142.756 273.878 143.116 273.878C143.578 273.878 143.889 273.691 144.051 273.317H145.8C145.668 273.86 145.352 274.303 144.854 274.648C144.362 274.993 143.776 275.165 143.094 275.165ZM141.862 271.579H144.084C144.054 271.242 143.941 270.974 143.743 270.776C143.552 270.578 143.31 270.479 143.017 270.479C142.379 270.479 141.994 270.846 141.862 271.579ZM147.005 276.892C146.624 276.892 146.286 276.863 145.993 276.804V275.561C146.191 275.561 146.334 275.557 146.422 275.55C146.503 275.543 146.591 275.521 146.686 275.484C146.789 275.447 146.855 275.385 146.884 275.297C146.921 275.216 146.939 275.103 146.939 274.956V269.368H148.732V275.044C148.732 275.682 148.589 276.151 148.303 276.452C148.01 276.745 147.577 276.892 147.005 276.892ZM146.939 268.587V267.135H148.732V268.587H146.939ZM152.782 275.165C151.873 275.165 151.143 274.886 150.593 274.329C150.051 273.764 149.779 273.046 149.779 272.173C149.779 271.322 150.047 270.615 150.582 270.05C151.125 269.485 151.822 269.203 152.672 269.203C153.442 269.203 154.084 269.438 154.597 269.907C155.272 270.523 155.602 271.436 155.587 272.646H151.539C151.598 273.035 151.734 273.339 151.946 273.559C152.159 273.772 152.445 273.878 152.804 273.878C153.266 273.878 153.578 273.691 153.739 273.317H155.488C155.356 273.86 155.041 274.303 154.542 274.648C154.051 274.993 153.464 275.165 152.782 275.165ZM151.55 271.579H153.772C153.743 271.242 153.629 270.974 153.431 270.776C153.241 270.578 152.999 270.479 152.705 270.479C152.067 270.479 151.682 270.846 151.55 271.579ZM159.366 275.176C158.472 275.176 157.749 274.894 157.199 274.329C156.649 273.764 156.374 273.053 156.374 272.195C156.374 271.337 156.646 270.626 157.188 270.061C157.731 269.496 158.442 269.214 159.322 269.214C160.07 269.214 160.683 269.412 161.159 269.808C161.636 270.204 161.915 270.725 161.995 271.37H160.268C160.144 270.813 159.836 270.534 159.344 270.534C158.963 270.534 158.673 270.681 158.475 270.974C158.285 271.267 158.189 271.674 158.189 272.195C158.189 272.708 158.288 273.112 158.486 273.405C158.684 273.691 158.97 273.834 159.344 273.834C159.916 273.834 160.243 273.511 160.323 272.866H162.039C162.017 273.533 161.761 274.087 161.269 274.527C160.785 274.96 160.151 275.176 159.366 275.176ZM165.284 275.066C164.712 275.066 164.268 274.952 163.953 274.725C163.645 274.49 163.491 274.087 163.491 273.515V270.49H162.743V269.368H163.491V267.586H165.24V269.368H166.263V270.49H165.24V273.13C165.24 273.335 165.291 273.478 165.394 273.559C165.504 273.64 165.662 273.68 165.867 273.68C165.926 273.68 166.003 273.68 166.098 273.68C166.193 273.673 166.248 273.669 166.263 273.669V274.978C166.058 275.037 165.731 275.066 165.284 275.066Z" fill="white"/>
<path d="M25.8984 321.467H117.298" stroke="#1D1D1D" stroke-linecap="round" stroke-linejoin="round"/>
<path d="M25.8984 309.467H117.298" stroke="#1D1D1D" stroke-linecap="round" stroke-linejoin="round"/>
<path d="M25.8984 333.166H117.298" stroke="#1D1D1D" stroke-linecap="round" stroke-linejoin="round"/>
<path d="M173.8 316.766L161.2 327.566L148.5 316.766" stroke="#1D1D1D" stroke-linecap="round" stroke-linejoin="round"/>
<path d="M239.896 69.4668C271.984 69.4668 297.997 95.4788 297.997 127.566C297.997 159.654 271.984 185.667 239.896 185.667C207.809 185.667 181.797 159.654 181.797 127.566C181.797 95.479 207.809 69.467 239.896 69.4668Z" fill="white" stroke="#1D1D1D"/>
<path d="M239.998 90.5664C250.045 90.5664 258.299 99.5586 258.299 113.066C258.299 121.751 254.739 130.616 249.548 135.71L249.367 135.887L249.403 136.137L249.804 138.938C250.133 141.443 251.984 143.501 254.473 144.15V144.149L265.771 147.149L265.774 147.15C269.902 148.206 273.171 151.178 274.72 155.217L278.541 170.791C268.279 179.973 254.824 185.541 239.998 185.565C225.173 185.54 211.717 179.974 201.455 170.792L205.277 155.212C206.726 151.279 210.092 148.207 214.223 147.15L214.227 147.149L225.523 144.149L225.524 144.15C228.013 143.501 229.864 141.443 230.193 138.938L230.594 136.137L230.63 135.884L230.445 135.706C227.751 133.111 225.586 130.842 224.078 127.546C222.569 124.248 221.698 119.877 221.698 113.066C221.698 99.5588 229.951 90.5666 239.998 90.5664Z" stroke="#1D1D1D"/>
<path d="M297.697 143.066C297.697 143.066 295.397 138.766 294.897 134.666C294.397 130.566 295.297 126.966 295.297 126.966C295.297 126.966 289.897 122.266 290.897 120.366C291.897 118.466 298.897 125.366 298.897 125.366L301.497 133.066L297.697 142.966V143.066Z" fill="#FFD8B8"/>
<path d="M350.102 353.266V360.866C350.102 360.866 353.502 370.466 352.602 372.866C351.702 375.266 318.702 380.166 316.502 376.966C313.102 372.166 335.302 365.566 337.402 359.866L338.002 353.166H350.102V353.266Z" fill="#E6E6E6"/>
<path d="M396.305 353.266V360.866C396.305 360.866 399.705 370.466 398.805 372.866C397.905 375.266 364.905 380.166 362.705 376.966C359.305 372.166 381.505 365.566 383.605 359.866L384.205 353.166H396.305V353.266Z" fill="#E6E6E6"/>
<path d="M338.003 353.266L337.403 359.966C337.303 360.366 337.003 360.766 336.703 361.166C340.203 362.766 346.103 364.766 350.803 362.866C350.403 361.666 350.103 360.866 350.103 360.866V353.266H338.003Z" fill="#F08873"/>
<path d="M384.2 353.266L383.6 359.966C383.3 360.766 382.5 361.666 381.5 362.566C384.8 364.566 390.9 367.166 397.1 363.466C396.6 361.966 396.3 360.966 396.3 360.966V353.366H384.2V353.266Z" fill="#F08873"/>
<path d="M297.303 118.065C301.503 122.565 300.603 131.565 301.603 133.365C312.803 153.865 322.703 164.165 322.703 164.165C328.003 154.665 328.903 149.365 328.903 149.365L344.403 150.865C344.403 150.865 336.303 183.665 325.403 183.465C314.503 183.265 302.003 163.365 296.203 144.165L297.403 117.965L297.303 118.065Z" fill="#FFD8B8"/>
<path d="M327.405 154.065C329.705 155.665 334.505 158.465 341.805 159.165C343.405 154.465 344.205 150.865 344.205 150.865L328.705 149.365C328.705 149.365 328.405 150.965 327.305 154.065H327.405Z" fill="#FFC494"/>
<path d="M342.8 208.565L399.6 206.365L398.2 355.865C398.2 355.865 390.5 359.765 380.2 356.765C380.2 356.765 367.3 264.765 365.6 243.465C365.6 243.465 353.1 278.465 352.9 304.165C352.7 329.865 352.9 356.465 352.9 356.465C352.9 356.465 342.8 358.565 336.4 356.465C336.4 356.465 328.7 307.765 326.1 289.965C323.5 272.165 342.8 208.665 342.8 208.665V208.565Z" fill="#1D1D1D"/>
<path opacity="0.1" d="M339.703 219.165C347.003 223.665 369.003 235.365 399.303 234.765L399.603 206.365L342.803 208.565C342.803 208.565 341.503 212.665 339.703 219.165Z" fill="black"/>
<path d="M332.203 117.166C328.103 122.366 328.303 145.366 326.703 151.366C326.703 151.366 330.803 155.966 341.203 155.366C341.203 155.366 339.003 134.066 337.103 126.866C335.203 119.666 332.203 117.166 332.203 117.166Z" fill="#C93D22"/>
<path opacity="0.1" d="M344.305 150.866L340.805 150.566C340.005 143.866 338.505 131.966 337.205 126.966C335.305 119.766 332.305 117.266 332.305 117.266L335.505 174.466C340.905 164.866 344.305 150.966 344.305 150.966V150.866Z" fill="black"/>
<path d="M366.903 95.3652C366.903 95.3652 379.603 100.565 387.903 107.165C396.103 113.765 400.603 207.565 400.603 207.565C386.703 210.765 367.603 230.765 340.903 215.265C340.903 215.265 340.403 151.365 332.203 117.165C332.203 117.165 339.403 106.665 352.703 100.465C362.703 95.7652 366.903 95.3652 366.903 95.3652Z" fill="#D92027"/>
<path d="M396.9 154.367C396.9 154.067 396.9 153.667 396.9 153.367C383.1 155.367 359.4 157.767 338 155.667C338 155.967 338 156.367 338 156.667C359.4 158.767 383.1 156.267 396.9 154.367Z" fill="#C22C0F"/>
<path d="M336.5 142.766C336.5 143.066 336.5 143.466 336.6 143.766C347.3 143.866 369.9 143.566 395.3 140.066C395.3 139.766 395.3 139.366 395.2 139.066C369.8 142.666 347.1 142.966 336.5 142.766Z" fill="#C22C0F"/>
<path d="M398 167.967C398 167.667 398 167.267 398 166.967C374.9 172.767 350.5 170.667 339 169.067C339 169.367 339 169.767 339 170.067C350.6 171.567 374.9 173.667 398 167.967Z" fill="#C22C0F"/>
<path d="M399.1 181.766C399.1 181.466 399.1 181.066 399.1 180.766C387.7 183.566 367.4 186.766 340 183.866C340 184.166 340 184.566 340 184.866C347.5 185.666 354.5 185.966 360.9 185.966C377.8 185.966 390.8 183.766 399.1 181.766Z" fill="#C22C0F"/>
<path d="M362.151 148.621C383.395 127.377 417.839 127.377 439.084 148.622C460.328 169.866 460.328 204.31 439.084 225.554C417.839 246.799 383.395 246.799 362.151 225.555C340.906 204.31 340.906 169.866 362.151 148.621Z" fill="white" stroke="#1D1D1D"/>
<path d="M384.8 172.01C385.883 159.507 394.406 151.794 403.761 152.565C413.105 153.336 420.086 162.413 419.003 175.023C418.212 183.215 414.262 191.18 408.985 195.479L408.783 195.645L408.803 195.905L409.003 198.505C409.115 200.828 410.554 202.838 412.712 203.749L412.924 203.834L412.933 203.837L423.232 207.537C426.972 208.88 429.848 211.943 430.911 215.771L433.161 230.643C422.843 238.32 409.836 242.409 396.043 241.284L396.044 241.269C382.18 240.089 369.975 233.736 361.171 224.342L365.965 210.157C367.7 206.613 371.059 204.03 374.985 203.359H374.988L385.788 201.459L385.795 201.458C388.087 201.021 390.042 199.176 390.588 196.883L390.589 196.879L391.188 194.279L391.246 194.031L391.079 193.839C386.583 188.659 384.109 180.2 384.8 172.01Z" stroke="#1D1D1D"/>
<path opacity="0.1" d="M378.102 137.065C381.902 143.865 394.502 166.765 395.502 172.165C396.702 178.465 397.102 227.865 397.102 227.865H404.602C404.602 227.865 409.302 179.565 408.402 169.565C407.802 162.465 398.302 143.365 392.902 132.865C387.702 133.565 382.702 135.065 378.102 137.165V137.065Z" fill="black"/>
<path d="M390.804 146.565C390.804 146.565 398.304 164.165 399.704 170.465C401.104 176.765 399.004 222.565 399.004 222.565C399.004 222.565 389.404 237.865 389.204 239.565C389.004 241.365 392.504 238.865 393.704 239.565C394.904 240.265 393.304 243.565 394.704 244.065C396.104 244.565 403.004 243.665 405.404 240.865C407.704 238.065 409.504 232.765 409.604 225.665C409.604 225.665 416.704 185.765 415.104 168.665C414.204 158.565 405.204 139.865 405.204 139.865L390.904 146.565H390.804Z" fill="#FFD8B8"/>
<path d="M405.105 139.866L390.805 146.566C390.805 146.566 391.405 147.966 392.205 149.966C394.505 149.166 401.105 146.966 407.305 144.766C406.005 141.766 405.005 139.766 405.005 139.766L405.105 139.866Z" fill="#FFC494"/>
<path d="M332.202 55.1649C332.202 55.1649 334.802 82.8649 335.302 87.6649C335.802 92.4649 340.902 94.0649 343.602 93.9649C346.302 93.8649 350.102 104.765 350.002 106.965C350.002 106.965 358.602 109.865 367.102 97.9649L366.002 87.6649C366.002 87.6649 372.702 71.7649 371.302 63.6649C369.902 55.5649 362.902 47.4649 353.002 46.9649C343.002 46.3649 332.102 55.1649 332.102 55.1649H332.202Z" fill="#FFD8B8"/>
<path d="M350.1 106.865C350.1 106.865 358.7 109.765 367.2 97.8646L366.1 87.5646C366.1 87.5646 368.4 82.2646 370 76.1646C366.9 73.4646 363.9 72.3646 363 77.3646C361.2 87.7646 349.4 93.5646 344 93.9646C346.7 94.6646 350.1 104.865 350 106.865H350.1Z" fill="#F7D2B2"/>
<path d="M325.304 52.7655L333.904 46.2655C333.904 46.2655 337.095 42.9347 344.904 42.7655C348.743 42.6823 354.904 42.7651 354.904 42.7651L361.604 43.5655C361.604 43.5655 373.104 44.1655 375.604 55.9655C378.104 67.7655 366.004 87.6655 366.004 87.6655L362.904 77.3655C362.904 77.3655 367.504 76.3655 367.904 71.3655C368.304 66.2655 365.604 64.0655 363.804 64.1655C362.004 64.1655 360.204 66.0655 359.904 70.7655C359.904 70.7655 353.904 64.3655 356.004 55.1655C356.004 55.1655 335.804 57.4655 330.004 57.4655C321.204 57.4655 325.204 52.7655 325.204 52.7655H325.304Z" fill="#3B2F27"/>
<path d="M380.901 102.465C388.501 106.865 393.701 107.165 409.701 139.565C409.701 139.565 401.901 147.365 388.801 150.365C388.801 150.365 368.601 114.165 380.901 102.465Z" fill="#C93D22"/>
<path d="M362.703 376.366C362.703 376.366 383.103 376.366 398.903 370.766" stroke="#D92027" stroke-width="2" stroke-miterlimit="10"/>
<path d="M316.305 376.366C316.305 376.366 338.105 376.466 352.805 370.766" stroke="#D92027" stroke-width="2" stroke-miterlimit="10"/>
<path opacity="0.1" d="M346.802 357.165C350.202 356.865 352.902 356.365 352.902 356.365C352.902 356.365 352.702 329.765 352.902 304.065C353.102 278.365 365.602 243.365 365.602 243.365C365.602 243.365 349.102 274.565 345.102 297.565C341.702 317.365 345.602 348.765 346.802 357.165Z" fill="black"/>
<path d="M379.703 352.966C379.703 352.966 388.203 355.566 398.303 351.566" stroke="#315A66" stroke-miterlimit="10"/>
<path d="M335.906 353.266C335.906 353.266 343.006 354.866 352.806 352.666" stroke="#315A66" stroke-miterlimit="10"/>
<path d="M339.103 69.3652L337.703 77.0652H341.903" stroke="#CF9F78" stroke-miterlimit="10"/>
<path d="M339.5 83.2656C339.5 83.2656 341 84.4656 345.4 83.5656" stroke="#CF9F78" stroke-miterlimit="10"/>
<path d="M344.005 68.9656C344.944 68.9656 345.705 67.8016 345.705 66.3656C345.705 64.9297 344.944 63.7656 344.005 63.7656C343.066 63.7656 342.305 64.9297 342.305 66.3656C342.305 67.8016 343.066 68.9656 344.005 68.9656Z" fill="#3B2F27"/>
<path d="M336.403 68.9656C337.342 68.9656 338.103 67.8016 338.103 66.3656C338.103 64.9297 337.342 63.7656 336.403 63.7656C335.464 63.7656 334.703 64.9297 334.703 66.3656C334.703 67.8016 335.464 68.9656 336.403 68.9656Z" fill="#3B2F27"/>
<path d="M342.305 61.5648L348.305 60.9648" stroke="#CF9F78" stroke-miterlimit="10"/>
<path d="M338.003 61.5648L333.703 60.9648" stroke="#CF9F78" stroke-miterlimit="10"/>
<path d="M60.428 216.944C59.676 217.776 58.676 218.192 57.428 218.192C56.18 218.192 55.176 217.776 54.416 216.944C53.664 216.104 53.288 215.032 53.288 213.728C53.288 212.424 53.664 211.352 54.416 210.512C55.176 209.672 56.18 209.252 57.428 209.252C58.676 209.252 59.676 209.672 60.428 210.512C61.18 211.352 61.556 212.424 61.556 213.728C61.556 215.032 61.18 216.104 60.428 216.944ZM55.676 215.912C56.092 216.48 56.68 216.764 57.44 216.764C58.2 216.764 58.78 216.484 59.18 215.924C59.58 215.356 59.78 214.624 59.78 213.728C59.78 212.832 59.58 212.1 59.18 211.532C58.78 210.964 58.2 210.68 57.44 210.68C56.68 210.68 56.092 210.964 55.676 211.532C55.268 212.1 55.064 212.832 55.064 213.728C55.064 214.616 55.268 215.344 55.676 215.912ZM68.3157 218H66.7437V217.28H66.7077C66.4837 217.584 66.2357 217.808 65.9637 217.952C65.6997 218.096 65.3597 218.168 64.9437 218.168C64.2717 218.168 63.7477 217.968 63.3717 217.568C62.9957 217.168 62.8077 216.628 62.8077 215.948V211.844H64.4277V215.672C64.4277 216.416 64.7677 216.788 65.4477 216.788C65.8237 216.788 66.1237 216.66 66.3477 216.404C66.5717 216.148 66.6837 215.812 66.6837 215.396V211.844H68.3157V218ZM71.4233 211.844V212.828H71.4593C71.6513 212.468 71.8633 212.204 72.0953 212.036C72.3273 211.86 72.6193 211.772 72.9713 211.772C73.1393 211.772 73.2673 211.788 73.3553 211.82V213.248H73.3193C72.7673 213.192 72.3233 213.312 71.9873 213.608C71.6513 213.904 71.4833 214.368 71.4833 215V218H69.8513V211.844H71.4233ZM77.1659 218V209.42H83.4779V210.884H78.9059V212.804H82.9139V214.232H78.9059V216.548H83.5139V218H77.1659ZM84.5116 218L86.7556 214.736L84.7516 211.844H86.6116L87.7036 213.608H87.7276L88.7596 211.844H90.4516L88.5436 214.724L90.7396 218H88.7956L87.6556 215.96H87.6316L86.2996 218H84.5116ZM91.8455 220.016V211.844H93.4175V212.612H93.4535C93.9095 211.988 94.5135 211.676 95.2655 211.676C96.0735 211.676 96.7215 211.976 97.2095 212.576C97.6975 213.176 97.9415 213.96 97.9415 214.928C97.9415 215.92 97.6975 216.712 97.2095 217.304C96.7215 217.888 96.0775 218.18 95.2775 218.18C94.4775 218.18 93.8855 217.888 93.5015 217.304H93.4775V220.016H91.8455ZM94.9295 216.824C95.3455 216.824 95.6735 216.66 95.9135 216.332C96.1615 216.004 96.2855 215.552 96.2855 214.976C96.2855 214.36 96.1695 213.876 95.9375 213.524C95.7055 213.172 95.3495 212.996 94.8695 212.996C94.3815 212.996 94.0215 213.18 93.7895 213.548C93.5575 213.908 93.4415 214.384 93.4415 214.976C93.4415 215.544 93.5695 215.996 93.8255 216.332C94.0815 216.66 94.4495 216.824 94.9295 216.824ZM102.073 218.18C101.081 218.18 100.301 217.876 99.733 217.268C99.165 216.652 98.881 215.868 98.881 214.916C98.881 213.996 99.165 213.228 99.733 212.612C100.301 211.988 101.029 211.676 101.917 211.676C102.885 211.676 103.633 212.012 104.161 212.684C104.689 213.356 104.953 214.256 104.953 215.384H100.489C100.553 215.872 100.717 216.252 100.981 216.524C101.245 216.788 101.605 216.92 102.061 216.92C102.661 216.92 103.057 216.668 103.249 216.164H104.857C104.737 216.74 104.433 217.22 103.945 217.604C103.457 217.988 102.833 218.18 102.073 218.18ZM101.941 212.936C101.149 212.936 100.673 213.376 100.513 214.256H103.249C103.225 213.864 103.093 213.548 102.853 213.308C102.613 213.06 102.309 212.936 101.941 212.936ZM107.76 211.844V212.828H107.796C107.988 212.468 108.2 212.204 108.432 212.036C108.664 211.86 108.956 211.772 109.308 211.772C109.476 211.772 109.604 211.788 109.692 211.82V213.248H109.656C109.104 213.192 108.66 213.312 108.324 213.608C107.988 213.904 107.82 214.368 107.82 215V218H106.188V211.844H107.76ZM110.574 212.924V211.844H111.426V209.924H113.022V211.844H114.078V212.924H113.022V216.188C113.022 216.596 113.226 216.8 113.634 216.8L114.114 216.788V217.988C113.866 218.004 113.526 218.012 113.094 218.012C112.622 218.012 112.226 217.9 111.906 217.676C111.586 217.444 111.426 217.064 111.426 216.536V212.924H110.574ZM117.582 210.884V209.42H124.482V210.884H121.902V218H120.162V210.884H117.582ZM127.219 218.18C126.227 218.18 125.447 217.876 124.879 217.268C124.311 216.652 124.027 215.868 124.027 214.916C124.027 213.996 124.311 213.228 124.879 212.612C125.447 211.988 126.175 211.676 127.063 211.676C128.031 211.676 128.779 212.012 129.307 212.684C129.835 213.356 130.099 214.256 130.099 215.384H125.635C125.699 215.872 125.863 216.252 126.127 216.524C126.391 216.788 126.751 216.92 127.207 216.92C127.807 216.92 128.203 216.668 128.395 216.164H130.003C129.883 216.74 129.579 217.22 129.091 217.604C128.603 217.988 127.979 218.18 127.219 218.18ZM127.087 212.936C126.295 212.936 125.819 213.376 125.659 214.256H128.395C128.371 213.864 128.239 213.548 127.999 213.308C127.759 213.06 127.455 212.936 127.087 212.936ZM135.21 218C135.13 217.896 135.066 217.668 135.018 217.316H134.994C134.818 217.58 134.594 217.784 134.322 217.928C134.05 218.072 133.67 218.144 133.182 218.144C132.534 218.144 132.014 217.98 131.622 217.652C131.23 217.324 131.034 216.86 131.034 216.26C131.034 215.636 131.25 215.18 131.682 214.892C132.114 214.596 132.722 214.392 133.506 214.28C134.082 214.2 134.474 214.12 134.682 214.04C134.89 213.952 134.994 213.8 134.994 213.584C134.994 213.36 134.906 213.184 134.73 213.056C134.554 212.92 134.298 212.852 133.962 212.852C133.218 212.852 132.822 213.14 132.774 213.716H131.322C131.346 213.132 131.582 212.648 132.03 212.264C132.478 211.88 133.126 211.688 133.974 211.688C135.702 211.688 136.566 212.444 136.566 213.956V217.088C136.566 217.552 136.638 217.836 136.782 217.94V218H135.21ZM133.578 217.004C134.026 217.004 134.378 216.888 134.634 216.656C134.898 216.424 135.03 216.148 135.03 215.828V214.904C134.854 215.008 134.474 215.128 133.89 215.264C133.426 215.368 133.098 215.488 132.906 215.624C132.714 215.752 132.618 215.952 132.618 216.224C132.618 216.744 132.938 217.004 133.578 217.004ZM138.084 218V211.844H139.656V212.672H139.692C140.084 212.008 140.68 211.676 141.48 211.676C141.864 211.676 142.204 211.776 142.5 211.976C142.804 212.168 143.032 212.428 143.184 212.756H143.208C143.656 212.036 144.272 211.676 145.056 211.676C145.696 211.676 146.192 211.872 146.544 212.264C146.904 212.648 147.084 213.18 147.084 213.86V218H145.452V214.136C145.452 213.432 145.136 213.08 144.504 213.08C144.16 213.08 143.888 213.204 143.688 213.452C143.496 213.692 143.4 214.016 143.4 214.424V218H141.768V214.136C141.768 213.432 141.452 213.08 140.82 213.08C140.492 213.08 140.224 213.204 140.016 213.452C139.816 213.692 139.716 214.016 139.716 214.424V218H138.084Z" fill="#1D1D1D"/>
</svg>
