<svg width="50" height="50" viewBox="0 0 50 50" fill="none" xmlns="http://www.w3.org/2000/svg">
<path d="M22 16.6C27 22.6 29 27.1 29.5 32.8M19.4004 32C22.9004 28.5 25.4004 25.5 33.9004 25.6M16.0996 23.75C21.0996 23.75 25.9136 23.37 31.4136 18.75M16 25C16 26.1819 16.2328 27.3522 16.6851 28.4442C17.1374 29.5361 17.8003 30.5282 18.636 31.364C19.4718 32.1997 20.4639 32.8626 21.5558 33.3149C22.6478 33.7672 23.8181 34 25 34C26.1819 34 27.3522 33.7672 28.4442 33.3149C29.5361 32.8626 30.5282 32.1997 31.364 31.364C32.1997 30.5282 32.8626 29.5361 33.3149 28.4442C33.7672 27.3522 34 26.1819 34 25C34 23.8181 33.7672 22.6478 33.3149 21.5558C32.8626 20.4639 32.1997 19.4718 31.364 18.636C30.5282 17.8003 29.5361 17.1374 28.4442 16.6851C27.3522 16.2328 26.1819 16 25 16C23.8181 16 22.6478 16.2328 21.5558 16.6851C20.4639 17.1374 19.4718 17.8003 18.636 18.636C17.8003 19.4718 17.1374 20.4639 16.6851 21.5558C16.2328 22.6478 16 23.8181 16 25Z" stroke="white" stroke-width="2" stroke-linecap="round" stroke-linejoin="round"/>
</svg>
