<svg width="50" height="50" viewBox="0 0 50 50" fill="none" xmlns="http://www.w3.org/2000/svg">
<path d="M20.5 25C21.2956 25 22.0587 24.6839 22.6213 24.1213C23.1839 23.5587 23.5 22.7956 23.5 22C23.5 21.2044 23.1839 20.4413 22.6213 19.8787C22.0587 19.3161 21.2956 19 20.5 19H16V31H20.5C21.2956 31 22.0587 30.6839 22.6213 30.1213C23.1839 29.5587 23.5 28.7956 23.5 28C23.5 27.2044 23.1839 26.4413 22.6213 25.8787C22.0587 25.3161 21.2956 25 20.5 25ZM20.5 25H16M27 26H34C34 25.0717 33.6313 24.1815 32.9749 23.5251C32.3185 22.8687 31.4283 22.5 30.5 22.5C29.5717 22.5 28.6815 22.8687 28.0251 23.5251C27.3687 24.1815 27 25.0717 27 26ZM27 26V28C27.1031 28.7487 27.4459 29.4438 27.9769 29.9816C28.5079 30.5193 29.1987 30.8707 29.946 30.9833C30.6933 31.0958 31.457 30.9634 32.1228 30.606C32.7887 30.2485 33.3209 29.6851 33.64 29M29 19H32" stroke="white" stroke-width="2" stroke-linecap="round" stroke-linejoin="round"/>
</svg>
