<svg width="50" height="50" viewBox="0 0 50 50" fill="none" xmlns="http://www.w3.org/2000/svg">
<path d="M36.6735 18.9078C36.3926 17.8635 35.5693 17.0404 34.5252 16.7592C32.6178 16.2373 24.988 16.2373 24.988 16.2373C24.988 16.2373 17.3584 16.2373 15.451 16.7394C14.427 17.0203 13.5836 17.8637 13.3027 18.9078C12.8008 20.8151 12.8008 24.7705 12.8008 24.7705C12.8008 24.7705 12.8008 28.7459 13.3027 30.6332C13.5839 31.6773 14.4069 32.5004 15.4512 32.7816C17.3785 33.3037 24.9883 33.3037 24.9883 33.3037C24.9883 33.3037 32.6178 33.3037 34.5252 32.8016C35.5695 32.5205 36.3926 31.6974 36.6738 30.6533C37.1756 28.7459 37.1756 24.7906 37.1756 24.7906C37.1756 24.7906 37.1957 20.8151 36.6735 18.9078ZM22.5588 28.4247V21.1163L28.9034 24.7705L22.5588 28.4247Z" fill="white"/>
</svg>
