<svg width="50" height="50" viewBox="0 0 50 50" fill="none" xmlns="http://www.w3.org/2000/svg">
<g clip-path="url(#clip0_4492_7264)">
<path d="M35.9769 20.4681C35.9254 19.2991 35.7364 18.4955 35.4656 17.7991C35.1862 17.0599 34.7565 16.3982 34.1934 15.848C33.6432 15.2893 32.9771 14.8552 32.2465 14.5802C31.5461 14.3094 30.7467 14.1204 29.5777 14.0688C28.4 14.0129 28.0262 14 25.0393 14C22.0523 14 21.6785 14.0129 20.5052 14.0645C19.3362 14.116 18.5326 14.3052 17.8364 14.5758C17.097 14.8552 16.4353 15.2849 15.8851 15.848C15.3264 16.3982 14.8925 17.0643 14.6173 17.7949C14.3465 18.4955 14.1575 19.2948 14.1059 20.4637C14.05 21.6414 14.0371 22.0152 14.0371 25.0021C14.0371 27.9891 14.05 28.3629 14.1016 29.5362C14.1531 30.7052 14.3423 31.5088 14.6131 32.2052C14.8925 32.9444 15.3264 33.6061 15.8851 34.1563C16.4353 34.715 17.1014 35.1491 17.832 35.4241C18.5326 35.6949 19.3319 35.8839 20.501 35.9355C21.6741 35.9872 22.0482 35.9999 25.0351 35.9999C28.022 35.9999 28.3958 35.9872 29.5692 35.9355C30.7381 35.8839 31.5417 35.6949 32.2379 35.4241C33.7164 34.8525 34.8854 33.6835 35.457 32.2052C35.7276 31.5046 35.9168 30.7052 35.9684 29.5362C36.0199 28.3629 36.0328 27.9891 36.0328 25.0021C36.0328 22.0152 36.0285 21.6414 35.9769 20.4681ZM33.9958 29.4503C33.9485 30.5247 33.768 31.1049 33.6176 31.4917C33.2479 32.4501 32.4872 33.2108 31.5288 33.5805C31.142 33.7309 30.5576 33.9113 29.4874 33.9585C28.327 34.0102 27.979 34.023 25.0436 34.023C22.1083 34.023 21.7559 34.0102 20.5997 33.9585C19.5253 33.9113 18.9451 33.7309 18.5583 33.5805C18.0813 33.4042 17.6472 33.1248 17.2948 32.7595C16.9295 32.4028 16.6502 31.973 16.4739 31.4961C16.3235 31.1093 16.143 30.5247 16.0958 29.4546C16.0441 28.2943 16.0313 27.9461 16.0313 25.0107C16.0313 22.0753 16.0441 21.723 16.0958 20.5669C16.143 19.4925 16.3235 18.9123 16.4739 18.5255C16.6502 18.0484 16.9295 17.6144 17.2992 17.2619C17.6558 16.8966 18.0855 16.6172 18.5626 16.4411C18.9494 16.2907 19.534 16.1102 20.6041 16.0629C21.7644 16.0114 22.1126 15.9984 25.0478 15.9984C27.9876 15.9984 28.3356 16.0114 29.4918 16.0629C30.5662 16.1102 31.1464 16.2907 31.5332 16.4411C32.0101 16.6172 32.4443 16.8966 32.7966 17.2619C33.1619 17.6186 33.4413 18.0484 33.6176 18.5255C33.768 18.9123 33.9485 19.4967 33.9958 20.5669C34.0473 21.7273 34.0603 22.0753 34.0603 25.0107C34.0603 27.9461 34.0473 28.2899 33.9958 29.4503Z" fill="white"/>
<path d="M25.0402 19.3506C21.9201 19.3506 19.3887 21.8819 19.3887 25.0021C19.3887 28.1223 21.9201 30.6536 25.0402 30.6536C28.1604 30.6536 30.6917 28.1223 30.6917 25.0021C30.6917 21.8819 28.1604 19.3506 25.0402 19.3506ZM25.0402 28.6681C23.016 28.6681 21.3742 27.0264 21.3742 25.0021C21.3742 22.9778 23.016 21.3361 25.0402 21.3361C27.0645 21.3361 28.7062 22.9778 28.7062 25.0021C28.7062 27.0264 27.0645 28.6681 25.0402 28.6681Z" fill="white"/>
<path d="M32.2346 19.127C32.2346 19.8556 31.6438 20.4463 30.9151 20.4463C30.1865 20.4463 29.5957 19.8556 29.5957 19.127C29.5957 18.3982 30.1865 17.8076 30.9151 17.8076C31.6438 17.8076 32.2346 18.3982 32.2346 19.127Z" fill="white"/>
</g>
<defs>
<clipPath id="clip0_4492_7264">
<rect width="22" height="22" fill="white" transform="translate(14 14)"/>
</clipPath>
</defs>
</svg>
