<svg width="50" height="50" viewBox="0 0 50 50" fill="none" xmlns="http://www.w3.org/2000/svg">
<path d="M35.399 35.3997V27.7817C35.399 24.0377 34.593 21.1777 30.225 21.1777C28.119 21.1777 26.715 22.3217 26.143 23.4137H26.091V21.5157H21.957V35.3997H26.273V28.5097C26.273 26.6897 26.611 24.9477 28.847 24.9477C31.057 24.9477 31.083 27.0017 31.083 28.6137V35.3737H35.399V35.3997Z" fill="white"/>
<path d="M14.9375 21.5156H19.2535V35.3996H14.9375V21.5156Z" fill="white"/>
<path d="M17.0956 14.5996C15.7176 14.5996 14.5996 15.7176 14.5996 17.0956C14.5996 18.4736 15.7176 19.6176 17.0956 19.6176C18.4736 19.6176 19.5916 18.4736 19.5916 17.0956C19.5916 15.7176 18.4736 14.5996 17.0956 14.5996Z" fill="white"/>
</svg>
