<svg width="50" height="50" viewBox="0 0 50 50" fill="none" xmlns="http://www.w3.org/2000/svg">
<path d="M21 27.4999C21.5 29.4999 23.358 29.9999 25 29.9999C27.905 29.9999 29 28.8129 29 27.4999C29 25.9969 27.073 24.9999 25 24.9999C22.927 24.9999 21 23.9999 21 22.4999C21 21.1869 22.095 19.9999 25 19.9999C26.642 19.9999 28.5 20.4999 29 22.4999M25.0009 15.9999C26.4098 15.9996 27.799 16.33 29.0568 16.9646C30.3146 17.5992 31.4059 18.5202 32.2428 19.6536C33.0797 20.7869 33.6389 22.1008 33.8753 23.4897C34.1117 24.8786 34.0187 26.3035 33.6039 27.6499C33.98 28.483 34.0935 29.4109 33.9292 30.3101C33.765 31.2093 33.3308 32.0371 32.6845 32.6835C32.0381 33.3298 31.2103 33.764 30.3111 33.9282C29.4119 34.0925 28.484 33.979 27.6509 33.6029C26.0867 34.0854 24.4205 34.1322 22.8317 33.7382C21.2429 33.3441 19.7916 32.5242 18.6341 31.3667C17.4766 30.2092 16.6567 28.758 16.2627 27.1691C15.8686 25.5803 15.9154 23.9141 16.3979 22.3499C16.0215 21.5168 15.9078 20.5887 16.0719 19.6893C16.236 18.7899 16.6701 17.9619 17.3165 17.3154C17.9629 16.6688 18.7909 16.2345 19.6903 16.0703C20.5896 15.906 21.5177 16.0196 22.3509 16.3959C23.2095 16.1322 24.1028 15.9987 25.0009 15.9999Z" stroke="white" stroke-width="2" stroke-linecap="round" stroke-linejoin="round"/>
</svg>
