<svg width="50" height="50" viewBox="0 0 50 50" fill="none" xmlns="http://www.w3.org/2000/svg">
<path d="M21 33L25 24M23.7 27C24.137 28.263 25.13 29 26.25 29C28.321 29 30 27.446 30 25C30.0009 24.2698 29.8418 23.5483 29.5339 22.8862C29.2261 22.2241 28.777 21.6374 28.2182 21.1675C27.6593 20.6975 27.0044 20.3556 26.2993 20.1659C25.5942 19.9762 24.8561 19.9432 24.1369 20.0692C23.4177 20.1953 22.7348 20.4773 22.1362 20.8955C21.5377 21.3137 21.038 21.8579 20.6723 22.4899C20.3066 23.1219 20.0838 23.8264 20.0194 24.5537C19.9551 25.281 20.0509 26.0136 20.3 26.7M16 25C16 26.1819 16.2328 27.3522 16.6851 28.4442C17.1374 29.5361 17.8003 30.5282 18.636 31.364C19.4718 32.1997 20.4639 32.8626 21.5558 33.3149C22.6478 33.7672 23.8181 34 25 34C26.1819 34 27.3522 33.7672 28.4442 33.3149C29.5361 32.8626 30.5282 32.1997 31.364 31.364C32.1997 30.5282 32.8626 29.5361 33.3149 28.4442C33.7672 27.3522 34 26.1819 34 25C34 23.8181 33.7672 22.6478 33.3149 21.5558C32.8626 20.4639 32.1997 19.4718 31.364 18.636C30.5282 17.8003 29.5361 17.1374 28.4442 16.6851C27.3522 16.2328 26.1819 16 25 16C23.8181 16 22.6478 16.2328 21.5558 16.6851C20.4639 17.1374 19.4718 17.8003 18.636 18.636C17.8003 19.4718 17.1374 20.4639 16.6851 21.5558C16.2328 22.6478 16 23.8181 16 25Z" stroke="white" stroke-width="2" stroke-linecap="round" stroke-linejoin="round"/>
</svg>
