<svg width="144" height="45" viewBox="0 0 144 45" fill="none" xmlns="http://www.w3.org/2000/svg">
<g clip-path="url(#clip0_1_797)">
<path d="M40.7523 1.71672C40.7523 1.71672 37.9575 0.993252 33.8231 0.680845C30.1849 0.401324 25.5213 0.368439 20.8577 1.42076C10.6706 3.59116 0.5 11.648 0.5 22.9604C0.5 30.6883 4.9486 36.9364 11.5305 40.6196C14.2758 42.1651 17.4179 43.2339 20.7419 43.8094C32.7482 45.9305 46.5074 42.4776 46.5074 42.4776V28.4521C46.5074 28.4521 43.8779 28.1562 42.2738 27.9753C40.6697 27.7944 37.2299 27.1861 37.2299 27.1861V37.5777C37.2299 37.5777 30.8464 39.9947 22.3295 37.5777C21.0892 37.216 19.9812 36.7227 18.9393 36.213C12.5062 33.1218 9.79409 27.5642 9.79409 22.2533C9.79409 13.3086 17.236 6.38637 28.5642 6.38637C32.7316 6.38637 35.8242 7.40581 37.8748 8.34303C39.7436 9.19803 40.7358 9.98727 40.7358 9.98727V1.68383" fill="#858383"/>
<path d="M98.9158 28.4192C98.9158 28.4192 101.529 28.1233 102.686 27.9588C104.787 27.6958 108.028 27.1367 108.028 27.1367L103.778 37.3146C103.778 37.3146 102.736 39.6987 102.504 40.8826C102.389 41.3923 102.356 41.9349 102.422 42.3295C102.504 42.9379 102.752 43.2996 102.752 43.2996H90.7793C90.7793 43.2996 91.9865 41.9349 92.7803 40.7182C93.7561 39.189 94.7483 37.1173 95.5421 35.5059C97.0636 32.4476 98.9323 28.4028 98.9323 28.4028" fill="#858383"/>
<path d="M58.1834 29.3237C58.1834 29.3237 60.9121 29.4553 62.665 29.521C64.4842 29.5704 67.5601 29.6526 67.5601 29.6526V37.4792C67.5601 37.4792 82.7416 37.4956 83.1716 37.4956C83.7504 37.4956 84.6434 37.4463 85.4207 37.3641C86.3137 37.2819 87.0744 37.1997 87.5044 37.0681C88.1494 36.8708 88.2321 36.7722 88.2321 36.7722L85.4372 43.382H57.6211C57.6211 43.382 57.8195 42.4284 57.9684 41.4254C58.1007 40.5539 58.1834 38.5808 58.1834 38.5808V29.3402" fill="#858383"/>
<path d="M57.6367 1.50293H84.6756V8.17857C84.6756 8.17857 84.2787 7.9977 83.7826 7.8826C83.3691 7.78395 81.7815 7.61952 80.4916 7.58664C78.9867 7.53731 77.2337 7.53731 77.2337 7.53731H67.5758V18.9319L62.846 18.8168L58.199 18.7017V6.33701C58.199 6.33701 58.1659 4.64344 58.0667 3.77199C57.9509 2.769 57.6533 1.50293 57.6533 1.50293" fill="#858383"/>
<path d="M80.674 12.207C80.674 12.207 82.8404 12.207 85.3871 12.2399C87.7024 12.2728 90.3484 12.3386 91.9856 12.3879C95.3593 12.4866 97.9722 12.5852 99.8244 12.6839C102.14 12.8154 103.33 12.9469 103.33 12.9469L102.718 14.3117C102.718 14.3117 94.8135 13.506 92.0683 13.2593C89.5215 13.0127 81.8481 12.3386 80.707 12.2564C80.6574 12.2564 80.6905 12.207 80.6905 12.207" fill="#858383"/>
<path d="M103.876 17.485L108.688 6.5672C108.688 6.5672 109.615 4.56123 109.879 3.80487C110.276 2.68679 110.276 1.50293 110.276 1.50293H124.217L138.919 35.4237C138.919 35.4237 140.507 39.2877 141.019 40.1427C141.383 40.7675 141.978 41.6225 142.458 42.198C143.087 42.9708 143.516 43.3325 143.516 43.3325H130.948C130.948 43.3325 131.279 42.5433 131.163 41.7705C131.047 40.9155 130.551 40.0112 130.551 40.0112L124.135 25.065L116.693 7.91549L116.494 7.37288L116.296 7.91549L112.872 15.7092C112.872 15.7092 110.21 16.4162 108.87 16.6793C107.25 16.9917 103.859 17.485 103.859 17.485" fill="#858383"/>
<path d="M55.1736 12.6014C55.1736 12.6014 53.8506 12.5685 51.9322 12.6343C50.7911 12.6672 49.4516 12.7165 48.0294 12.7987C40.9679 13.1604 34.5513 14.1634 30.7807 15.2815C27.4236 16.2681 24.5957 17.6492 24.5957 19.3099C24.5957 20.9706 27.159 22.2696 31.0288 23.3877C34.4355 24.3742 38.8676 25.1799 43.4981 25.7554C56.9431 27.4161 68.6517 27.3667 72.6703 27.3832C75.2998 27.3832 93.7226 27.3338 106.853 24.9826C115.354 23.4699 120.596 21.5954 120.596 19.277C120.596 18.1754 119.571 17.3862 118.446 16.7613C117.123 16.0214 115.684 15.6433 115.684 15.6433C115.684 15.6433 116.412 16.4983 114.874 17.3368C114.262 17.6657 113.32 18.011 112.079 18.3398C110.988 18.6358 109.648 18.9482 108.143 19.2277C105.729 19.6552 102.901 19.9841 99.5769 20.28C97.3939 20.4773 92.1515 20.8555 85.6853 21.0857C78.9711 21.3323 72.2734 21.2995 72.2734 21.2995C72.2734 21.2995 66.1545 21.2995 58.663 21.0199C55.124 20.9048 51.2707 20.6911 47.6325 20.428C42.9524 20.0992 38.4872 19.573 35.4609 18.9153C33.0133 18.3891 31.4919 17.7479 31.4919 17.2217C31.4919 14.706 55.1736 12.585 55.1736 12.585" fill="#858383"/>
</g>
<defs>
<clipPath id="clip0_1_797">
<rect width="143" height="44" fill="white" transform="translate(0.5 0.5)"/>
</clipPath>
</defs>
</svg>
