<svg width="48" height="48" viewBox="0 0 48 48" fill="none" xmlns="http://www.w3.org/2000/svg">
<g clip-path="url(#clip0_6742_2366)">
<g clip-path="url(#clip1_6742_2366)">
<path fill-rule="evenodd" clip-rule="evenodd" d="M0.9375 42.8438H47.0623V44.9531C47.0623 46.1133 46.1131 47.0625 44.953 47.0625H3.04687C1.88671 47.0625 0.9375 46.1133 0.9375 44.9531V42.8438Z" stroke="#1D1D1D" stroke-width="2" stroke-miterlimit="2.6131" stroke-linecap="round" stroke-linejoin="round"/>
<path d="M6.54991 42.8436C3.46199 42.8369 0.9375 40.3083 0.9375 37.2187V32.5312H33.7499V37.2187C33.7499 40.3085 31.225 42.8373 28.1366 42.8437" stroke="#1D1D1D" stroke-width="2" stroke-miterlimit="2.6131" stroke-linecap="round" stroke-linejoin="round"/>
<path d="M43.9609 0.9375H34.5859V5.15623H43.9609V0.9375Z" stroke="#1D1D1D" stroke-width="2" stroke-miterlimit="2.6131" stroke-linecap="round" stroke-linejoin="round"/>
<path d="M36.2812 5.625V8.43749M41.9063 8.43758V5.625" stroke="#1D1D1D" stroke-width="2" stroke-miterlimit="2.6131" stroke-linecap="round" stroke-linejoin="round"/>
<path d="M43.7138 42.8436C45.5561 42.8401 47.0624 41.3609 47.0624 39.5533V16.6562C46.9554 15.1526 44.9527 11.585 43.168 8.90625H35.0195C33.2346 11.585 31.2321 15.1526 31.125 16.6562V21.8196" stroke="#1D1D1D" stroke-width="2" stroke-miterlimit="2.6131" stroke-linecap="round" stroke-linejoin="round"/>
<path d="M46.5957 34.873H34.2207M33.8594 23.623H46.5957" stroke="#1D1D1D" stroke-width="2" stroke-miterlimit="2.6131" stroke-linecap="round" stroke-linejoin="round"/>
<path d="M2.51161 32.4051C0.494493 29.3231 0.363056 25.7166 2.42452 23.6551C4.90944 21.1701 9.63968 21.8713 12.9896 25.2212C13.553 25.7845 14.0413 26.3869 14.4522 27.0111" stroke="#1D1D1D" stroke-width="2" stroke-miterlimit="2.6131" stroke-linecap="round" stroke-linejoin="round"/>
<path d="M23.2422 27.0348L23.378 26.7996C25.2941 23.9762 28.7647 22.0083 32.3444 22.0117C34.1373 25.1101 34.1683 29.0998 32.6812 32.1708L32.5401 32.4152" stroke="#1D1D1D" stroke-width="2" stroke-miterlimit="2.6131" stroke-linecap="round" stroke-linejoin="round"/>
<path d="M10.3635 32.3333C10.1863 31.9145 10.0859 31.4594 10.0859 30.9836C10.0859 29.104 11.4688 27.5475 13.2726 27.2756C13.4563 27.2479 13.5821 27.2336 13.8359 27.2336C14.0896 27.2336 14.4588 27.2729 14.752 27.3465C15.2738 25.9029 16.668 24.8711 18.2797 24.8711C19.8913 24.8711 21.2451 25.8731 21.7838 27.2836C22.1334 27.1759 22.6507 27.1178 22.8897 27.1178C23.1287 27.1178 23.075 27.1212 23.1664 27.1278C25.1083 27.2695 26.6397 28.8898 26.6397 30.8678C26.6397 31.3853 26.52 31.8782 26.3119 32.3267" stroke="#1D1D1D" stroke-width="2" stroke-miterlimit="2.6131" stroke-linecap="round" stroke-linejoin="round"/>
<path d="M10.0437 31.2761L6.07812 27.3105" stroke="#1D1D1D" stroke-width="2" stroke-miterlimit="2.6131" stroke-linecap="round" stroke-linejoin="round"/>
<path d="M26.8984 31.4564L29.7026 26.5996" stroke="#1D1D1D" stroke-width="2" stroke-miterlimit="2.6131" stroke-linecap="round" stroke-linejoin="round"/>
<path d="M17.3438 37.2188H17.3444" stroke="#1D1D1D" stroke-width="2" stroke-miterlimit="2.6131" stroke-linecap="round" stroke-linejoin="round"/>
<path d="M1.40625 37.2188H13.1246M21.5621 37.2188H33.2812" stroke="#1D1D1D" stroke-width="2" stroke-miterlimit="2.6131" stroke-linecap="round" stroke-linejoin="round"/>
</g>
</g>
<defs>
<clipPath id="clip0_6742_2366">
<rect width="48" height="48" fill="white"/>
</clipPath>
<clipPath id="clip1_6742_2366">
<rect width="48" height="48" fill="white"/>
</clipPath>
</defs>
</svg>
