<svg width="48" height="48" viewBox="0 0 48 48" fill="none" xmlns="http://www.w3.org/2000/svg">
<g clip-path="url(#clip0_6742_4692)">
<g clip-path="url(#clip1_6742_4692)">
<mask id="mask0_6742_4692" style="mask-type:luminance" maskUnits="userSpaceOnUse" x="0" y="0" width="48" height="48">
<path d="M0 3.8147e-06H48V48H0V3.8147e-06Z" fill="white"/>
</mask>
<g mask="url(#mask0_6742_4692)">
<path d="M46.9249 11.8177H37.4392L34.8534 15.2963L32.4322 11.8177L30.1383 16.3965L26.0367 8.82017L21.9349 16.3965L19.6412 11.8177L17.22 15.2963L14.6315 11.8177H5.14844" stroke="#1D1D1D" stroke-width="2" stroke-miterlimit="10" stroke-linecap="round" stroke-linejoin="round"/>
<path d="M19.8539 23.9253L26.0344 29.8965L39.3484 17.0346C43.0067 13.2397 43.0067 7.02936 39.3484 3.23192C36.1492 -0.0818591 30.8635 0.361952 27.5183 3.49236C25.9892 4.92205 26.0795 4.92205 24.5503 3.49236C21.2052 0.361952 15.9194 -0.0818591 12.7204 3.23192C9.06196 7.02936 9.06196 13.2397 12.7204 17.0346L13.8035 18.0789" stroke="#1D1D1D" stroke-width="2" stroke-miterlimit="10" stroke-linecap="round" stroke-linejoin="round"/>
<path d="M2.6445 34.1249H6.43031C7.29047 34.1249 7.99659 34.8318 7.99659 35.6928V44.4888C7.99659 45.3498 7.29047 46.0566 6.43031 46.0566H2.6445C1.78162 46.0566 1.07812 45.3498 1.07812 44.4888V35.6928C1.07812 34.8318 1.78162 34.1249 2.6445 34.1249Z" stroke="#1D1D1D" stroke-width="2" stroke-miterlimit="10" stroke-linecap="round" stroke-linejoin="round"/>
<path d="M26.4007 38.2913L35.7378 33.6594C36.9537 33.0562 38.4192 33.3059 39.1333 34.4619C39.8448 35.6153 39.4333 37.0715 38.3289 37.858L27.3459 45.6895C24.0698 47.8765 22.6892 47.0155 19.2433 46.0828C16.907 45.3945 16.2566 45.2059 13.9177 44.5176C11.3398 43.7575 10.3045 43.7071 8 43.7071M26.4007 38.2913C26.0052 39.6385 24.5795 40.4172 23.2308 40.0266L17.9477 38.4906M26.4007 38.2913C26.7936 36.9413 26.0104 35.5195 24.6644 35.1183L20.9689 34.0208C17.876 33.1014 14.9264 32.8462 12.0433 34.5071C11.0159 35.1024 10.5354 35.6923 8.7035 35.6923H8" stroke="#1D1D1D" stroke-width="2" stroke-miterlimit="10" stroke-linecap="round" stroke-linejoin="round"/>
<path d="M16.8335 21.0039L16.8281 21.0013" stroke="#1D1D1D" stroke-width="2" stroke-miterlimit="10" stroke-linecap="round" stroke-linejoin="round"/>
</g>
</g>
</g>
<defs>
<clipPath id="clip0_6742_4692">
<rect width="48" height="48" fill="white"/>
</clipPath>
<clipPath id="clip1_6742_4692">
<rect width="48" height="48" fill="white"/>
</clipPath>
</defs>
</svg>
