<svg width="132" height="51" viewBox="0 0 132 51" fill="none" xmlns="http://www.w3.org/2000/svg">
<g clip-path="url(#clip0_1_795)">
<path fill-rule="evenodd" clip-rule="evenodd" d="M0.5 5.6125V5.55554V0.64241H5.5261V36.8002V41.6564H0.5V36.6863V5.6125ZM51.6522 26.7176C51.7837 34.1656 56.5176 40.1326 62.2158 40.0329C67.9286 39.9332 72.4433 33.8096 72.3118 26.3473C72.1803 18.8851 67.4465 12.9324 61.7483 13.032C56.0355 13.1317 51.5207 19.2553 51.6522 26.7176ZM93.3075 17.7031C93.439 17.9879 93.1322 17.2758 93.1322 17.2758L93.3075 17.7031ZM96.741 48.5632C96.9748 48.1787 97.2962 47.5948 97.6761 46.8543L96.741 48.5632ZM97.0332 15.1397C97.0917 15.3106 97.1647 15.4815 97.2378 15.6666L98.9326 19.7395L97.0332 15.1539V15.1397ZM75.9499 35.604C79.062 38.3667 81.8527 39.805 85.4323 39.805C89.0996 39.8335 92.3578 38.0819 92.3578 34.6925C92.3578 31.8728 89.8009 30.2209 85.2424 28.3268C81.3851 26.6891 78.5068 25.5356 77.0019 23.1574C77.1918 24.1827 77.2795 25.2508 77.2795 26.3473C77.2795 35.5043 70.5147 42.9238 62.1574 42.9238C53.8 42.9238 47.0352 35.5043 47.0352 26.3473C47.0352 20.8218 49.4898 15.9372 53.274 12.9324H43.0319V36.7717V41.6564H38.488V36.9284C38.488 36.8429 38.488 36.7575 38.488 36.672V12.9324H34.4846V9.94175H38.5464C39.0724 3.91783 42.8858 0.5 48.1603 0.5C51.5792 0.5 53.464 0.856024 54.5452 1.34022V5.42737C54.5306 5.72643 54.5306 5.91156 54.5306 5.91156C54.4867 5.91156 54.3698 5.91156 54.3698 5.91156C52.7188 4.41626 51.097 3.31971 47.3128 3.31971C44.2884 3.31971 42.2867 5.72643 42.9881 9.94175H60.0096C60.7255 9.82783 61.4414 9.77086 62.1574 9.77086C68.2208 9.77086 73.4515 13.6729 75.8623 19.3123C75.833 18.999 75.833 18.6715 75.833 18.3297C75.833 12.4482 81.6481 9.94175 87.6824 9.95599C87.9161 9.95599 88.1353 9.95599 88.3544 9.95599C90.473 9.92751 93.512 10.5968 95.353 11.081L98.9326 19.7111L104.046 31.9583L104.645 33.9235L105.318 31.9583L111.79 16.2363C112.988 11.907 117.707 10.0414 122.938 10.0414C125.539 10.0414 127.453 10.3405 129.747 11.1238V15.8802C126.912 13.858 124.896 12.6903 121.682 12.6903C118.862 12.6903 115.472 13.915 115.472 17.9879C115.414 21.0497 117.284 21.6051 122.792 24.2824C127.307 26.2049 131.485 28.3268 131.5 33.2542C131.5 41.457 123.26 42.8811 119.256 42.8811C115.677 42.8811 112.389 42.0124 110.563 40.5313V35.1198L110.855 35.3619C114.113 38.3382 116.992 39.8905 120.703 39.8905C124.37 39.919 127.628 38.1531 127.628 34.778C127.628 31.9583 125.071 30.3063 120.513 28.4123C116.159 26.561 113.295 25.3362 112.126 22.2744C110.344 26.5182 102.089 46.2704 100.131 50.4858H95.6744L97.6907 46.7973C98.8011 44.6327 100.438 41.2576 101.884 38.0107L93.3075 17.7031C93.1468 17.3471 92.9861 16.991 92.8253 16.6208C92.1678 15.1539 91.5542 13.7868 89.6986 13.1032C88.7051 12.7757 87.6531 12.6048 86.4258 12.6048C83.6059 12.6048 79.9971 13.8295 79.9971 17.9024C79.9387 20.9643 82.028 21.5197 87.5362 24.197C92.051 26.1195 96.2296 28.2414 96.2442 33.1688C96.2442 41.3715 88.0038 42.7814 84.0004 42.7956C80.8153 42.7956 77.8639 42.1121 75.9791 40.9158V35.604M14.9208 10.2408L14.9793 13.8295V14.0716H15.0231C15.0815 13.915 15.1546 13.8011 15.2422 13.7014C17.0832 11.7646 19.4209 9.82783 24.9584 9.82783C30.4959 9.82783 33.681 14.2425 33.8271 17.0195V36.672V41.6421H29.2832V19.0417C29.2832 15.5812 26.1857 13.0748 22.3869 13.0748C19.231 13.0748 15.1838 15.866 15.0523 18.6715V36.8002V41.6421H10.5084V10.2408H14.9354" fill="#3781C2"/>
</g>
<defs>
<clipPath id="clip0_1_795">
<rect width="131" height="50" fill="white" transform="translate(0.5 0.5)"/>
</clipPath>
</defs>
</svg>
