<svg width="148" height="43" viewBox="0 0 148 43" fill="none" xmlns="http://www.w3.org/2000/svg">
<g clip-path="url(#clip0_1_830)">
<path d="M0.5 21.5C0.5 9.63129 11.9998 0 26.1957 0C40.3915 0 51.8914 9.63129 51.8914 21.5C51.8914 33.3687 40.3915 43 26.1957 43C11.9998 43 0.5 33.3687 0.5 21.5Z" fill="#1F3C71"/>
<path d="M23.0738 6.90477L29.0446 4.97852L29.0751 36.3765L23.0586 38.3324L23.0738 6.90477Z" fill="#EB2027"/>
<path d="M85.1571 33.917C90.8994 33.917 95.2557 30.672 95.2557 25.0859C95.2557 19.4997 90.8842 16.2251 85.1571 16.2251C79.4301 16.2251 75.0586 19.4701 75.0586 25.0859C75.0586 30.7017 79.4301 33.917 85.1571 33.917ZM85.1571 29.8274C82.385 29.8274 81.2578 27.59 81.2578 25.0859C81.2578 22.5817 82.385 20.3147 85.1571 20.3147C87.9293 20.3147 89.0564 22.5521 89.0564 25.0859C89.0564 27.6197 87.9293 29.8274 85.1571 29.8274Z" fill="#EB2027"/>
<path d="M94.7226 20.7147H98.1649V27.6047C98.1649 31.6351 99.4596 33.9318 104.836 33.9318C106.344 33.9318 107.471 33.7391 108.599 33.6058L108.401 29.8125C107.806 29.9163 107.167 30.0348 106.573 30.0348C104.669 30.0348 104.166 28.9976 104.166 26.9528V20.7147H108.37V16.6251H104.166V10.7722L98.2715 12.817V16.6103H94.7378V20.6999" fill="#EB2027"/>
<path d="M129.359 33.5318H135.36V25.16H135.437L140.235 33.5318H147.5L140.966 24.3746L146.997 16.6252H140.433L135.437 23.7375H135.36V10.7871L129.359 12.8171V33.5318Z" fill="#EB2027"/>
<path d="M59.0801 33.5318H65.0813V25.16H65.1422L69.9554 33.5318H77.2209L70.6865 24.3746L76.7183 16.6252H70.1534L65.1422 23.7375H65.0813V10.7871L59.0801 12.7134V33.5318Z" fill="#EB2027"/>
<path d="M127.227 33.6206C126.953 32.2722 126.892 30.9238 126.892 29.5754V23.204C126.892 17.9734 123.008 16.1064 118.514 16.1064C115.91 16.1064 113.655 16.4621 111.493 17.3215L111.599 21.3222C113.29 20.4035 115.24 20.0479 117.204 20.0479C119.398 20.0479 121.18 20.6702 121.226 23.0113C120.449 22.878 119.367 22.7891 118.392 22.7891C115.148 22.7891 109.314 23.4114 109.314 28.6419C109.314 32.3611 112.422 34.0355 115.894 34.0355C118.392 34.0355 120.083 33.0871 121.469 30.9534H121.53C121.53 31.8425 121.637 32.7315 121.667 33.6502H127.242L127.227 33.6206ZM114.981 28.1974C114.981 26.5527 116.595 25.9304 118.667 25.9304C119.581 25.9304 120.464 25.9896 121.226 26.0341C121.226 28.0344 119.779 30.0792 117.479 30.0792C116.062 30.0792 114.981 29.3828 114.981 28.2122" fill="#EB2027"/>
<path d="M45.5086 23.6635C44.945 28.1531 42.3556 32.6872 36.7047 32.7021C33.3995 32.7021 30.8253 30.5091 29.0432 27.8123V24.7007C31.2823 25.7824 33.369 26.9381 35.8974 26.9677C39.0199 27.0122 41.8378 25.8416 43.0106 23.6635H45.5086ZM26.6214 26.4788C24.032 29.5163 21.5188 32.628 16.8275 32.628C10.2018 32.628 7.04883 26.3899 7.04883 21.1742C7.04883 15.9584 9.50111 10.2241 15.9745 10.2241C18.7771 10.2241 21.4731 11.8985 23.0877 13.6618V17.9143C21.7321 17.0401 18.7315 16.1659 16.7666 16.1363C12.6693 16.0622 9.0594 17.7958 9.12032 21.7372C9.16602 24.4488 11.9229 26.2861 14.6646 26.2861C18.8685 26.2861 21.4122 22.5522 23.5446 19.7072C24.1387 18.9664 25.8141 16.7882 26.0731 16.4326C28.434 13.2172 31.1757 10.2834 35.867 10.2834C41.396 10.2834 44.5033 14.6249 45.3867 19.0849H42.8887C41.8835 17.6328 39.949 16.7438 38.0451 16.7438C33.7041 16.7438 31.0995 20.6407 28.9214 23.5005C28.9214 23.5005 27.2307 25.7379 26.6214 26.464" fill="white"/>
<path d="M65.1428 25.1598H65.0819V33.5316H59.0807V25.2635L59.035 33.6057H65.0819L65.1428 29.442L65.2038 25.2783L67.5799 29.442L69.956 33.6057H73.5964C75.3023 33.6057 76.2619 33.5909 76.7188 33.5316H69.9408L65.1428 25.1598ZM75.6526 18.003L70.6871 24.3893L76.6579 32.7463C76.0791 31.9313 75.0129 30.42 73.8248 28.7456L70.7176 24.3893L73.6421 20.6405C74.4189 19.6477 75.1348 18.7142 75.6526 18.0178M65.0819 13.4837V23.7373H65.1428L70.1388 16.625H75.8659C75.2718 16.5954 74.3579 16.5657 73.3374 16.5657H70.1236L67.656 20.0922L65.1885 23.6188L65.1276 17.2473C65.1276 15.8397 65.0971 14.5357 65.0667 13.4837M63.8329 11.187C63.3151 11.35 62.6601 11.5574 61.9594 11.7797L59.1416 12.6836L63.8329 11.2018" fill="white"/>
<path d="M64.929 10.8761C64.929 10.8761 64.4568 10.9947 63.8323 11.1873L59.141 12.6839L59.0801 23.1301V25.249V33.5171H65.0813V25.1453H65.1422L69.9402 33.5171H76.7183C77.0229 33.4726 77.1143 33.4134 77.0686 33.3393C77.0381 33.2948 76.8858 33.0726 76.6421 32.7169L70.6713 24.36L75.6368 17.9737C76.2004 17.218 76.5507 16.729 76.5507 16.6846C76.5507 16.6549 76.2918 16.6105 75.8653 16.5956H70.1382L65.1422 23.708H65.0813V13.4544C65.0356 11.8837 64.9747 10.8613 64.929 10.8613" fill="#EB2027"/>
</g>
<defs>
<clipPath id="clip0_1_830">
<rect width="147" height="43" fill="white" transform="translate(0.5)"/>
</clipPath>
</defs>
</svg>
