<svg width="48" height="48" viewBox="0 0 48 48" fill="none" xmlns="http://www.w3.org/2000/svg">
<g clip-path="url(#clip0_6665_25)">
<path d="M9 33.0006C6 35.5206 5 43.0006 5 43.0006C5 43.0006 12.48 42.0006 15 39.0006C16.42 37.3206 16.4 34.7406 14.82 33.1806C14.0426 32.4387 13.0186 32.0099 11.9445 31.9767C10.8703 31.9435 9.82175 32.3081 9 33.0006Z" stroke="black" stroke-width="2" stroke-linecap="round" stroke-linejoin="round"/>
<path d="M24 30.0005L18 24.0005C19.0643 21.2394 20.4044 18.5926 22 16.1005C24.3304 12.3745 27.5752 9.30659 31.426 7.18868C35.2768 5.07076 39.6053 3.97324 44 4.0005C44 9.4405 42.44 19.0005 32 26.0005C29.4738 27.5979 26.7937 28.938 24 30.0005Z" stroke="black" stroke-width="2" stroke-linecap="round" stroke-linejoin="round"/>
<path d="M18 23.9991H8C8 23.9991 9.1 17.9391 12 15.9991C15.24 13.8391 22 15.9991 22 15.9991" stroke="black" stroke-width="2" stroke-linecap="round" stroke-linejoin="round"/>
<path d="M24 30V40C24 40 30.06 38.9 32 36C34.16 32.76 32 26 32 26" stroke="black" stroke-width="2" stroke-linecap="round" stroke-linejoin="round"/>
</g>
<defs>
<clipPath id="clip0_6665_25">
<rect width="48" height="48" fill="white"/>
</clipPath>
</defs>
</svg>
