<svg width="214" height="50" viewBox="0 0 214 50" fill="none" xmlns="http://www.w3.org/2000/svg">
<g clip-path="url(#clip0_5471_4262)">
<path d="M52.4696 0H0V50H52.4696V0Z" fill="#D81F28"/>
<path d="M21.9564 17.1902C23.2961 15.9136 25.2552 15.3242 26.8014 15.3242C30.5121 15.3242 33.2952 17.0923 33.2952 20.8252V32.1217H30.6149V20.6284C30.6149 18.271 28.7595 17.5827 26.8003 17.5827C25.2542 17.5827 23.295 18.4667 23.295 19.9401V32.0228H20.7184V20.2348C20.7184 18.4667 18.7603 17.6806 16.6984 17.6806C15.4615 17.6806 14.3273 17.9753 13.6061 18.4667V32.2186H10.9258V16.7976C12.5747 15.9136 14.7403 15.3242 16.8012 15.3242C18.6565 15.3242 20.6157 15.9136 21.9553 17.1902H21.9564Z" fill="white"/>
<path d="M41.8507 30.1569C40.2018 29.7644 39.2741 28.4868 39.2741 27.0134V20.4316H42.7794V18.0742H39.2741V14.1445L36.5938 16.6987V27.0134C36.5938 30.4516 39.1703 32.4164 42.6756 32.4164C43.0876 32.4164 43.2941 32.4164 43.706 32.3186V30.1579C43.3968 30.2558 43.0876 30.2558 42.7783 30.2558C42.3664 30.2558 42.0572 30.2558 41.8507 30.1579V30.1569Z" fill="white"/>
<path d="M39.2741 12.3782H36.5938V9.92188L39.2741 12.3782Z" fill="white"/>
<path d="M43.7075 35.4609H10.8242V38.0151H43.7075V35.4609Z" fill="white"/>
<path d="M65.1478 16.209V36.0511H63.0859V14.2441H66.4875L74.0128 33.6937L81.5381 14.2441H84.9396V36.0511H82.8777V16.209L75.147 36.0511H72.9824L65.1478 16.209Z" fill="#1D1D1D"/>
<path d="M94.2185 36.4445C91.0224 36.4445 88.6523 34.6764 88.6523 32.0243C88.6523 28.3893 92.4669 27.0149 100.61 26.2287V25.6394C100.61 22.0043 98.3423 21.1203 95.8674 21.1203C92.9816 21.1203 91.2289 22.6916 91.1251 24.7553H89.0632C89.4752 21.6118 92.2593 19.4512 95.9701 19.4512C99.8873 19.4512 102.568 21.0224 102.568 25.8361V30.8456C102.568 32.7116 102.67 34.2839 102.774 36.0519H100.816L100.713 33.5966C99.4765 35.2668 97.4146 36.4455 94.2196 36.4455L94.2185 36.4445ZM100.61 28.5861V27.8C93.7027 28.4872 90.7132 29.3712 90.7132 31.9254C90.7132 33.5956 92.362 34.6754 94.6304 34.6754C97.8265 34.7733 100.61 33.202 100.61 28.5851V28.5861Z" fill="#1D1D1D"/>
<path d="M114.217 19.5479C118.237 19.5479 119.887 21.8074 119.887 25.835V36.0507H117.929V26.4243C117.929 23.3787 117.104 21.3159 113.702 21.3159C110.816 21.3159 108.548 23.6734 108.548 27.1116V36.0507H106.59V19.8426H108.548V22.5925C109.373 21.0213 111.022 19.5469 114.218 19.5469L114.217 19.5479Z" fill="#1D1D1D"/>
<path d="M130.709 19.5488C135.451 19.5488 138.543 23.3796 138.234 28.488H124.731C124.833 32.4177 127.411 34.6762 130.813 34.6762C133.493 34.6762 135.348 33.3996 135.967 31.1401H138.029C137.204 34.4804 134.421 36.3463 130.71 36.3463C125.762 36.3463 122.67 32.9081 122.67 27.8986C122.773 22.7903 126.175 19.5488 130.71 19.5488H130.709ZM136.172 26.8178C136.172 24.0679 134.11 21.3169 130.709 21.3169C127.513 21.3169 125.245 23.2817 124.833 26.8178H136.172Z" fill="#1D1D1D"/>
<path d="M143.698 27.8981L151.428 19.843H153.799L147.511 26.3258L154.314 35.9522H152.047L146.171 27.6024L143.595 30.3524V35.9512H141.637V14.2441H143.595V27.8981H143.698Z" fill="#1D1D1D"/>
<path d="M159.571 16.209V19.844H162.87V21.5142H159.571V31.8288C159.571 33.8915 159.674 34.383 161.942 34.383H162.973V36.0532H161.324C158.334 36.0532 157.613 35.3659 157.613 32.2224V21.5152H154.83V19.845H157.613V16.21H159.571V16.209Z" fill="#1D1D1D"/>
<path d="M172.87 19.5488C177.612 19.5488 180.704 23.3796 180.395 28.488H166.994C167.097 32.4177 169.675 34.6762 173.076 34.6762C175.757 34.6762 177.612 33.3996 178.23 31.1401H180.292C179.467 34.4804 176.684 36.3463 172.974 36.3463C168.026 36.3463 164.934 32.9081 164.934 27.8986C164.934 22.7903 168.335 19.5488 172.871 19.5488H172.87ZM178.333 26.8178C178.333 24.0679 176.271 21.3169 172.87 21.3169C169.674 21.3169 167.406 23.2817 166.994 26.8178H178.333Z" fill="#1D1D1D"/>
<path d="M195.444 25.0481C194.825 22.5928 192.763 21.3152 190.289 21.3152C187.404 21.3152 184.723 23.5747 184.723 27.9948C184.723 32.4149 187.3 34.6745 190.289 34.6745C193.279 34.6745 195.032 32.9064 195.444 30.8437H197.505C196.784 34.184 194 36.3446 190.187 36.3446C185.342 36.3446 182.559 32.9064 182.559 27.8969C182.559 22.8874 185.444 19.4492 190.393 19.4492C194.208 19.4492 196.887 22.0034 197.403 24.9502H195.445V25.0481H195.444Z" fill="#1D1D1D"/>
<path d="M208.33 19.5483C212.35 19.5483 214 21.8078 214 25.8354V36.0511H212.042V26.4247C212.042 23.3791 211.217 21.3164 207.815 21.3164C204.93 21.3164 202.661 23.6738 202.661 27.112V36.0511H200.703V14.2441H202.661V22.594C203.486 21.0227 205.238 19.5483 208.331 19.5483H208.33Z" fill="#1D1D1D"/>
<path d="M154.005 16.3069H151.736V14.2441L154.005 16.3069Z" fill="#1D1D1D"/>
</g>
<defs>
<clipPath id="clip0_5471_4262">
<rect width="214" height="50" fill="white"/>
</clipPath>
</defs>
</svg>
