<svg width="178" height="53" viewBox="0 0 178 53" fill="none" xmlns="http://www.w3.org/2000/svg">
<g clip-path="url(#clip0_1_763)">
<path d="M0.5 0.5V52.5H36.7986V0.5H0.5ZM31.5412 47.2577H5.73878V5.74231H31.5598V47.2577H31.5412Z" fill="#FAD32D"/>
<path d="M58.4245 18.6365H58.3685C55.4788 13.9828 52.5518 9.88089 49.6062 5.74223H47.3503V23.842H49.8299V10.8558H49.8485C52.7755 15.5279 55.7025 19.6665 58.6482 23.842H60.904V5.72383H58.4245V18.6181V18.6365ZM76.3407 23.8236L70.5799 5.72383H67.9885L61.7243 23.8236H64.409L65.9937 18.894H71.4562L72.8731 23.8236H76.3407ZM66.7953 16.6683C67.5224 14.2955 68.2495 12.0882 68.8834 9.29228H68.9393C69.6664 12.0882 70.3189 14.2771 70.9901 16.6683H66.7953ZM79.2677 23.8236H82.3625V8.15185H87.1166V5.72383H74.495V8.15185H79.2491V23.8236H79.2677ZM91.1995 5.72383H88.1233V23.8236H91.1995V5.72383ZM100.782 24.1363C105.518 24.1363 108.463 19.924 108.463 14.5162C108.463 9.45783 105.201 5.41113 100.782 5.41113C96.3637 5.41113 93.1011 9.43943 93.1011 14.5162C93.1011 19.924 96.0467 24.1363 100.782 24.1363ZM100.782 8.00469C103.858 8.00469 105.145 11.1869 105.145 14.5162C105.145 17.8455 104.007 21.5427 100.782 21.5427C97.5569 21.5427 96.4196 17.9743 96.4196 14.5162C96.4196 11.0581 97.706 8.00469 100.782 8.00469ZM112.826 10.8374H112.863C115.79 15.5095 118.698 19.6481 121.663 23.8236H123.919V5.72383H121.439V18.6181H121.383C118.493 13.9644 115.566 9.86249 112.621 5.72383H110.365V23.8236H112.844V10.8374H112.826ZM128.99 18.894H134.452L135.869 23.8236H139.337L133.576 5.72383H130.984L124.72 23.8236H127.405L128.971 18.894H128.99ZM131.879 9.29228H131.935C132.662 12.0882 133.296 14.2771 133.986 16.6683H129.791C130.518 14.2955 131.245 12.0882 131.898 9.29228H131.879ZM149.441 21.3956H143.308V5.72383H140.231V23.8236H149.441V21.3956ZM55.889 44.5169C55.2364 44.848 54.5466 44.9584 53.7263 44.9584C51.0603 44.9584 48.4689 42.42 48.4689 38.1342C48.4689 33.8483 50.7248 31.4203 54.0246 31.4203C55.2178 31.4203 56.5042 31.8618 57.3431 32.3768L58.3499 30.2247C57.3245 29.4522 55.628 28.8268 53.9501 28.8268C48.5248 28.8268 45.1504 33.1494 45.1504 38.079C45.1504 43.4133 48.5062 47.5335 53.8382 47.5335C55.5907 47.5335 57.3245 47.0737 58.9838 46.4299V38.9619H55.8703V44.5169H55.889ZM64.9123 38.9619H69.9833V36.5339H64.9123V31.5675H70.0766V29.1395H61.7989V47.2392H71.0087V44.8112H64.9123V38.9619ZM79.6592 28.8268C75.2408 28.8268 71.9782 32.8551 71.9782 37.9318C71.9782 43.3397 74.9238 47.5519 79.6592 47.5519C84.3946 47.5519 87.3403 43.3397 87.3403 37.9318C87.3403 32.8551 84.0777 28.8268 79.6592 28.8268ZM79.6592 44.9584C76.4339 44.9584 75.2967 41.3899 75.2967 37.9318C75.2967 34.4737 76.5831 31.4203 79.6592 31.4203C82.7354 31.4203 84.0218 34.6025 84.0218 37.9318C84.0218 41.2612 82.8845 44.9584 79.6592 44.9584ZM99.1229 44.5169C98.4704 44.848 97.7806 44.9584 96.9416 44.9584C94.2756 44.9584 91.6842 42.42 91.6842 38.1342C91.6842 33.8483 93.94 31.4203 97.2399 31.4203C98.4331 31.4203 99.7195 31.8618 100.54 32.3768L101.547 30.2247C100.521 29.4522 98.8246 28.8268 97.1467 28.8268C91.7215 28.8268 88.3657 33.1494 88.3657 38.079C88.3657 43.4133 91.7215 47.5335 97.0535 47.5335C98.806 47.5335 100.54 47.0737 102.199 46.4299V38.9619H99.1043V44.5169H99.1229ZM115.529 34.3634C115.529 30.8501 113.385 29.1395 109.917 29.1395H105.089V47.2392H108.184V40.415H109.582L112.509 47.2392H116.051L112.416 39.7344C114.41 38.6676 115.548 36.5339 115.548 34.3634H115.529ZM109.47 38.079C109.153 38.0974 108.426 38.1342 108.184 38.1526V31.5675H109.563C111.39 31.5675 112.434 32.6159 112.434 34.4921C112.434 36.9202 110.961 38.0054 109.489 38.079H109.47ZM122.353 29.1395L116.088 47.2392H118.773L120.358 42.2912H125.82L127.237 47.2392H130.705L124.944 29.1395H122.353ZM121.159 40.0839C121.886 37.7111 122.614 35.5038 123.247 32.7079H123.303C124.03 35.5038 124.664 37.6927 125.354 40.0839H121.159ZM153.412 36.0924H146.98V29.1395H143.904V47.2392H146.98V38.5204H153.412V47.2392H156.507V29.1947H153.412V36.0924ZM159.471 47.2392H162.548V29.1395H159.471V47.2392ZM173.417 44.9584C170.415 44.9584 167.88 42.42 167.88 38.1342C167.88 33.8483 170.191 31.4203 173.342 31.4203C174.535 31.4203 175.766 31.9538 176.53 32.432L177.518 30.2431C176.456 29.5257 174.964 28.8452 173.361 28.8452C167.954 28.8452 164.617 33.1678 164.617 38.0974C164.617 43.4317 167.973 47.5519 173.305 47.5519C174.796 47.5519 176.456 46.9633 177.388 46.3195L176.53 44.0754C175.728 44.5905 174.61 44.9768 173.417 44.9768V44.9584ZM136.521 29.1395H131.693V47.2392H134.788V40.415H136.186C139.877 40.415 142.133 37.4168 142.133 34.3634C142.133 30.8501 139.989 29.1395 136.521 29.1395ZM136.074 38.079C135.757 38.0974 135.011 38.1342 134.788 38.1526V31.5675H136.186C137.994 31.5675 139.038 32.6343 139.038 34.4921C139.038 36.9202 137.565 38.0054 136.093 38.079H136.074Z" fill="black"/>
</g>
<defs>
<clipPath id="clip0_1_763">
<rect width="177" height="52" fill="white" transform="translate(0.5 0.5)"/>
</clipPath>
</defs>
</svg>
