<svg width="79" height="65" viewBox="0 0 79 65" fill="none" xmlns="http://www.w3.org/2000/svg">
<g clip-path="url(#clip0_1_766)">
<path d="M13.9517 44.2572C13.751 44.4953 13.638 44.746 13.638 45.2098V57.6939H13.5753C13.5753 57.6939 6.72394 45.5232 6.39768 44.9466C6.15927 44.5455 5.9083 44.2823 5.55695 44.0566C5.2056 43.8561 4.85425 43.7433 4.16409 43.7433H1.90541C1.37838 43.7433 1.06467 43.9188 0.813707 44.2071C0.612934 44.4452 0.5 44.6959 0.5 45.1597V62.8455C0.5 63.3093 0.612934 63.5474 0.813707 63.7981C1.05212 64.0613 1.36583 64.2368 1.90541 64.2368H3.18533C3.71236 64.2368 4.02606 64.0613 4.27703 63.7981C4.4778 63.56 4.59073 63.3093 4.59073 62.8455V50.0731H4.65347C4.65347 50.0731 11.7432 62.645 12.0319 63.1087C12.4334 63.7731 13.0985 64.2619 14.0647 64.2619H16.2606C16.7876 64.2619 17.1014 64.0864 17.3523 63.8232C17.5531 63.585 17.666 63.3344 17.666 62.8706V46.9145H46.4015C46.6902 46.9145 46.916 46.8267 47.0666 46.6888C47.2423 46.5384 47.3301 46.3128 47.3301 45.9869V44.7711C47.3301 44.4452 47.2423 44.2196 47.0666 44.0692C46.916 43.9313 46.6902 43.8436 46.4015 43.8436H15.0309C14.5039 43.7934 14.1651 43.9814 13.9392 44.2697M26.4874 48.9701C21.7191 48.9701 19.0212 52.6928 19.0212 56.6285C19.0212 60.815 21.9073 64.5126 26.5125 64.5126C28.8214 64.5126 31.0801 63.6477 32.36 62.1185C32.9122 61.4542 33.3764 60.5517 33.3764 59.9752C33.3764 59.7746 33.3263 59.6242 33.2259 59.4863C33.1129 59.3485 32.9624 59.2607 32.6737 59.2607H30.4527C30.0135 59.2607 29.6998 59.4111 29.499 59.7496C28.8591 60.7022 27.9305 61.191 26.5251 61.191C24.4672 61.191 23.1371 59.6242 23.0241 57.9195H32.5985C33.0251 57.9195 33.3263 57.8318 33.527 57.6062C33.7654 57.3806 33.8784 57.0798 33.8784 56.4781C33.8784 54.6857 33.3263 52.8056 32.1342 51.3892C30.917 49.9477 29.0724 48.9826 26.4874 48.9826M41.2442 48.9701C37.4797 48.9701 34.9952 50.7625 34.9952 53.6203C34.9952 54.6356 35.3716 55.4628 35.9739 56.1021C36.6766 56.8541 37.6805 57.3806 39.1361 57.7566L42.2857 58.5588C43.1515 58.7844 43.9295 59.0476 43.9295 59.7997C43.9295 60.9779 42.6873 61.3665 41.3571 61.3665C40.7172 61.3665 40.027 61.2286 39.5 60.9654C39.1236 60.7648 38.7973 60.5016 38.5463 60.1256C38.3456 59.8122 38.2828 59.5741 37.944 59.3986C37.7432 59.2858 37.5174 59.2607 37.1911 59.2607H35.5097C35.1332 59.2607 34.9575 59.3735 34.8446 59.5239C34.7066 59.6743 34.694 59.9 34.694 60.1256C34.694 60.6771 34.8948 61.3665 35.334 61.9806C36.3755 63.372 38.5714 64.5 41.3571 64.5C44.1429 64.5 47.9199 63.3469 47.9199 59.6743C47.9199 58.7217 47.6564 57.9321 47.1419 57.2678C46.5019 56.428 45.5734 55.8514 43.9923 55.4503L40.8678 54.6481C39.5878 54.3222 38.9604 54.0966 38.9604 53.2944C38.9604 52.4922 39.6506 51.9031 41.2442 51.9031C42.1728 51.9031 43.0386 52.1036 43.5907 52.6802C44.055 53.1691 43.9672 53.4072 44.3185 53.6078C44.5444 53.7206 44.7828 53.7206 45.1593 53.7206H46.7153C46.9537 53.7206 47.1419 53.6704 47.2674 53.52C47.3803 53.3821 47.443 53.2067 47.443 52.8808C47.443 52.1789 46.9788 51.2388 46.1631 50.5369C45.0714 49.6093 43.3272 48.9701 41.2442 48.9701ZM49.8147 49.4965H49.0367C48.7481 49.4965 48.5222 49.5843 48.3716 49.7221C48.1959 49.8725 48.1081 50.0982 48.1081 50.4241V51.3767C48.1081 51.7025 48.1959 51.9282 48.3716 52.0786C48.5222 52.2165 48.7481 52.3042 49.0367 52.3042H49.8147V59.1604C49.8147 60.9027 50.3041 62.0183 51.1824 62.8957C51.9981 63.7104 53.0898 64.2243 54.9469 64.2243H56.1264C56.4151 64.2243 56.6409 64.1365 56.7915 63.9987C56.9672 63.8483 57.0801 63.6226 57.0801 63.2967V62.106C57.0801 61.7801 56.9672 61.5545 56.7915 61.4041C56.6409 61.2662 56.4151 61.1785 56.1264 61.1785H55.9759C55.223 61.1785 54.7336 60.9779 54.3822 60.652C53.9556 60.276 53.7674 59.6743 53.7674 58.9098V52.3418H56.2645C56.5531 52.3418 56.779 52.2541 56.9295 52.1162C57.1052 51.9658 57.193 51.7401 57.193 51.4143V50.4617C57.193 50.1358 57.1052 49.9101 56.9295 49.7597C56.779 49.6219 56.5531 49.5341 56.2645 49.5341H53.7799V45.0594C53.7799 44.7084 53.667 44.4452 53.5164 44.2447C53.3156 44.0065 53.027 43.8436 52.5878 43.8436H51.0319C50.6052 43.8436 50.3291 43.994 50.1033 44.2447C49.9527 44.4452 49.8398 44.7084 49.8398 45.0594V49.509H49.8147V49.4965ZM58.2346 62.9959C58.2346 63.3469 58.3475 63.6101 58.4981 63.8107C58.6988 64.0488 58.9874 64.2118 59.4266 64.2118H61.0705C61.4971 64.2118 61.7732 64.0613 61.999 63.8107C62.1496 63.6101 62.2625 63.3469 62.2625 62.9959V45.0092C62.2625 44.6583 62.1496 44.3951 61.999 44.1945C61.7983 43.9564 61.5097 43.7934 61.0705 43.7934H59.4266C59 43.7934 58.7239 43.9438 58.4981 44.1945C58.3475 44.3951 58.2346 44.6583 58.2346 45.0092V62.9959ZM23.0492 54.9865C23.2249 53.3069 24.5174 52.0159 26.4874 52.0159C28.4575 52.0159 29.75 53.2819 29.9257 54.9865H23.0618H23.0492ZM77.1573 46.8643C77.4459 46.8643 77.6718 46.7766 77.8224 46.6387C77.9981 46.4883 78.0859 46.2627 78.0859 45.9368V44.6583C78.0859 44.1694 77.9981 43.9062 77.8224 43.7308C77.6718 43.5803 77.4208 43.4675 77.1573 43.4675C76.9315 43.4675 76.7181 43.4926 76.3417 43.5302L65.3745 44.6207C65.0608 44.6458 64.9102 44.7586 64.7973 44.8588C64.6593 44.9967 64.6216 45.1722 64.6216 45.4103V46.1123C64.6216 46.3755 64.6718 46.5134 64.7722 46.6262C64.9102 46.764 65.0859 46.8267 65.3243 46.8267H77.1573V46.8769V46.8643ZM71.084 48.9701C66.3156 48.9701 63.6178 52.6928 63.6178 56.6285C63.6178 60.815 66.5039 64.5126 71.1091 64.5126C73.418 64.5126 75.6766 63.6477 76.9566 62.1185C77.5087 61.4542 77.973 60.5517 77.973 59.9752C77.973 59.7746 77.9228 59.6242 77.8224 59.4863C77.7095 59.3485 77.5589 59.2607 77.2703 59.2607H75.0492C74.61 59.2607 74.2963 59.4111 74.0956 59.7496C73.4556 60.7022 72.527 61.191 71.1216 61.191C69.0637 61.191 67.7336 59.6242 67.6207 57.9195H77.2075C77.6342 57.9195 77.9353 57.8318 78.1361 57.6062C78.3745 57.3806 78.4874 57.0798 78.4874 56.4781C78.4874 54.6857 77.9353 52.8056 76.7432 51.3892C75.5512 49.9477 73.6815 48.9826 71.0714 48.9826M67.6708 54.9865C67.8465 53.3069 69.139 52.0159 71.1091 52.0159C73.0791 52.0159 74.3716 53.2819 74.5473 54.9865H67.6834H67.6708Z" fill="#005697"/>
<path d="M57.0439 13.473C53.4802 8.15844 50.3557 6.36604 49.4648 5.52624C48.486 4.59871 47.7582 3.55836 47.2939 3.04446C46.2524 1.91637 44.8972 0.5 42.6887 0.5C40.4802 0.5 39.125 1.8913 38.6733 3.09459C38.5352 3.44555 38.4348 3.87172 38.347 3.99706C38.1211 4.34802 37.1926 5.96494 36.791 6.60419H38.5603L37.6945 8.22111C38.6858 7.99549 39.4262 7.84508 40.3798 7.84508C41.2206 7.84508 41.848 8.04563 42.1115 8.57207C42.6009 9.56228 42.6009 12.583 43.4667 14.8392C44.2447 16.9575 46.1646 19.0382 48.3229 20.6551C48.348 20.6802 48.3856 20.6802 48.4107 20.6802C48.5236 20.6802 48.5864 20.6175 48.5864 20.5298C48.5864 20.4671 48.5613 20.442 48.5236 20.3919C46.7292 18.5995 45.2611 16.6065 44.4706 14.413C43.6926 12.2948 43.8306 9.29906 43.1404 7.97043C42.7012 7.08049 41.7476 6.86741 40.8567 6.86741C40.1539 6.86741 39.4889 7.00529 39.1752 7.09303L39.9532 5.78946H38.6482C38.9368 5.30063 39.2003 4.86193 39.3509 4.59871C39.4889 4.37309 39.5265 4.0848 39.6771 3.69624C40.1665 2.43028 41.2707 1.66569 42.7138 1.66569C44.5082 1.66569 45.5748 2.81884 46.6163 3.98453C47.1057 4.51097 47.8837 5.63905 48.7872 6.46631C49.402 7.04289 50.6067 7.68214 52.4262 9.56228C53.4928 10.6528 54.7099 12.0566 55.9899 13.9618C60.6202 20.7052 63.6568 26.6841 65.3383 31.3343L65.3132 31.3594C60.457 28.0629 56.2534 24.9669 52.8653 21.1314C50.4686 18.4115 48.3731 15.2403 46.5536 11.2168C46.4155 10.9536 46.3277 10.7029 46.2022 10.4397C46.152 10.3269 46.1144 10.3018 46.0265 10.3018C45.9387 10.3018 45.876 10.3645 45.876 10.4522C45.876 10.565 45.9261 10.7781 46.0265 11.2544C47.0053 15.4158 49.6781 19.151 52.5391 22.272C55.4001 25.368 58.6124 28.0253 61.2727 29.9555L63.3306 35.8592C63.3808 35.9971 63.4435 36.1475 63.4435 36.2979C63.4435 36.4107 63.4184 36.4984 63.3557 36.536C63.2929 36.5987 63.2177 36.6238 63.042 36.6238H62.4271C62.1636 36.6238 62.0507 36.5736 61.9628 36.511C61.875 36.4483 61.8123 36.3104 61.737 36.1851C61.5613 35.6336 60.4696 32.5376 60.2563 31.8858C60.2061 31.773 60.1433 31.7354 60.0806 31.7354C59.9928 31.7354 59.93 31.7981 59.93 31.8858C59.93 31.9485 59.9551 32.0362 59.9928 32.312C60.2814 33.7284 60.5951 35.3202 60.7206 35.9219C60.7833 36.1851 60.8586 36.4483 60.8586 36.6488C60.8586 36.8243 60.8084 36.9121 60.6829 37.075L60.0429 37.7143C59.8924 37.8647 59.8045 37.9148 59.6916 37.9148C59.541 37.9148 59.403 37.802 59.3653 37.5388C58.6375 34.1545 57.5207 29.943 57.2572 28.7773C57.1945 28.5141 57.1443 28.3762 56.9937 28.3762C56.8557 28.3762 56.818 28.464 56.818 28.5768C56.818 28.6645 56.8431 28.7773 56.8431 28.84C57.0188 30.0307 57.709 34.4428 58.4619 38.4412C58.5999 39.1306 58.8634 39.5067 59.4406 39.5067C59.7041 39.5067 59.9677 39.3938 60.2186 39.1808C60.6202 38.7797 60.7331 38.6919 61.1974 38.2282C61.5236 37.9023 61.7495 37.7644 62.3267 37.7644H63.7447C64.0709 37.7644 64.2592 37.6767 64.4348 37.5262C64.5854 37.3758 64.6733 37.1753 64.6733 36.887C64.6733 36.5987 64.6105 36.3606 64.4976 36.0472C64.1462 35.0695 62.9667 31.773 62.6153 30.8455L62.6404 30.8204C63.8325 31.7229 65.5893 32.876 66.3422 32.876C66.5806 32.876 66.7186 32.7632 66.7186 32.3872C66.7186 30.6575 63.7949 23.4252 57.1067 13.473" fill="#005697"/>
<path d="M24.1795 2.35507C24.3803 1.91637 24.8195 1.60302 25.3591 1.60302C26.0618 1.60302 26.639 2.15452 26.639 2.88151C26.639 3.30768 26.4382 3.68371 26.1245 3.92186C26.1873 4.16001 26.2375 4.38562 26.2375 4.61124C26.2375 5.41343 25.7481 5.97748 24.8822 6.26577C24.7693 6.7546 24.556 7.1933 24.2172 7.53173C23.64 8.08324 23.0627 8.08323 23.0627 8.30885C23.0627 8.44673 23.1506 8.5094 23.389 8.5094C24.4556 8.5094 25.4971 7.90775 25.6226 6.94262C26.639 6.59166 27.2413 5.57638 27.2413 4.74912C27.2413 4.5235 27.2162 4.34802 27.1284 4.19761C27.417 3.93439 27.7307 3.47062 27.7307 2.78124C27.7307 2.17959 27.4672 1.59048 27.028 1.13925C26.6265 0.738151 26.0492 0.5 25.4093 0.5C24.4556 0.5 23.8407 1.01391 23.4768 1.51528C22.4353 1.51528 21.0801 2.66843 21.0801 4.32295H20.8793C20.7915 3.74638 20.1892 3.37035 19.6873 3.33275C19.2857 2.14199 18.3822 1.10165 16.8765 1.10165C16.7008 1.10165 16.5 1.10165 16.3243 1.15178C15.8851 0.750685 15.3958 0.512534 14.7056 0.512534C13.4006 0.512534 12.334 1.55288 12.334 2.88151C12.334 3.69624 12.7104 4.27282 13.4257 4.76165V4.91206C13.4257 5.97748 14.5801 7.60693 16.2867 7.60693C16.2867 7.87015 16.6129 8.24618 16.9894 8.30885V8.44673H16.8514C14.5048 8.44673 13.501 9.57481 13.501 10.3269C12.7983 10.6152 12.3465 11.3923 12.3465 12.0942C12.3465 13.5106 13.388 14.5259 14.7558 14.5259C15.2201 14.5259 15.6844 14.3504 16.0232 14.0997C16.2616 14.1874 16.5753 14.2376 16.889 14.2376C17.5541 14.2376 18.2819 14.0119 18.7963 13.2474H19.0222C19.8629 13.2474 20.5907 12.6958 20.9672 11.9689C21.055 11.7934 21.1052 11.643 21.1052 11.5427C21.1052 11.4299 21.055 11.3421 20.9546 11.3421C20.8166 11.3421 20.8041 11.48 20.5531 11.6931C20.0261 12.1819 19.1979 12.3574 18.3571 12.3574C17.9305 12.9591 17.4537 13.2599 16.8514 13.2599C16.4247 13.2599 16.0734 13.1471 15.7471 12.9089C15.4585 13.2223 15.1322 13.3351 14.7934 13.3351C14.0405 13.3351 13.5135 12.8087 13.5135 12.0566C13.5135 11.5302 13.8649 11.0413 14.3292 10.8658C14.417 9.91324 15.4334 9.27399 16.7008 9.27399C16.8514 9.27399 17.027 9.27399 17.1902 9.29906C17.3909 8.9857 17.8301 8.65981 18.4952 8.59714C18.6332 8.57207 18.7336 8.57207 18.8089 8.53447C18.8716 8.48433 18.9218 8.42166 18.9218 8.33392C18.9218 8.27125 18.8967 8.19604 18.8089 8.13337C18.7461 8.08324 18.6332 8.0707 18.4952 8.04563C17.8929 7.93282 17.1651 7.5568 16.8137 6.65433C15.3707 6.65433 14.3041 5.50117 14.3041 4.19761V4.10987C13.8147 3.90932 13.501 3.47062 13.501 2.91911C13.501 2.2172 14.0531 1.64062 14.7809 1.64062C15.2075 1.64062 15.584 1.86624 15.8224 2.16706C16.0232 2.10439 16.249 2.10439 16.4624 2.10439C17.529 2.10439 18.6834 2.79377 18.8967 4.09734C20.2645 4.23521 20.6033 5.37583 20.6911 5.86467C20.7413 6.10282 20.779 6.32844 20.9295 6.32844C21.1052 6.32844 21.1303 6.12789 21.1931 5.88974C21.306 5.4009 21.4817 4.9998 21.833 4.69898C21.8581 3.48316 22.8118 2.39268 24.1419 2.39268" fill="#005697"/>
<path d="M26.9791 9.86293C26.5399 10.5022 26.2011 10.8155 25.1847 12.0314C23.8295 13.6232 23.1268 14.9142 21.9473 17.7846C22.148 17.7595 22.4116 17.7345 22.7253 17.7345H23.2146L23.3527 17.4211C24.0177 16.0047 24.9087 14.0995 26.1384 12.6205L26.565 12.1066C27.8449 10.6025 28.648 9.71252 29.1374 7.68197C29.3131 6.95498 29.4511 6.31573 29.9405 5.83943C30.3797 5.41326 30.9318 5.23778 31.4965 5.23778C31.9859 5.23778 32.3372 5.35059 32.8517 5.56367C33.316 5.76422 33.4917 5.80182 33.9811 5.80182C34.1567 5.80182 34.2697 5.80182 34.4077 5.77676L33.7426 6.67922L34.6461 7.31847C33.5168 7.64436 32.9019 8.75991 32.7011 9.26128C32.6509 9.37409 32.6384 9.43676 32.6384 9.49943C32.6384 9.56211 32.6886 9.64985 32.789 9.64985C32.927 9.64985 33.0148 9.56211 33.1654 9.36156C33.7175 8.69724 34.1567 8.23347 36.2021 7.59422L34.759 6.50374L35.8507 4.91189H34.8343C34.1944 4.91189 33.7426 4.91189 33.1905 4.64867C32.4125 4.29771 32.0361 4.13477 31.3459 4.13477C30.5052 4.13477 29.7523 4.42305 29.1249 4.99963C28.4222 5.66395 28.1963 6.55388 27.9328 7.49395C27.7822 8.19587 27.5312 9.02313 27.0042 9.80026" fill="#005697"/>
<path d="M29.1735 16.368C28.6214 17.095 27.8936 18.0727 27.3164 19.088C27.4921 19.1757 28.0944 19.5141 28.3077 19.6144C28.9728 18.6242 29.8762 17.3959 30.4786 16.4683C31.0307 15.6285 31.2566 15.2776 31.2817 14.1495C31.2817 13.9489 31.2817 13.7734 31.3068 13.598C31.3569 13.0214 31.5075 12.4197 32.0596 11.8682C32.4863 11.4421 33.051 11.2541 33.6533 11.2541C34.2556 11.2541 34.5568 11.4045 35.0461 11.4045C35.3975 11.4045 35.661 11.3167 35.8869 11.229L36.0625 11.1663L35.6234 12.2317L36.6649 12.6579C35.9998 13.0841 34.5568 14.8263 34.5568 16.9321C34.5568 17.6841 34.6697 18.3986 34.8454 19.0128C34.8705 19.0754 34.9081 19.1507 34.9959 19.1507C35.0838 19.1507 35.1465 19.088 35.1716 19.0002V18.7746C35.1967 18.1354 35.2344 17.1201 35.4979 16.2051C35.9245 14.6759 37.0915 13.2345 38.2459 12.5576L36.6021 11.8557L37.3048 10.126L36.5268 10.2764C36.0625 10.3641 35.7112 10.4519 35.3096 10.4519C35.0461 10.4519 34.7324 10.4017 34.3811 10.314C34.1176 10.2513 33.8039 10.1761 33.3898 10.1761C32.6369 10.1761 31.8212 10.4644 31.2691 10.9908C30.2527 11.9685 30.2025 13.0089 30.1398 13.9364C30.0519 15.1522 29.8261 15.4656 29.161 16.368" fill="#005697"/>
<path d="M53.7182 16.945C53.6555 16.8573 53.5802 16.8071 53.5175 16.8071C53.4045 16.8071 53.3418 16.8698 53.3418 16.9575C53.3418 17.0954 53.4296 17.2458 53.668 17.6595C54.3958 18.9004 55.2868 20.1412 56.4161 21.3069C57.6082 22.5729 59.0262 23.7637 60.5194 24.8291L60.9837 25.155C61.0464 25.2051 61.0966 25.2176 61.1594 25.2176C61.2472 25.2176 61.3099 25.1299 61.3099 25.0421C61.3099 24.992 61.2848 24.9544 61.2472 24.8917C59.8543 23.6258 58.3486 22.0841 56.9431 20.5799C55.8389 19.4268 54.7096 18.1859 53.7057 16.9325" fill="#005697"/>
<path d="M22.9251 12.6077C23.0631 12.3696 23.5023 11.793 23.6779 11.6175C22.9501 10.1385 21.733 8.69702 21.2185 8.14551L20.7793 8.57167C21.2687 9.29866 22.1345 10.7401 22.9251 12.6202" fill="#005697"/>
<path d="M15.9235 3.9718C15.8356 3.90913 15.8105 3.83393 15.8105 3.79632C15.8105 3.73365 15.8607 3.65845 15.9611 3.65845C16.0113 3.65845 16.0239 3.65845 16.0992 3.68352C16.8019 3.9718 17.4042 4.2977 17.9438 4.72386C18.3829 5.07482 18.8347 5.50099 19.2739 5.98982L18.8723 6.45359C18.3578 6.02742 16.7517 4.68626 15.9235 3.9718Z" fill="#005697"/>
<path d="M22.7 7.18082L22.1855 6.86747C22.5118 6.06527 22.9384 5.33828 23.4278 4.81184C23.7792 4.41075 24.0929 4.10993 24.4693 3.79657C24.5572 3.7339 24.6074 3.65869 24.6952 3.65869C24.783 3.65869 24.8458 3.72136 24.8458 3.8091C24.8458 3.85924 24.8207 3.89684 24.783 3.94698C24.1807 4.84945 23.0514 6.64185 22.7 7.18082Z" fill="#005697"/>
<path d="M16.2113 11.6052C16.0732 11.6554 16.0356 11.6679 15.9728 11.6679C15.8599 11.6679 15.8223 11.5802 15.8223 11.5175C15.8223 11.4548 15.8474 11.4047 15.9101 11.3671C17.0896 10.4646 18.1311 10.0886 19.5491 9.83789L19.7248 10.4145L16.2238 11.6052H16.2113Z" fill="#005697"/>
<path d="M40.7559 4.19756C40.7559 3.87166 40.9315 3.27002 41.5589 3.27002C41.7848 3.27002 41.9856 3.32016 42.1362 3.4079C42.362 3.5207 42.5126 3.67112 42.5126 3.83406C42.5126 4.00954 42.3369 4.18502 42.086 4.38557C41.8225 4.61119 41.4711 4.81174 41.195 4.81174C40.8437 4.81174 40.7559 4.48584 40.7559 4.21009" fill="#005697"/>
<path d="M31.0575 6.9801C31.0575 6.55393 31.2959 6.11523 31.7853 6.11523C32.0111 6.11523 32.2496 6.20297 32.4252 6.37845C32.5382 6.46619 32.5758 6.579 32.5758 6.69181C32.5758 6.91743 32.3499 7.13051 32.0864 7.29346C31.8857 7.40626 31.6598 7.494 31.4841 7.494C31.1704 7.494 31.0449 7.31852 31.0449 6.9801" fill="#005697"/>
<path d="M33.291 12.8963C33.291 12.8085 33.291 12.6707 33.3412 12.5704C33.404 12.3322 33.5796 12.0815 33.9812 12.0815C34.1568 12.0815 34.3576 12.1317 34.5333 12.232C34.6713 12.3197 34.7341 12.4576 34.7341 12.5829C34.7341 13.0091 34.0439 13.4728 33.6926 13.4728C33.4541 13.4728 33.291 13.2347 33.291 12.8963Z" fill="#005697"/>
<path d="M29.5251 24.9545C28.2452 24.9545 27.668 24.3403 27.668 23.5631C27.668 22.2094 30.0647 20.8808 32.1853 20.041L32.7375 20.7429C31.4074 21.2694 28.7471 22.3975 28.7471 23.3751C28.7471 23.7261 28.9479 23.9768 29.7384 23.9768C31.1313 23.9768 32.6371 23.2874 34.0425 22.6231C34.1554 22.5729 34.2684 22.5353 34.3938 22.5353C34.5695 22.5353 34.6824 22.598 34.8205 22.7735L35.0463 23.0868C33.4527 23.9893 31.4074 24.9419 29.5251 24.9419" fill="#005697"/>
<path d="M33.0893 25.33C31.822 26.0319 30.5169 26.5082 29.3625 26.5082C28.0826 26.5082 26.9281 25.9567 25.9745 24.5153C25.5729 23.9011 25.2718 23.149 24.8702 22.4596C24.4059 21.6574 23.9166 21.2188 23.0256 21.2188C22.2225 21.2188 21.4571 21.5446 20.6289 21.9081L20.6791 22.0836C20.7418 22.3719 20.8548 22.5975 21.1434 22.5975C21.2814 22.5975 21.3818 22.5348 21.4571 22.5348C21.9214 22.3844 22.2602 22.2716 22.7245 22.2716C23.4272 22.2716 23.7911 22.6978 24.2805 23.7381L24.4561 24.1142C23.9667 24.2896 22.7998 24.3774 21.9088 24.3774H21.4822L21.5449 24.8036C21.57 24.979 21.6328 25.1169 21.7833 25.1796C21.959 25.2673 22.21 25.2673 22.6241 25.2673C23.7158 25.2673 24.5063 25.1294 24.9706 25.0292C26.1501 26.7714 27.7563 27.4357 29.3374 27.4357C30.6675 27.4357 32.0227 26.9469 33.3027 26.245L33.0768 25.3551L33.0893 25.33Z" fill="#005697"/>
<path d="M34.3704 25.7437L34.1445 24.8537C36.1146 23.7883 37.909 22.9485 40.7951 22.6602C40.8579 23.7633 40.77 25.142 41.5982 25.142C42.3511 25.142 43.9698 23.2118 45.8521 20.8052C46.0277 20.9556 46.2913 21.1311 46.5548 21.3316L46.0654 21.9458C44.2208 24.2897 42.6774 26.3077 41.3849 26.3077C40.1928 26.3077 39.7411 24.8913 39.7285 23.851C37.8839 24.0516 36.1648 24.6657 34.3704 25.7311" fill="#005697"/>
<path d="M59.6918 6.56643C58.9389 6.56643 58.7382 6.14026 58.7382 5.57622C58.7382 4.38546 59.4911 2.63067 59.9804 1.66553H58.826C58.2237 2.84375 55.8521 6.57896 54.5721 8.13321L55.2999 8.93541C55.9901 8.15828 56.743 6.87978 57.5586 5.58875H57.7092V5.81437C57.7092 6.90485 58.2613 7.69451 59.6416 7.69451C60.4824 7.69451 61.8125 7.26835 63.0548 6.85472C64.0963 6.50376 65.0248 6.1528 65.5142 6.01492V4.86177C64.9872 5.01218 63.8955 5.43834 62.7662 5.83944C61.549 6.21547 60.3694 6.5915 59.6918 6.5915" fill="#005697"/>
<path d="M62.2634 10.0386C63.4179 9.54981 65.4758 8.73508 66.6553 8.29639V7.11816C64.2586 8.0081 60.0926 9.72529 57.2441 11.2795C57.3069 11.3673 57.8214 12.0817 57.8841 12.1695C59.0762 11.6806 60.1679 11.3547 61.1467 11.3547C62.5144 11.3547 63.6312 11.3547 65.5134 10.916V10.0261C64.4468 10.2267 63.3426 10.4523 62.6148 10.4523C62.1882 10.4523 62.0627 10.3896 62.0627 10.2517C62.0627 10.164 62.1129 10.1139 62.2885 10.0512" fill="#005697"/>
<path d="M37.2812 16.2804H42.1751L41.8237 15.4155H37.7455L37.2812 16.2804Z" fill="#005697"/>
<path d="M20.127 20.655C20.6415 20.655 21.0556 20.4796 21.4572 20.3291C21.8336 20.1787 22.2352 20.0158 22.7371 20.0158C23.9543 20.0158 25.4852 20.6174 26.8153 21.1689C26.878 21.194 26.9658 21.2191 27.0537 21.2191C27.2796 21.2191 27.4301 21.1313 27.5431 20.9308L27.7187 20.6174C26.2506 19.7776 23.9041 18.8752 22.712 18.8752C22.1599 18.8752 21.7583 19.0131 21.3568 19.1635C20.9301 19.3389 20.5537 19.5144 20.1647 19.5144C19.1859 19.5144 16.7139 18.5618 16.7139 17.6343C16.7139 16.5438 20.6541 16.1302 21.0807 16.1302L21.4823 15.2402C18.6213 15.2402 15.2081 16.2304 15.2081 17.5591C15.2081 17.9351 15.434 18.1357 15.434 18.4866C15.434 18.9754 15.2081 19.2888 15.2081 19.8403C15.2081 20.1913 15.434 20.6425 15.6724 21.0311C15.9359 21.4572 16.2496 21.7205 16.2496 22.0463C16.2496 22.3096 16.074 22.5979 16.074 23.2246C16.074 24.5031 16.8018 25.3053 18.2448 26.8344L18.5334 27.1478C17.3413 27.6116 15.1454 28.5642 14.6184 28.7898C12.824 29.5418 12.3848 30.4443 12.3848 31.8857C12.3848 32.4373 12.3848 33.0765 12.435 33.628H12.7863C13.489 33.628 13.5894 33.2018 13.5894 32.7882V31.8607C13.5894 31.0585 13.6396 30.3566 14.9195 29.78C15.434 29.5544 17.9813 28.514 19.8635 27.7244C20.4157 27.4862 20.9301 27.2857 21.5074 27.2857C22.1473 27.2857 22.8751 27.5489 23.8162 28.1004C24.5942 28.5642 25.4099 29.1909 26.0498 29.8928L26.8655 29.2786C26.1628 28.4639 25.2091 27.7244 24.2303 27.1603C23.2516 26.5838 22.3857 26.2579 21.683 26.2579C21.3693 26.2579 21.1058 26.3205 20.8799 26.3707C20.6164 26.4333 20.3906 26.5085 20.0769 26.5085C19.7255 26.5085 19.4369 26.4208 18.9852 25.932C18.8346 25.7565 17.7931 24.5783 17.5672 24.2273C17.4543 24.0769 17.2786 23.7385 17.2786 23.3624C17.2786 23.212 17.3037 23.0115 17.4166 22.836C18.3075 23.5254 19.4118 23.939 20.7419 24.102L20.5662 23.1995C18.6338 22.6856 16.601 21.006 16.601 19.903C16.601 19.6774 16.6637 19.5019 16.739 19.3013C17.4417 19.9657 19.1985 20.6926 20.1521 20.6926" fill="#005697"/>
<path d="M33.8906 20.8179C35.0827 19.9781 36.3501 19.8653 37.3414 19.8653C37.9437 19.8653 38.6464 19.953 39.3993 20.0408C40.0016 20.1034 40.5538 20.1786 41.1937 20.1786C42.4987 20.1786 43.8288 19.6898 44.4061 19.4517C44.5566 19.6522 44.8453 19.9154 45.0711 20.116C44.7825 20.2915 43.0383 21.2441 41.2439 21.2441C40.4408 21.2441 39.6879 21.1563 39.048 21.0686C38.4707 21.0059 37.8559 20.9307 37.2536 20.9307C36.5885 20.9307 35.2584 21.1313 34.4427 21.5073L33.8906 20.8179Z" fill="#005697"/>
<path d="M51.6724 24.2398C50.2293 27.2731 48.0585 29.4666 45.8249 30.72C44.7583 31.3217 43.8046 31.7103 41.7467 31.7103H37.267C35.6733 31.7103 34.6695 31.9108 33.8789 32.1364C33.0382 32.362 32.5112 32.5751 31.6454 32.5751C30.378 32.5751 29.211 31.9609 28.6589 31.3593L29.7255 30.5195L29.1984 29.8176C28.8847 30.0432 25.1454 32.8007 24.3674 33.4275L24.3172 33.4024C24.3423 33.2018 24.3423 33.0514 24.3423 32.8759C24.3423 30.7702 23.3635 30.2688 21.8828 29.6672L20.8915 30.2688C22.9243 30.9582 23.4388 31.4846 23.4388 33.0138C23.4388 34.2046 23.0121 34.6934 22.3722 35.0444C21.7322 35.4204 20.9291 35.5959 20.2515 35.5959C19.9629 35.5959 19.8249 35.6586 19.7245 35.7463C19.6116 35.8591 19.5488 36.0346 19.5488 36.2727V36.5986H19.7872C21.0672 36.5986 22.2467 36.3981 23.5517 35.3828L27.7805 32.0863C28.3828 32.7757 29.9011 33.7283 31.6955 33.7283C32.712 33.7283 33.3519 33.4901 34.3056 33.2394C35.0334 33.064 35.7486 32.8885 37.2921 32.8885H41.7844C44.0932 32.8885 45.1975 32.3996 46.4147 31.7103C49.0749 30.2312 51.3336 27.6993 52.6135 24.8039C52.2371 24.6033 51.9233 24.4028 51.6598 24.2273" fill="#005697"/>
<path d="M44.4571 27.8246C45.6116 25.9696 46.6531 24.3276 49.1753 22.9739C48.9118 22.8235 48.5353 22.5477 48.3345 22.4224C47.3558 22.8485 46.3645 23.7009 45.5488 24.5908C43.6415 26.5837 43.8046 27.7369 41.7843 28.5015C41.2699 28.702 40.655 28.9026 39.8519 29.0781C39.3876 27.6366 38.2081 26.1952 36.9658 26.1952C36.1 26.1952 35.1087 26.6339 33.9542 27.1478C32.599 27.7494 31.3567 28.4137 30.9803 28.677L31.5073 29.3789C31.9089 29.1533 33.0633 28.5767 34.2303 28.1004C35.2216 27.6742 36.1376 27.3233 36.7525 27.3233C37.7312 27.3233 38.3712 28.4513 38.7226 29.3413C37.4426 29.6546 35.3094 29.7173 34.6695 29.7173C34.3809 29.7173 34.2679 29.7674 34.155 29.8552C34.0672 29.9429 33.9793 30.0933 33.9291 30.2939L33.8664 30.6198H34.5565C38.1453 30.6198 41.5083 30.0683 43.6791 28.7396C43.9928 28.8274 44.2563 28.8775 44.5826 28.8775C45.8249 28.8775 47.1048 28.1881 47.9079 27.574C48.1965 27.3483 48.2592 27.1478 48.2592 26.9347C48.2592 26.8219 48.2592 26.7342 48.2341 26.6464L48.184 26.2704C47.0295 27.1729 46.0758 27.8622 44.8838 27.8622C44.7081 27.8873 44.5575 27.8622 44.4195 27.8121" fill="#005697"/>
</g>
<defs>
<clipPath id="clip0_1_766">
<rect width="78" height="64" fill="white" transform="translate(0.5 0.5)"/>
</clipPath>
</defs>
</svg>
