<svg width="86" height="61" viewBox="0 0 86 61" fill="none" xmlns="http://www.w3.org/2000/svg">
<g clip-path="url(#clip0_1_818)">
<path d="M35.8739 7.03863C38.6216 4.16422 42.4351 2.37743 46.6594 2.37743C52.2704 2.37743 57.1624 5.53669 59.7689 10.2108C62.0287 9.18796 64.5453 8.61826 67.1775 8.61826C77.2953 8.61826 85.5 16.9696 85.5 27.2631C85.5 37.5565 77.2953 45.9079 67.1775 45.9079C65.9449 45.9079 64.7379 45.7784 63.5695 45.5453C61.2712 49.6757 56.8927 52.4594 51.8724 52.4594C49.7666 52.4594 47.7764 51.9674 46.0174 51.0999C43.6934 56.6157 38.2621 60.4871 31.9449 60.4871C25.6276 60.4871 19.7598 56.292 17.6027 50.4007C16.6654 50.6079 15.6896 50.7115 14.6881 50.7115C6.85574 50.7115 0.5 44.2376 0.5 36.2488C0.5 30.9014 3.35045 26.2272 7.60045 23.7283C6.72734 21.7085 6.23943 19.4685 6.23943 17.112C6.23943 7.94497 13.6224 0.5 22.7515 0.5C28.1057 0.5 32.8565 3.06366 35.8739 7.03863Z" fill="#139FDA"/>
<path d="M12.8143 31.6134C12.763 31.7558 12.84 31.7817 12.8529 31.8076C13.0069 31.9241 13.1739 32.0148 13.3408 32.1054C14.2139 32.5715 15.0228 32.701 15.8831 32.701C17.6293 32.701 18.7078 31.7688 18.7078 30.2539V30.228C18.7078 28.8296 17.4881 28.3246 16.3453 27.9621L16.1912 27.9103C15.331 27.6255 14.5862 27.3795 14.5862 26.8098V26.7839C14.5862 26.2918 15.0228 25.9293 15.7033 25.9293C16.448 25.9293 17.3468 26.1753 17.9246 26.499C17.9246 26.499 18.0915 26.6026 18.1557 26.4472C18.1942 26.3566 18.4767 25.5668 18.5152 25.4891C18.5538 25.3984 18.4896 25.3337 18.4254 25.2949C17.7705 24.8935 16.8589 24.6216 15.9216 24.6216H15.7418C14.1497 24.6216 13.0326 25.5927 13.0326 26.991V27.0169C13.0326 28.48 14.2652 28.9591 15.408 29.2957L15.5877 29.3475C16.4223 29.6065 17.1542 29.8266 17.1542 30.4222V30.4481C17.1542 30.9919 16.6791 31.3933 15.9216 31.3933C15.6263 31.3933 14.689 31.3933 13.6746 30.7459C13.5462 30.6682 13.482 30.6164 13.3921 30.5646C13.3408 30.5387 13.2124 30.474 13.161 30.6423L12.8143 31.6004V31.6134Z" fill="white"/>
<path d="M38.3397 31.6134C38.2884 31.7558 38.3654 31.7817 38.3782 31.8076C38.5323 31.9241 38.6992 32.0148 38.8662 32.1054C39.7393 32.5715 40.5482 32.701 41.4085 32.701C43.1547 32.701 44.2332 31.7688 44.2332 30.2539V30.228C44.2332 28.8296 43.0134 28.3246 41.8707 27.9621L41.7166 27.9103C40.8563 27.6255 40.1116 27.3795 40.1116 26.8098V26.7839C40.1116 26.2918 40.5482 25.9293 41.2287 25.9293C41.9734 25.9293 42.8722 26.1753 43.45 26.499C43.45 26.499 43.6169 26.6026 43.6811 26.4472C43.7196 26.3566 44.0021 25.5668 44.0406 25.4891C44.0792 25.3984 44.015 25.3337 43.9508 25.2949C43.2959 24.8935 42.3843 24.6216 41.447 24.6216H41.2672C39.6751 24.6216 38.558 25.5927 38.558 26.991V27.0169C38.558 28.48 39.7906 28.9591 40.9334 29.2957L41.1131 29.3475C41.9477 29.6065 42.6796 29.8266 42.6796 30.4222V30.4481C42.6796 30.9919 42.2045 31.3933 41.447 31.3933C41.1517 31.3933 40.2143 31.3933 39.2 30.7459C39.0716 30.6682 39.0074 30.6294 38.9175 30.5646C38.8918 30.5387 38.7378 30.4869 38.6864 30.6423L38.3397 31.6004V31.6134Z" fill="white"/>
<path d="M55.7625 28.6613C55.7625 29.5158 55.6084 30.1891 55.3002 30.6552C54.9921 31.1214 54.5298 31.3544 53.8878 31.3544C53.2459 31.3544 52.7836 31.1214 52.4755 30.6552C52.1673 30.1891 52.0132 29.5158 52.0132 28.6613C52.0132 27.8067 52.1673 27.1464 52.4755 26.6673C52.7708 26.2012 53.233 25.9811 53.8878 25.9811C54.5427 25.9811 54.9921 26.2012 55.3002 26.6673C55.6084 27.1334 55.7625 27.8067 55.7625 28.6613ZM57.2262 27.0816C57.085 26.5896 56.8667 26.1624 56.5585 25.8128C56.2632 25.4502 55.8909 25.1654 55.4415 24.9582C54.9921 24.751 54.4656 24.6475 53.8878 24.6475C53.3101 24.6475 52.7708 24.751 52.3214 24.9582C51.872 25.1654 51.4996 25.4502 51.2043 25.8128C50.909 26.1753 50.6907 26.6026 50.5366 27.0816C50.3954 27.5607 50.3184 28.0916 50.3184 28.6613C50.3184 29.231 50.3954 29.7618 50.5366 30.2409C50.6779 30.7329 50.8962 31.1602 51.2043 31.5098C51.4996 31.8723 51.872 32.1572 52.3214 32.3643C52.7708 32.5715 53.2972 32.6751 53.8878 32.6751C54.4785 32.6751 55.0049 32.5715 55.4415 32.3643C55.8909 32.1572 56.2632 31.8723 56.5585 31.5098C56.8539 31.1472 57.0721 30.72 57.2262 30.2409C57.3675 29.7618 57.4445 29.231 57.4445 28.6613C57.4445 28.0916 57.3675 27.5737 57.2262 27.0816Z" fill="white"/>
<path d="M69.1685 31.1343C69.1171 30.9919 68.9887 31.0437 68.9887 31.0437C68.7705 31.1214 68.5522 31.1991 68.3082 31.2379C68.0643 31.2767 67.7946 31.2897 67.5122 31.2897C66.806 31.2897 66.2538 31.0825 65.843 30.6552C65.4449 30.2409 65.2138 29.5676 65.2138 28.6483C65.2138 27.8197 65.4193 27.1852 65.7659 26.7191C66.1255 26.2401 66.6647 26.007 67.3838 26.007C67.9872 26.007 68.4366 26.0717 68.9245 26.2271C68.9245 26.2271 69.0401 26.2789 69.0915 26.1235C69.2199 25.761 69.3097 25.515 69.451 25.1136C69.4895 24.9971 69.3996 24.9582 69.3611 24.9453C69.1685 24.8676 68.7319 24.7511 68.3853 24.6993C68.0643 24.6475 67.7048 24.6216 67.2939 24.6216C66.6776 24.6216 66.1383 24.7252 65.6761 24.9323C65.2138 25.1395 64.8158 25.4243 64.5076 25.7869C64.1995 26.1494 63.9555 26.5767 63.8014 27.0558C63.6474 27.5348 63.5703 28.0786 63.5703 28.6354C63.5703 29.8525 63.8913 30.8365 64.5333 31.5616C65.1753 32.2867 66.1511 32.6492 67.4094 32.6492C68.1542 32.6492 68.9245 32.4938 69.4767 32.2737C69.4767 32.2737 69.5794 32.2219 69.5409 32.1054L69.1813 31.1084L69.1685 31.1343Z" fill="white"/>
<path d="M71.7225 27.8458C71.7867 27.3797 71.9151 26.9783 72.1205 26.6676C72.4158 26.2014 72.8781 25.9425 73.5329 25.9425C74.1878 25.9425 74.6115 26.2014 74.9196 26.6676C75.1251 26.9783 75.2149 27.3797 75.2406 27.8458H71.7225ZM76.6273 26.81C76.4989 26.3439 76.2036 25.8648 75.9982 25.6447C75.6772 25.2951 75.369 25.062 75.0609 24.9196C74.6628 24.7513 74.1749 24.6348 73.6485 24.6348C73.0322 24.6348 72.48 24.7383 72.0178 24.9585C71.5684 25.1786 71.1832 25.4634 70.8879 25.826C70.5926 26.1885 70.3615 26.6287 70.2202 27.1207C70.079 27.6128 70.002 28.1436 70.002 28.7133C70.002 29.283 70.079 29.8139 70.2202 30.3059C70.3743 30.785 70.6054 31.2122 70.9393 31.5748C71.2603 31.9244 71.684 32.2092 72.1719 32.4034C72.6726 32.5976 73.2633 32.7012 73.9566 32.7012C75.3819 32.7012 76.1266 32.3775 76.4347 32.2092C76.4861 32.1833 76.5374 32.1186 76.4732 31.9762L76.1523 31.0698C76.1009 30.9403 75.9725 30.9792 75.9725 30.9792C75.6258 31.1087 75.1251 31.3417 73.9566 31.3417C73.1862 31.3417 72.6213 31.1087 72.2746 30.7591C71.9151 30.3965 71.7353 29.8657 71.6968 29.1017H76.6273C76.6273 29.1017 76.7557 29.1017 76.7686 28.9723C76.7686 28.9205 76.9355 27.9494 76.6273 26.8359V26.81Z" fill="white"/>
<path d="M32.2666 27.8458C32.3308 27.3797 32.4592 26.9783 32.6646 26.6676C32.9599 26.2014 33.4222 25.9425 34.077 25.9425C34.7318 25.9425 35.1556 26.2014 35.4637 26.6676C35.6692 26.9783 35.759 27.3797 35.7847 27.8458H32.2666ZM37.1586 26.81C37.0302 26.3439 36.7349 25.8648 36.5294 25.6447C36.2084 25.2951 35.9003 25.062 35.5921 24.9196C35.1941 24.7513 34.7062 24.6348 34.1797 24.6348C33.5634 24.6348 33.0113 24.7383 32.5491 24.9585C32.0997 25.1786 31.7145 25.4634 31.4192 25.826C31.1238 26.1885 30.8927 26.6287 30.7515 27.1207C30.6102 27.6128 30.5332 28.1436 30.5332 28.7133C30.5332 29.283 30.6102 29.8139 30.7515 30.3059C30.9056 30.785 31.1367 31.2122 31.4705 31.5748C31.7915 31.9244 32.2152 32.2092 32.7031 32.4034C33.2039 32.5976 33.7945 32.7012 34.4879 32.7012C35.9131 32.7012 36.6578 32.3775 36.966 32.2092C37.0173 32.1833 37.0687 32.1186 37.0045 31.9762L36.6835 31.0698C36.6321 30.9403 36.4909 30.9792 36.4909 30.9792C36.1442 31.1087 35.6435 31.3417 34.4622 31.3417C33.7047 31.3417 33.1269 31.1087 32.7802 30.7591C32.4207 30.3965 32.2409 29.8657 32.2024 29.1017H37.1329C37.1329 29.1017 37.2613 29.1017 37.2741 28.9723C37.2741 28.9205 37.4411 27.9494 37.1201 26.8359L37.1586 26.81Z" fill="white"/>
<path d="M21.6096 31.1087C21.417 30.9533 21.3913 30.9145 21.3271 30.8109C21.2244 30.6555 21.1859 30.4354 21.1859 30.1635C21.1859 29.7233 21.3271 29.4125 21.6225 29.2053C21.6225 29.2053 22.0462 28.8299 23.0477 28.8428C23.7539 28.8428 24.383 28.9593 24.383 28.9593V31.2123C24.383 31.2123 23.7539 31.3417 23.0477 31.3935C22.0462 31.4583 21.5968 31.0957 21.5968 31.1087M23.5741 27.6128C23.3687 27.5998 23.1119 27.5869 22.8037 27.5869C22.38 27.5869 21.9691 27.6387 21.5968 27.7422C21.2116 27.8458 20.8649 28.0142 20.5696 28.2213C20.2743 28.4414 20.0303 28.7133 19.8505 29.037C19.6708 29.3607 19.5938 29.7492 19.5938 30.1764C19.5938 30.6037 19.6708 30.9921 19.8249 31.3158C19.9789 31.6266 20.1972 31.8855 20.4669 32.0927C20.7365 32.2999 21.0832 32.4423 21.4684 32.5329C21.8536 32.6236 22.2901 32.6624 22.778 32.6624C23.2788 32.6624 23.7924 32.6236 24.2803 32.5329C24.7682 32.4552 25.3589 32.3258 25.5258 32.2869C25.6927 32.2481 25.8725 32.1963 25.8725 32.1963C26.0009 32.1704 25.988 32.028 25.988 32.028V27.4833C25.988 26.4863 25.7184 25.7483 25.2048 25.2951C24.6912 24.8419 23.9208 24.6089 22.945 24.6089C22.5726 24.6089 21.982 24.6607 21.6225 24.7384C21.6225 24.7384 20.5439 24.9455 20.1073 25.2951C20.1073 25.2951 20.0046 25.3599 20.0688 25.4893L20.4155 26.4345C20.454 26.5511 20.5824 26.5122 20.5824 26.5122C20.5824 26.5122 20.6209 26.4993 20.6595 26.4734C21.6096 25.9555 22.8037 25.9684 22.8037 25.9684C23.3302 25.9684 23.741 26.072 24.0235 26.2921C24.2931 26.4993 24.4344 26.81 24.4344 27.4703V27.6775C24.0107 27.6128 23.6255 27.5869 23.6255 27.5869" fill="white"/>
<path d="M63.3126 25.049C63.3512 24.9324 63.2741 24.8806 63.2356 24.8677C63.1457 24.8289 62.7349 24.7512 62.4139 24.7253C61.7975 24.6864 61.4509 24.79 61.1427 24.9324C60.8346 25.0749 60.5007 25.295 60.3081 25.5539V24.9454C60.3081 24.8547 60.2439 24.79 60.1669 24.79H58.9086C58.8315 24.79 58.7673 24.8547 58.7673 24.9454V32.3515C58.7673 32.4292 58.8315 32.5069 58.9214 32.5069H60.2182C60.2953 32.5069 60.3723 32.4421 60.3723 32.3515V28.6484C60.3723 28.1564 60.4237 27.6515 60.5392 27.3407C60.642 27.03 60.796 26.784 60.9758 26.6156C61.1555 26.4344 61.361 26.3178 61.5793 26.2531C61.8104 26.1884 62.0672 26.1625 62.2341 26.1625C62.4909 26.1625 62.7734 26.2272 62.7734 26.2272C62.8633 26.2272 62.9275 26.1754 62.9531 26.0977C63.043 25.8647 63.2741 25.1914 63.3255 25.049" fill="white"/>
<path d="M51.1664 21.618C51.0124 21.5662 50.8711 21.5403 50.6785 21.5015C50.4859 21.4627 50.2677 21.4497 50.0109 21.4497C49.1249 21.4497 48.4187 21.7087 47.9308 22.2007C47.4429 22.6927 47.109 23.4566 46.9421 24.4536L46.8779 24.7902H45.7609C45.7609 24.7902 45.6196 24.7902 45.5939 24.9327L45.4142 25.9685C45.4013 26.0721 45.4399 26.1239 45.5683 26.1239H46.6596L45.5554 32.3388C45.4655 32.8438 45.3757 33.2451 45.2601 33.5688C45.1574 33.8796 45.0418 34.1126 44.9134 34.281C44.785 34.4363 44.6695 34.5658 44.464 34.6305C44.2971 34.6823 44.1045 34.7212 43.8862 34.7212C43.7707 34.7212 43.6038 34.6953 43.4882 34.6823C43.3726 34.6564 43.3084 34.6305 43.2186 34.5917C43.2186 34.5917 43.0902 34.5399 43.0388 34.6694C43.0003 34.773 42.705 35.5757 42.6793 35.6793C42.6408 35.7829 42.6921 35.8606 42.7563 35.8735C42.8976 35.9253 43.0131 35.9642 43.2057 36.003C43.4754 36.0677 43.7065 36.0677 43.9248 36.0677C44.3741 36.0677 44.7979 36.003 45.1317 35.8735C45.4784 35.7441 45.7737 35.5239 46.0433 35.2391C46.3258 34.9154 46.5056 34.5788 46.6853 34.1256C46.8522 33.6724 47.0063 33.1157 47.1219 32.4553L48.2261 26.1239H49.8439C49.8439 26.1239 49.9852 26.1239 50.0109 25.9814L50.1906 24.9456C50.1906 24.842 50.1649 24.7902 50.0237 24.7902H48.4444C48.4444 24.7902 48.5214 24.1946 48.7012 23.6638C48.7782 23.4437 48.9195 23.2624 49.0479 23.1329C49.1634 23.0164 49.3047 22.9258 49.4587 22.874C49.6128 22.8222 49.7926 22.7963 49.9852 22.7963C50.1393 22.7963 50.2805 22.8092 50.3832 22.8351C50.5373 22.874 50.6015 22.8869 50.64 22.8999C50.8069 22.9516 50.8198 22.8999 50.8583 22.8222L51.2306 21.7734C51.2692 21.6569 51.1793 21.618 51.1408 21.6051" fill="white"/>
<path d="M29.1449 32.3646C29.1449 32.4423 29.0807 32.52 29.0036 32.52H27.694C27.6169 32.52 27.5527 32.4552 27.5527 32.3646V21.7604C27.5527 21.6827 27.6169 21.605 27.694 21.605H29.0036C29.0807 21.605 29.1449 21.6697 29.1449 21.7604V32.3646Z" fill="white"/>
</g>
<defs>
<clipPath id="clip0_1_818">
<rect width="85" height="60" fill="white" transform="translate(0.5 0.5)"/>
</clipPath>
</defs>
</svg>
