<svg width="80" height="80" viewBox="0 0 80 80" fill="none" xmlns="http://www.w3.org/2000/svg">
<g clip-path="url(#clip0_4118_4242)">
<path d="M40.0001 70C34.8108 68.654 29.945 66.2786 25.6919 63.0149C21.4388 59.7513 17.8851 55.666 15.2421 51.0018C12.599 46.3376 10.9205 41.1897 10.3063 35.8639C9.69216 30.5382 10.1548 25.1434 11.6668 20C22.0519 20.4752 32.214 16.8886 40.0001 10C47.7862 16.8886 57.9483 20.4752 68.3334 20C69.9214 25.405 70.3508 31.0843 69.5934 36.6667" stroke="#1D1D1D" stroke-width="2" stroke-linecap="round" stroke-linejoin="round"/>
<path d="M60.0017 73.334L71.1684 62.3874C71.8531 61.7229 72.3979 60.9279 72.7703 60.0494C73.1428 59.1709 73.3355 58.2267 73.3371 57.2725C73.3386 56.3184 73.149 55.3735 72.7794 54.4938C72.4098 53.6141 71.8676 52.8174 71.185 52.1507C69.7921 50.7885 67.9224 50.0241 65.9741 50.0203C64.0258 50.0166 62.1531 50.7738 60.755 52.1307L60.0084 52.864L59.265 52.1307C57.8723 50.7695 56.0032 50.0057 54.0558 50.002C52.1083 49.9982 50.2363 50.7548 48.8384 52.1107C48.1534 52.775 47.6084 53.5697 47.2356 54.4481C46.8629 55.3265 46.6698 56.2706 46.668 57.2248C46.6661 58.179 46.8554 59.1239 47.2248 60.0037C47.5941 60.8835 48.136 61.6804 48.8184 62.3474L60.0017 73.334Z" stroke="#1D1D1D" stroke-width="2" stroke-linecap="round" stroke-linejoin="round"/>
</g>
<defs>
<clipPath id="clip0_4118_4242">
<rect width="80" height="80" fill="white"/>
</clipPath>
</defs>
</svg>
