<svg width="70" height="70" viewBox="0 0 70 70" fill="none" xmlns="http://www.w3.org/2000/svg">
<g clip-path="url(#clip0_4620_5740)">
<path d="M56.1429 49.4581V52.2495L68.5 54.3252L64.4286 58.3333L70 63.9162L63.8571 70L58.3571 64.4887L54.2857 68.7117L53.7143 65.2761H26.2857C23.7857 65.2761 22.5 63.9162 22.5 61.4826V49.4581H3.71429C1.35714 49.4581 0 48.0982 0 45.7362V3.72188C0 1.35992 1.35714 0 3.71429 0H65.9286C68.2143 0 69.5714 1.35992 69.5714 3.65031V45.8078C69.7143 47.6687 68.3571 49.3149 66.5 49.4581C66.2857 49.4581 66.1429 49.4581 65.9286 49.4581H56.1429ZM56.1429 47.2393H65.7143C67 47.2393 67.2857 46.8814 67.2857 45.593V15.818H2.28571C2.28571 15.9611 2.28571 16.1043 2.28571 16.2474C2.28571 26.1247 2.28571 36.002 2.28571 45.8793C2.28571 46.8814 2.71429 47.2393 3.71429 47.2393H22.4286V39.7239C22.4286 37.362 23.7857 36.002 26.1429 36.002H52.2857C54.7143 36.002 56.0714 37.362 56.0714 39.7955L56.1429 47.2393ZM2.28571 13.456H67.3571V4.00818C67.3571 2.50511 67.0714 2.21881 65.5714 2.21881H4C3.78571 2.21881 3.57143 2.21881 3.35714 2.21881C2.78571 2.21881 2.28571 2.64826 2.21429 3.22086V3.29243C2.21429 6.72802 2.28571 10.0204 2.28571 13.456ZM53.8571 51.8916V39.7955C53.8571 38.5787 53.5 38.2209 52.2857 38.2209H26.3571C25 38.2209 24.7143 38.5072 24.7143 39.8671V61.2679C24.7143 62.6278 25 62.9141 26.3571 62.9141H53.2857L51.4286 51.4622L53.8571 51.8916ZM54.1429 54.2536C54.7143 57.546 55.2143 60.6953 55.7143 63.9162L55.9286 64.0593L58.4286 61.411L63.8571 66.9223L66.7857 63.9877L61.2143 58.4049L63.8571 55.8998L54.1429 54.2536Z" fill="#333333"/>
<g clip-path="url(#clip1_4620_5740)">
<path d="M39.375 59.5C44.2075 59.5 48.125 55.5825 48.125 50.75C48.125 45.9175 44.2075 42 39.375 42C34.5425 42 30.625 45.9175 30.625 50.75C30.625 55.5825 34.5425 59.5 39.375 59.5Z" stroke="#333333" stroke-width="2" stroke-linecap="round" stroke-linejoin="round"/>
<path d="M39.375 42C37.1282 44.3591 35.875 47.4921 35.875 50.75C35.875 54.0079 37.1282 57.1409 39.375 59.5C41.6218 57.1409 42.875 54.0079 42.875 50.75C42.875 47.4921 41.6218 44.3591 39.375 42Z" stroke="#333333" stroke-width="2" stroke-linecap="round" stroke-linejoin="round"/>
<path d="M30.625 50.75H48.125" stroke="#333333" stroke-width="2" stroke-linecap="round" stroke-linejoin="round"/>
</g>
<path d="M65.0725 33.712H35.9297V18.0371H65.0011V33.712H65.0725ZM38.2154 31.4216H62.7868V20.2559H38.2154V31.4216Z" fill="#333333"/>
<path d="M20.1429 44.9488H4.5V36.002H20.1429V44.9488ZM6.78571 42.6584H17.9286V38.2208H6.78571V42.6584Z" fill="#333333"/>
<path d="M4.5 24.6941V22.5469H33.5714V24.6941H4.5Z" fill="#333333"/>
<path d="M33.6429 27.0547V29.2019H13.5V27.0547H33.6429Z" fill="#333333"/>
<path d="M4.5 27.0547H6.64286V29.2019H4.5V27.0547Z" fill="#333333"/>
<path d="M11.1429 29.2032H9V26.9844H11.1429V29.2032Z" fill="#333333"/>
<path d="M5.35938 6.37109H8.28795V9.30565H5.35938V6.37109Z" fill="#333333"/>
<path d="M11.3594 6.37109H14.2165V9.30565H11.3594V6.37109Z" fill="#333333"/>
<path d="M20.2879 9.30565H17.3594V6.37109H20.2879V9.30565Z" fill="#333333"/>
</g>
<defs>
<clipPath id="clip0_4620_5740">
<rect width="70" height="70" fill="white"/>
</clipPath>
<clipPath id="clip1_4620_5740">
<rect width="21" height="21" fill="white" transform="translate(28.875 40.25)"/>
</clipPath>
</defs>
</svg>
