<svg width="70" height="70" viewBox="0 0 70 70" fill="none" xmlns="http://www.w3.org/2000/svg">
                <g clip-path="url(#clip0_4620_5717)">
                <path d="M40.6476 54.1906H3.86889C1.32193 54.1906 0 52.8686 0 50.3214V3.82775C0 1.3359 1.34269 0 3.84121 0H61.6324C64.1724 0 65.4805 1.32206 65.4805 3.88312C65.4805 17.2652 65.4805 30.6243 65.4805 43.9602C65.4681 44.2007 65.508 44.441 65.5977 44.6645C65.6873 44.888 65.8244 45.0894 65.9996 45.2546C66.5404 45.7517 66.909 46.408 67.0521 47.1285C67.1951 47.849 67.1053 48.5963 66.7955 49.2623C66.6975 49.4702 66.6443 49.6963 66.6397 49.9261C66.635 50.1559 66.6788 50.384 66.7683 50.5957C66.8578 50.8073 66.9909 50.9977 67.159 51.1544C67.3271 51.3111 67.5263 51.4306 67.7437 51.505C68.4349 51.759 69.0271 52.2268 69.4341 52.8405C69.8411 53.4543 70.0418 54.1818 70.0069 54.9174V55.7619C70.0319 56.4849 69.8297 57.1976 69.4287 57.7998C69.0277 58.4019 68.4481 58.8633 67.7714 59.119C67.5528 59.1902 67.3516 59.3066 67.1808 59.4606C67.0101 59.6146 66.8736 59.8028 66.7803 60.0129C66.6869 60.2231 66.6388 60.4506 66.6391 60.6805C66.6393 60.9105 66.6879 61.1378 66.7817 61.3478C67.4738 63.1128 66.9547 64.5041 65.6466 65.7846C64.3385 67.0652 63.0235 67.4459 61.3625 66.7744C61.1584 66.6824 60.9377 66.6332 60.7139 66.6297C60.4901 66.6262 60.268 66.6685 60.0611 66.7541C59.8543 66.8397 59.6672 66.9667 59.5113 67.1274C59.3554 67.288 59.234 67.4788 59.1546 67.6881C58.9029 68.405 58.4222 69.0192 57.7868 69.4357C57.1513 69.8523 56.3965 70.0482 55.6387 69.9931C55.2857 69.9931 54.9466 69.9931 54.5798 69.9931C53.9295 69.9591 53.3021 69.7423 52.7695 69.3676C52.2369 68.9929 51.8209 68.4756 51.5691 67.875C51.0362 66.7191 50.3095 66.4145 49.1467 66.8437C48.5141 67.1108 47.8163 67.1837 47.1421 67.0531C46.468 66.9224 45.8479 66.5941 45.3609 66.11C45.1186 65.8815 44.8833 65.6462 44.6688 65.4178C44.1265 64.9202 43.757 64.2627 43.6138 63.5407C43.4707 62.8188 43.5614 62.07 43.8728 61.4031C43.9694 61.2016 44.0236 60.9823 44.032 60.759C44.0404 60.5356 44.0029 60.3129 43.9218 60.1047C43.8407 59.8964 43.7178 59.707 43.5605 59.5481C43.4033 59.3893 43.2151 59.2644 43.0077 59.1813C42.2684 58.9203 41.6368 58.421 41.2121 57.762C40.7875 57.103 40.5937 56.3215 40.6615 55.5404C40.6545 55.1112 40.6476 54.6821 40.6476 54.1906ZM2.25628 15.837V50.1899C2.25628 51.6434 2.54696 51.9341 3.97271 51.9341C16.32 51.9341 28.6649 51.9341 41.0075 51.9341C41.6282 51.9161 42.2404 51.7848 42.8139 51.5465C43.059 51.4851 43.2864 51.3672 43.4778 51.2022C43.6691 51.0371 43.8193 50.8296 43.9161 50.5962C44.013 50.3628 44.0539 50.11 44.0355 49.8579C44.0172 49.6059 43.9402 49.3616 43.8106 49.1447C43.5754 48.6142 43.4818 48.0318 43.5388 47.4544C43.5958 46.8769 43.8015 46.3241 44.1359 45.8499C44.4714 45.3975 44.8517 44.9801 45.2709 44.604C45.7664 44.0785 46.4138 43.7212 47.1225 43.5822C47.8312 43.4432 48.5656 43.5294 49.2229 43.8287C49.4346 43.9244 49.6634 43.9767 49.8957 43.9824C50.128 43.9881 50.3591 43.9472 50.5752 43.862C50.7914 43.7768 50.9883 43.6491 51.1543 43.4865C51.3202 43.3238 51.4519 43.1295 51.5414 42.9151C51.8904 42.2327 52.3926 41.6404 53.0087 41.1846C53.5268 40.8609 54.1081 40.6518 54.7137 40.5712C55.3192 40.4907 55.935 40.5406 56.5197 40.7176C57.1044 40.8946 57.6444 41.1946 58.1037 41.5975C58.5629 42.0003 58.9307 42.4968 59.1823 43.0535C59.3478 43.3921 59.6189 43.6678 59.9547 43.8388C60.2906 44.0099 60.6729 44.0671 61.0441 44.0018C61.7362 43.8218 62.4283 43.6211 63.1758 43.4273V15.837H2.25628ZM2.25628 13.4975H63.2242V4.00771C63.2242 2.53337 62.9474 2.2565 61.4455 2.2565H3.53668C3.36527 2.23676 3.19161 2.25589 3.0286 2.31246C2.86559 2.36903 2.71742 2.4616 2.59508 2.58329C2.47274 2.70497 2.37938 2.85266 2.32192 3.01537C2.26447 3.17809 2.2444 3.35165 2.2632 3.52319C2.2632 4.27766 2.2632 5.02522 2.2632 5.77969L2.25628 13.4975ZM67.723 55.3327C67.8168 54.9281 67.7473 54.5028 67.5297 54.1491C67.312 53.7953 66.9637 53.5417 66.5602 53.4431C65.6869 53.028 65.0034 52.2972 64.6476 51.398C64.2918 50.4988 64.2902 49.4982 64.6431 48.5978C64.8047 48.2602 64.8455 47.8772 64.7586 47.5131C64.6716 47.1489 64.4623 46.8257 64.1655 46.5974C63.5426 45.9745 62.9751 45.6422 62.0892 46.0229C61.1609 46.3958 60.1229 46.3867 59.2013 45.9978C58.2796 45.6089 57.5489 44.8716 57.1683 43.9464C57.0364 43.5911 56.7841 43.2933 56.4553 43.1049C56.1265 42.9164 55.742 42.8493 55.3688 42.9151C54.5244 42.9151 53.8808 43.0466 53.5139 43.9533C53.3257 44.4173 53.0474 44.8394 52.6952 45.1953C52.3429 45.5512 51.9238 45.8338 51.4618 46.0268C50.9998 46.2199 50.5042 46.3195 50.0035 46.3201C49.5028 46.3206 49.007 46.222 48.5446 46.0299C47.6448 45.6492 47.0981 46.0299 46.4683 46.5974C46.1651 46.8189 45.9483 47.1387 45.8549 47.5024C45.7614 47.866 45.7972 48.2508 45.9561 48.5909C46.1472 49.0535 46.2451 49.5492 46.2441 50.0497C46.2432 50.5501 46.1433 51.0455 45.9504 51.5073C45.7575 51.9691 45.4752 52.3882 45.1199 52.7406C44.7646 53.093 44.3431 53.3717 43.8798 53.5608C43.546 53.7006 43.2689 53.9487 43.0932 54.2651C42.9174 54.5814 42.8532 54.9477 42.9108 55.3051C42.9108 56.1218 43.0354 56.7517 43.9075 57.1116C44.3767 57.3004 44.8036 57.581 45.163 57.9369C45.5224 58.2928 45.8071 58.7168 46.0005 59.1842C46.1939 59.6516 46.292 60.1529 46.2892 60.6588C46.2863 61.1646 46.1825 61.6648 45.9838 62.1299C45.8339 62.461 45.8023 62.8335 45.8943 63.1851C45.9862 63.5366 46.1962 63.8459 46.489 64.0611C47.0842 64.6495 47.6241 65.0371 48.5654 64.6564C49.0301 64.4588 49.5296 64.3558 50.0346 64.3535C50.5396 64.3512 51.04 64.4495 51.5066 64.6429C51.9731 64.8362 52.3964 65.1206 52.7518 65.4795C53.1072 65.8384 53.3874 66.2645 53.5762 66.7329C53.707 67.0732 53.9514 67.3577 54.2681 67.5381C54.5848 67.7185 54.9541 67.7838 55.3134 67.7227C56.1163 67.7227 56.7738 67.6327 57.1406 66.7606C57.3306 66.2841 57.6135 65.8502 57.9727 65.4841C58.3319 65.118 58.7603 64.8269 59.2331 64.6279C59.7058 64.4289 60.2134 64.3258 60.7263 64.3248C61.2392 64.3237 61.7472 64.4247 62.2207 64.6218C62.5615 64.7665 62.9392 64.8005 63.3004 64.7187C63.5732 64.6296 63.8251 64.4861 64.0409 64.297C64.2568 64.1079 64.4321 63.877 64.5563 63.6182C64.6804 63.3595 64.7509 63.0783 64.7635 62.7916C64.776 62.5048 64.7303 62.2186 64.6292 61.95C64.316 61.0558 64.3417 60.0778 64.7014 59.2014C65.0612 58.3249 65.7299 57.6109 66.581 57.1947C67.4392 56.8278 67.8821 56.3018 67.723 55.3327Z"  fill="#333333"/>
                <path d="M34.9962 42.9154V44.4867C35.0169 45.0178 34.8844 45.5437 34.6144 46.0015C34.3444 46.4593 33.9483 46.8297 33.4735 47.0685C33.0206 47.3291 32.5021 47.4533 31.9803 47.4263C31.4585 47.3993 30.9556 47.2222 30.532 46.9162C28.7049 45.7188 26.9054 44.4798 25.0644 43.3031C24.6747 43.0619 24.2282 42.9281 23.7701 42.9154C18.6001 42.9154 13.3885 42.9154 8.25302 42.9154C5.89985 42.9154 4.51562 41.5311 4.51562 39.2054C4.51562 33.4003 4.51562 27.5929 4.51562 21.7832C4.51562 19.4783 5.89984 18.0801 8.18381 18.0801C18.5332 18.0801 28.8779 18.0801 39.218 18.0801C41.5158 18.0801 42.9 19.4644 42.9 21.7763V39.1846C42.907 41.5311 41.5227 42.9154 39.1627 42.9154H34.9962ZM32.7399 40.6589H39.0381C40.2977 40.6589 40.6438 40.3198 40.6438 39.0808V21.9286C40.6438 20.6688 40.3046 20.3227 39.0727 20.3227H8.30147C7.11104 20.3227 6.75806 20.6757 6.75806 21.8801V39.0254C6.75806 40.3128 7.08335 40.6451 8.38452 40.6451C13.7691 40.6451 19.1538 40.6451 24.5384 40.6451C24.9483 40.6568 25.3476 40.7788 25.6942 40.9981C27.6459 42.2648 29.57 43.5799 31.5148 44.8466C31.7432 44.9989 32.1516 45.1304 32.3246 45.0266C32.441 44.9271 32.5351 44.8042 32.6007 44.6658C32.6663 44.5274 32.702 44.3768 32.7053 44.2237C32.7606 43.0677 32.7399 41.8979 32.7399 40.6451V40.6589Z"  fill="#333333"/>
                <path d="M55.3683 47.2695L57.6038 47.6018C56.8425 52.8831 56.0604 58.1021 55.3683 63.3904L53.1328 63.0581C53.8595 57.7768 54.607 52.5578 55.3683 47.2695Z"  fill="#333333"/>
                <path d="M52.7597 57.8518L51.2163 59.3746C49.832 57.9902 48.4478 56.6059 47.1328 55.2976L51.2163 51.2207L52.6974 52.7366L50.0397 55.2976L52.7597 57.8518Z"  fill="#333333"/>
                <path d="M59.524 51.3457L63.5036 55.3188L59.524 59.3611L58.0498 57.7553L60.5899 55.3742L57.8906 52.8823L59.524 51.3457Z"  fill="#333333"/>
                <path d="M12.0247 30.4558C12.5158 30.9344 12.907 31.5057 13.1755 32.1366C13.444 32.7676 13.5845 33.4456 13.5889 34.1313C13.6304 35.1903 14.4471 35.8617 15.769 36.1386V38.2705C14.3295 38.5266 12.0109 37.2461 11.4434 34.9827C11.3737 34.7102 11.3274 34.4324 11.3049 34.1521C11.1873 32.5047 10.6682 31.8886 9.0625 31.5356V29.4383C9.40978 29.3399 9.74975 29.2174 10.0799 29.0715C10.465 28.865 10.7842 28.5543 11.0009 28.1748C11.2176 27.7952 11.3229 27.3624 11.3049 26.9257C11.3409 25.767 11.8261 24.6677 12.6579 23.8603C13.4897 23.053 14.603 22.6008 15.7621 22.5996V24.7523C14.0526 25.2507 13.6858 25.6729 13.5335 27.521C13.3895 28.6457 12.8555 29.6843 12.0247 30.4558Z"  fill="#333333"/>
                <path d="M35.4204 30.4558C34.9185 29.9811 34.5186 29.4092 34.2449 28.7749C33.9712 28.1407 33.8296 27.4573 33.8286 26.7665C33.7801 25.7074 32.9704 25.0429 31.6484 24.773V22.6272C33.794 22.385 35.9603 24.3992 36.1195 26.7803C36.2302 28.4138 36.7354 29.0091 38.3619 29.3967V31.4733C37.8653 31.6622 37.3859 31.8938 36.9292 32.1655C36.6572 32.392 36.4418 32.6789 36.3 33.0033C36.1582 33.3278 36.094 33.6808 36.1125 34.0343C36.0748 35.1912 35.5886 36.288 34.7568 37.0928C33.9249 37.8976 32.8127 38.3472 31.6554 38.3466V36.2009C33.3372 35.7302 33.6971 35.2733 33.8909 33.4321C34.0113 32.2838 34.5569 31.2221 35.4204 30.4558Z"  fill="#333333"/>
                <path d="M29.3276 22.627V24.8004H18.1016V22.627H29.3276Z" fill="#333333"/>
                <path d="M29.3276 36.1797V38.3462H18.1016V36.1797H29.3276Z"  fill="#333333"/>
                <path d="M29.3224 27.1465V29.313H18.1172V27.1465H29.3224Z"  fill="#333333"/>
                <path d="M29.3264 31.6602V33.8336H22.6406V31.6602H29.3264Z"  fill="#333333"/>
                <path d="M18.1016 33.8199V31.6465H20.2679V33.8199H18.1016Z"  fill="#333333"/>
                <path d="M5.71094 6.36719H8.61088V9.27434H5.71094V6.36719Z"  fill="#333333"/>
                <path d="M14.662 9.30291H11.7344V6.375H14.662V9.30291Z"  fill="#333333"/>
                </g>
                <defs>
                <clipPath id="clip0_4620_5717">
                <rect width="70" height="70"  fill="#333333"/>
                </clipPath>
                </defs>
                </svg>