<svg width="78" height="60" viewBox="0 0 78 60" fill="none" xmlns="http://www.w3.org/2000/svg">
<mask id="mask0_1_860" style="mask-type:luminance" maskUnits="userSpaceOnUse" x="0" y="0" width="78" height="60">
<path d="M77.9232 0.625H0.5V59.6248H77.9232V0.625Z" fill="white"/>
</mask>
<g mask="url(#mask0_1_860)">
<path d="M60.8103 0.625488C61.9578 0.912359 63.1531 1.11954 64.2687 1.51798C67.7112 2.72921 70.4364 4.9923 72.8111 7.70164C74.7395 9.91691 76.381 12.3713 77.7038 15.0009C77.7995 15.1284 77.8632 15.2718 77.8951 15.4312C77.911 15.5906 77.8792 15.75 77.8473 15.9093C77.6879 15.8615 77.5445 15.7818 77.401 15.6862C77.2735 15.5587 77.1779 15.4153 77.0823 15.2559C75.2017 12.7059 73.082 10.3632 70.3886 8.64193C65.6871 5.62979 60.7944 5.19948 55.7263 7.6857C55.2801 7.89288 54.8817 8.19569 54.5311 8.54631C50.8974 12.4988 46.929 16.0687 42.4825 19.1127C42.3709 19.1765 42.3072 19.288 42.2594 19.3996C42.4028 19.3518 42.5462 19.304 42.6737 19.2562C46.3074 17.519 50.0845 16.2918 54.0848 15.8137C57.7663 15.3675 61.4478 15.3196 65.0497 16.4831C65.3365 16.5787 65.7668 16.5628 65.7668 17.0568C65.48 17.0409 65.1771 17.0887 64.9062 17.009C61.2247 15.8137 57.591 16.0528 53.9732 17.264C51.4073 18.1246 48.9689 19.288 46.6899 20.7543C46.5784 20.8339 46.4668 20.9136 46.3234 21.0252C46.4509 21.1368 46.5784 21.2324 46.7059 21.328C50.0208 23.4317 53.5429 25.0095 57.4476 25.6629C59.9816 26.0773 62.4678 25.7745 64.9062 25.0414C65.0018 25.0254 65.0975 24.9458 65.1931 24.9617C65.3843 24.9776 65.5756 25.0095 65.7828 25.0254C65.6553 25.1689 65.5596 25.4079 65.4003 25.4398C64.1731 25.7586 62.93 26.157 61.6869 26.3004C55.0251 27.0495 48.7458 25.6789 42.7534 22.8102C42.6259 22.7464 42.4984 22.6986 42.3709 22.6349C42.339 22.6189 42.2912 22.6349 42.1797 22.6508C42.3231 22.7783 42.4347 22.8739 42.5462 22.9695C46.8812 25.8861 50.722 29.3604 54.2442 33.2013C55.3917 34.4444 56.8738 34.9862 58.4038 35.4165C63.4081 36.8031 67.8227 35.5122 71.807 32.4044C73.9267 30.7629 75.6639 28.7548 77.2257 26.6032C77.3851 26.4279 77.5445 26.2526 77.7198 26.0932C77.7835 26.1251 77.8473 26.157 77.911 26.1889C77.8792 26.3801 77.8951 26.5873 77.8154 26.7467C75.0901 32.0857 71.5999 36.7712 66.1812 39.6718C62.2766 41.7596 58.1807 41.9508 54.0051 40.5165C53.7182 40.389 53.4951 40.1659 53.3676 39.8949C51.3436 35.7034 48.7618 31.9103 45.4627 28.6113C43.8053 26.9379 41.9406 25.4717 39.9166 24.2605C39.55 24.0373 39.2791 24.0214 38.8966 24.2445C34.6732 26.7945 31.3583 30.2688 28.6649 34.3487C27.4855 36.1178 26.5452 38.0462 25.4615 39.879C25.2862 40.1818 25.0312 40.4049 24.7124 40.5483C19.2778 42.3493 14.3213 41.3133 9.81107 37.8868C5.95425 34.9544 3.1971 31.0975 1.02963 26.8264C0.934009 26.651 1.0137 26.396 0.997759 26.1729C1.17307 26.2845 1.42806 26.3642 1.53963 26.5235C3.40429 29.0735 5.49207 31.4004 8.10578 33.1853C10.6398 34.9225 13.4129 35.9265 16.5047 35.9425C19.0547 35.9425 21.4612 35.3687 23.6287 34.0141C24.3299 33.5678 24.8718 32.8347 25.4615 32.2132C28.7605 28.7707 32.3145 25.6311 36.2669 22.9536C36.4104 22.8739 36.506 22.7305 36.5538 22.587L35.0557 23.2564C30.3383 25.3442 25.4296 26.5714 20.25 26.4757C18.0825 26.4279 15.8991 26.3482 13.8113 25.5833C13.6519 25.5514 13.5085 25.5036 13.3651 25.4239C13.2376 25.2964 13.1101 25.1689 13.0145 25.0095C13.1898 24.9617 13.3651 24.8661 13.5245 24.8979C14.0504 25.0095 14.5604 25.2008 15.0863 25.3442C18.7359 26.3164 22.2581 25.7426 25.7165 24.4836C27.9317 23.6708 30.0514 22.6189 32.0276 21.3439C32.187 21.2324 32.3464 21.1208 32.4898 20.9933C30.7526 19.8299 28.9039 18.8418 26.9755 18.029C24.3777 16.9452 21.6843 16.1325 18.8634 16.2121C17.19 16.2599 15.5325 16.7221 13.8591 17.009C13.7316 17.0409 13.5882 17.1365 13.4607 17.1365C13.3013 17.1206 13.1579 17.0727 12.9985 17.009C13.0941 16.8815 13.1579 16.6743 13.2854 16.6424C14.2098 16.3556 15.1022 16.0209 16.0425 15.8775C21.6843 15.0328 27.1827 15.7659 32.5217 17.7421C33.8604 18.2362 35.1673 18.8258 36.6016 19.4155C36.5219 19.304 36.4263 19.2083 36.3148 19.1127C31.8364 16.0846 27.8999 12.4669 24.2024 8.53037C23.7721 8.08413 23.2621 7.73351 22.6884 7.49445C17.2378 5.00824 12.1538 5.83698 7.40454 9.29536C5.0777 11.0007 3.1971 13.1522 1.50775 15.4631C1.444 15.5906 1.34838 15.6862 1.23682 15.7818C1.15713 15.8456 0.949947 15.8615 0.918073 15.8137C0.838386 15.7021 0.806512 15.5746 0.838386 15.4471C0.997759 15.0806 1.17307 14.714 1.36432 14.3634C3.51585 10.395 6.17737 6.82509 9.81107 4.06794C12.1698 2.2989 14.7516 1.08767 17.7 0.721113C17.7797 0.705176 17.8435 0.6733 17.9072 0.625488H21.1425C21.2222 0.6733 21.3178 0.705175 21.3975 0.73705C22.4812 0.992046 23.5809 1.19923 24.6646 1.50204C24.9674 1.6136 25.2224 1.83672 25.3658 2.12359C26.593 4.67355 28.0752 7.09602 29.7805 9.37505C32.2986 12.7219 35.231 15.6225 38.8488 17.7899C39.1994 18.013 39.4703 18.029 39.8209 17.7899C40.5063 17.2959 41.2394 16.8815 41.9087 16.3874C46.929 12.6581 50.5149 7.78132 53.2242 2.21922C53.4314 1.80485 53.6704 1.53391 54.1167 1.43829C55.2801 1.16736 56.4276 0.896422 57.6069 0.625488H60.7306H60.8103Z" fill="#1D1D1B"/>
</g>
<mask id="mask1_1_860" style="mask-type:luminance" maskUnits="userSpaceOnUse" x="0" y="0" width="78" height="60">
<path d="M77.9232 0.625H0.5V59.6248H77.9232V0.625Z" fill="white"/>
</mask>
<g mask="url(#mask1_1_860)">
<path d="M38.0649 47.4486H33.8894V59.4813H38.0649V47.4486ZM27.2435 59.4494V50.4767H33.1403V47.4327H17.0756V50.4926H22.9724V59.4494H27.2435ZM43.5314 50.5723C43.5792 50.5245 43.6271 50.4767 43.6749 50.4289C43.882 50.5723 44.0733 50.7317 44.2486 50.907C46.3842 53.6163 48.5039 56.3416 50.6235 59.0828C50.7988 59.3697 51.1335 59.5291 51.4682 59.5131C53.4922 59.4813 55.5003 59.5131 57.5243 59.4972C57.6997 59.4972 57.859 59.4813 58.0025 59.4653V47.4486H53.9544V56.5647C53.6516 56.3257 53.4285 56.1982 53.285 56.0069C51.1654 53.2817 49.0298 50.5564 46.9261 47.8152C46.7348 47.5124 46.3842 47.353 46.0336 47.3849C44.5355 47.4008 43.0374 47.3849 41.5393 47.3849H39.4834V59.4334H43.5314V50.5723Z" fill="#FF0000"/>
</g>
<mask id="mask2_1_860" style="mask-type:luminance" maskUnits="userSpaceOnUse" x="0" y="0" width="78" height="60">
<path d="M77.9232 0.625H0.5V59.6248H77.9232V0.625Z" fill="white"/>
</mask>
<g mask="url(#mask2_1_860)">
<path d="M63.3269 59.6243C62.7691 59.5127 62.1954 59.433 61.6376 59.2896C60.0757 58.8752 59.3426 58.1581 59.2629 56.5484C59.1514 54.5244 59.1514 52.4844 59.2789 50.4604C59.3904 48.7073 60.3945 47.767 62.1157 47.5757C66.0044 47.1295 69.9409 47.1295 73.8296 47.5598C74.2121 47.6076 74.5786 47.6873 74.9452 47.8148C75.9492 48.1335 76.5549 48.8188 76.6824 49.8866C76.7461 50.4285 76.778 50.9863 76.8258 51.576H72.8096C72.5546 50.556 72.5227 50.4285 71.4709 50.3966C69.1918 50.3488 66.9288 50.3647 64.6497 50.4285C63.7254 50.4444 63.3429 50.8269 63.2632 51.7672C63.1835 52.9466 63.1835 54.1259 63.2632 55.2894C63.3429 56.3572 63.7572 56.6918 64.8728 56.7237C66.7056 56.7715 68.5384 56.7715 70.3871 56.7715C70.929 56.7715 71.4549 56.7396 71.9968 56.66C72.5546 56.5962 72.953 56.0862 72.8893 55.5284C72.8893 55.4647 72.8734 55.4009 72.8415 55.3372C72.8096 55.2097 72.5227 55.0981 72.3474 55.0822C70.7696 55.0662 69.1918 55.0822 67.5662 55.0822V52.7235H76.778C76.8099 52.8669 76.8258 53.0263 76.8258 53.1856C76.7939 54.2853 76.778 55.385 76.7142 56.4847C76.6027 58.2377 75.7102 59.1302 73.9571 59.4012C73.4471 59.4809 72.953 59.5605 72.443 59.6562L63.3269 59.6243Z" fill="#FF0000"/>
</g>
<mask id="mask3_1_860" style="mask-type:luminance" maskUnits="userSpaceOnUse" x="0" y="0" width="78" height="60">
<path d="M77.9232 0.625H0.5V59.6248H77.9232V0.625Z" fill="white"/>
</mask>
<g mask="url(#mask3_1_860)">
<path d="M0.5 55.5449H4.37276C4.64369 56.6924 4.85087 56.8518 6.0143 56.8518C7.91083 56.8518 9.80736 56.8677 11.7039 56.8518C12.5804 56.8518 12.947 56.5012 12.9311 55.7999C12.9151 55.2421 12.6601 54.9712 12.0067 54.9234C10.7317 54.8596 9.45674 54.8277 8.18176 54.764C6.49241 54.6843 4.78713 54.6524 3.11371 54.4612C1.50405 54.2699 0.866557 53.5687 0.691247 51.975C0.627498 51.1622 0.659374 50.3334 0.80281 49.5366C1.02593 48.2456 1.96623 47.5603 3.1934 47.4488C6.76335 47.13 10.3333 46.9866 13.8873 47.4966C15.9273 47.7835 16.7082 49.0903 16.3098 51.194H12.5167C12.182 50.1422 12.0545 50.0147 10.9708 49.9987C9.36112 49.9828 7.73552 49.9987 6.12586 49.9987C5.82305 50.0147 5.52024 50.0466 5.23337 50.0944C4.75525 50.1741 4.564 50.4928 4.564 50.955C4.57994 51.4172 4.80306 51.6881 5.24931 51.72C6.46054 51.7997 7.68771 51.8634 8.883 51.9431C10.7636 52.0547 12.6761 52.0706 14.5567 52.3256C16.0707 52.5168 16.6923 53.3456 16.8038 54.8915C16.8357 55.4493 16.8357 56.0071 16.8038 56.5649C16.6923 58.3818 15.8635 59.2264 14.0786 59.4814C13.8554 59.5133 13.6642 59.577 13.4411 59.6089H4.34088C4.1337 59.5611 3.92651 59.5133 3.71933 59.4814C2.17341 59.322 0.834684 58.8917 0.515938 57.0908V55.5449H0.5Z" fill="#FF0000"/>
</g>
<mask id="mask4_1_860" style="mask-type:luminance" maskUnits="userSpaceOnUse" x="0" y="0" width="78" height="60">
<path d="M77.9232 0.625H0.5V59.6248H77.9232V0.625Z" fill="white"/>
</mask>
<g mask="url(#mask4_1_860)">
<path d="M0.500311 57.1069C0.819056 58.9078 2.15779 59.3382 3.7037 59.4975C3.91089 59.5135 4.11807 59.5772 4.32525 59.625H0.484375V57.1069H0.500311Z" fill="#FF0000"/>
</g>
<mask id="mask5_1_860" style="mask-type:luminance" maskUnits="userSpaceOnUse" x="0" y="0" width="78" height="60">
<path d="M77.9232 0.625H0.5V59.6248H77.9232V0.625Z" fill="white"/>
</mask>
<g mask="url(#mask5_1_860)">
<path d="M43.5295 50.5725V59.4496H39.4814V47.401H41.5374C43.0355 47.401 44.5336 47.4169 46.0317 47.401C46.3823 47.3691 46.7329 47.5285 46.9242 47.8313C49.0279 50.5725 51.1475 53.2978 53.2831 56.023C53.4266 56.2143 53.6497 56.3418 53.9525 56.5808V47.4488H58.0006V59.4496C57.8571 59.4496 57.6977 59.4814 57.5224 59.4814C55.4984 59.4814 53.4903 59.4814 51.4663 59.4974C51.0838 59.4974 50.8607 59.3539 50.6216 59.0671C48.5019 56.3418 46.3823 53.6165 44.2467 50.8912C44.0714 50.7159 43.8801 50.5566 43.6729 50.4131C43.6092 50.4769 43.5773 50.5247 43.5295 50.5725Z" fill="#FF0000"/>
</g>
<path d="M27.2481 59.4654H22.9769V50.4927H17.0801V47.4487H33.1608V50.4768H27.2481V59.4654Z" fill="#FF0000"/>
<path d="M38.0681 47.4487H33.8926V59.4814H38.0681V47.4487Z" fill="#FF0000"/>
</svg>
