<svg width="24" height="24" viewBox="0 0 24 24" fill="none" xmlns="http://www.w3.org/2000/svg">
<path d="M8 14.4999C8.5 16.4999 10.358 16.9999 12 16.9999C14.905 16.9999 16 15.8129 16 14.4999C16 12.9969 14.073 11.9999 12 11.9999C9.927 11.9999 8 10.9999 8 9.49988C8 8.18688 9.095 6.99988 12 6.99988C13.642 6.99988 15.5 7.49988 16 9.49988M12.0009 2.99991C13.4098 2.9996 14.799 3.33003 16.0568 3.96462C17.3146 4.59921 18.4059 5.52023 19.2428 6.65355C20.0797 7.78687 20.6389 9.10084 20.8753 10.4897C21.1117 11.8786 21.0187 13.3035 20.6039 14.6499C20.98 15.483 21.0935 16.4109 20.9292 17.3101C20.765 18.2093 20.3308 19.0371 19.6845 19.6835C19.0381 20.3298 18.2103 20.764 17.3111 20.9282C16.4119 21.0925 15.484 20.979 14.6509 20.6029C13.0867 21.0854 11.4205 21.1322 9.83167 20.7382C8.24285 20.3441 6.79158 19.5242 5.63409 18.3667C4.47659 17.2092 3.6567 15.758 3.26267 14.1691C2.86864 12.5803 2.9154 10.9141 3.39791 9.34991C3.02148 8.51676 2.90775 7.58872 3.07185 6.68934C3.23596 5.78995 3.67011 4.96188 4.31652 4.31536C4.96293 3.66884 5.79093 3.23455 6.69029 3.0703C7.58965 2.90604 8.51771 3.01962 9.35091 3.39591C10.2095 3.13223 11.1028 2.99875 12.0009 2.99991Z" stroke="white" stroke-width="2" stroke-linecap="round" stroke-linejoin="round"/>
</svg>
