<svg width="22" height="22" viewBox="0 0 22 22" fill="none" xmlns="http://www.w3.org/2000/svg">
<g clip-path="url(#clip0_4492_7265)">
<path d="M21.9769 6.46806C21.9254 5.29911 21.7364 4.49548 21.4656 3.79911C21.1862 3.05994 20.7565 2.39816 20.1934 1.84802C19.6432 1.28931 18.9771 0.855178 18.2465 0.580191C17.5461 0.309402 16.7467 0.12037 15.5777 0.0688306C14.4 0.0129267 14.0262 0 11.0393 0C8.05235 0 7.67848 0.0129267 6.50517 0.0644657C5.33623 0.116005 4.53259 0.305205 3.83639 0.575827C3.09705 0.855178 2.43527 1.28495 1.88513 1.84802C1.32642 2.39816 0.892455 3.0643 0.617301 3.79491C0.346511 4.49548 0.157479 5.29475 0.10594 6.46369C0.0500361 7.64137 0.0371094 8.01524 0.0371094 11.0021C0.0371094 13.9891 0.0500361 14.3629 0.101575 15.5362C0.153114 16.7052 0.342314 17.5088 0.613104 18.2052C0.892455 18.9444 1.32642 19.6061 1.88513 20.1563C2.43527 20.715 3.10141 21.1491 3.83203 21.4241C4.53259 21.6949 5.33186 21.8839 6.50097 21.9355C7.67411 21.9872 8.04815 21.9999 11.0351 21.9999C14.022 21.9999 14.3958 21.9872 15.5692 21.9355C16.7381 21.8839 17.5417 21.6949 18.2379 21.4241C19.7164 20.8525 20.8854 19.6835 21.457 18.2052C21.7276 17.5046 21.9168 16.7052 21.9684 15.5362C22.0199 14.3629 22.0328 13.9891 22.0328 11.0021C22.0328 8.01524 22.0285 7.64137 21.9769 6.46806ZM19.9958 15.4503C19.9485 16.5247 19.768 17.1049 19.6176 17.4917C19.2479 18.4501 18.4872 19.2108 17.5288 19.5805C17.142 19.7309 16.5576 19.9113 15.4874 19.9585C14.327 20.0102 13.979 20.023 11.0436 20.023C8.10825 20.023 7.75587 20.0102 6.59969 19.9585C5.52526 19.9113 4.94507 19.7309 4.55827 19.5805C4.08133 19.4042 3.64719 19.1248 3.29481 18.7595C2.9295 18.4028 2.65015 17.973 2.47388 17.4961C2.32346 17.1093 2.14299 16.5247 2.09582 15.4546C2.04411 14.2943 2.03135 13.9461 2.03135 11.0107C2.03135 8.07534 2.04411 7.72296 2.09582 6.56694C2.14299 5.49251 2.32346 4.91232 2.47388 4.52553C2.65015 4.04841 2.9295 3.61444 3.29918 3.2619C3.65575 2.89659 4.08552 2.61724 4.56264 2.44114C4.94943 2.29072 5.53399 2.11024 6.60405 2.0629C7.76443 2.01136 8.11262 1.99844 11.0478 1.99844C13.9876 1.99844 14.3356 2.01136 15.4918 2.0629C16.5662 2.11024 17.1464 2.29072 17.5332 2.44114C18.0101 2.61724 18.4443 2.89659 18.7966 3.2619C19.1619 3.61864 19.4413 4.04841 19.6176 4.52553C19.768 4.91232 19.9485 5.49671 19.9958 6.56694C20.0473 7.72732 20.0603 8.07534 20.0603 11.0107C20.0603 13.9461 20.0473 14.2899 19.9958 15.4503Z" fill="white"/>
<path d="M11.0402 5.35059C7.92013 5.35059 5.38867 7.88187 5.38867 11.0021C5.38867 14.1223 7.92013 16.6536 11.0402 16.6536C14.1604 16.6536 16.6917 14.1223 16.6917 11.0021C16.6917 7.88187 14.1604 5.35059 11.0402 5.35059ZM11.0402 14.6681C9.01604 14.6681 7.37418 13.0264 7.37418 11.0021C7.37418 8.97779 9.01604 7.3361 11.0402 7.3361C13.0645 7.3361 14.7062 8.97779 14.7062 11.0021C14.7062 13.0264 13.0645 14.6681 11.0402 14.6681Z" fill="white"/>
<path d="M18.2346 5.12698C18.2346 5.85558 17.6438 6.44635 16.9151 6.44635C16.1865 6.44635 15.5957 5.85558 15.5957 5.12698C15.5957 4.39822 16.1865 3.80762 16.9151 3.80762C17.6438 3.80762 18.2346 4.39822 18.2346 5.12698Z" fill="white"/>
</g>
<defs>
<clipPath id="clip0_4492_7265">
<rect width="22" height="22" fill="white"/>
</clipPath>
</defs>
</svg>
