<svg width="26" height="26" viewBox="0 0 26 26" fill="none" xmlns="http://www.w3.org/2000/svg">
<path d="M23.399 23.3997V15.7817C23.399 12.0377 22.593 9.17773 18.225 9.17773C16.119 9.17773 14.715 10.3217 14.143 11.4137H14.091V9.51573H9.95703V23.3997H14.273V16.5097C14.273 14.6897 14.611 12.9477 16.847 12.9477C19.057 12.9477 19.083 15.0017 19.083 16.6137V23.3737H23.399V23.3997Z" fill="white"/>
<path d="M2.9375 9.51562H7.2535V23.3996H2.9375V9.51562Z" fill="white"/>
<path d="M5.09561 2.59961C3.71761 2.59961 2.59961 3.71761 2.59961 5.09561C2.59961 6.47361 3.71761 7.61761 5.09561 7.61761C6.47361 7.61761 7.59161 6.47361 7.59161 5.09561C7.59161 3.71761 6.47361 2.59961 5.09561 2.59961Z" fill="white"/>
</svg>
